<svg xmlns="http://www.w3.org/2000/svg" viewBox="0 0 28.35 20.01"><style>.A{fill:#202020}</style><path class="A" d="M28.43 13.65H.08V0h28.35z"/><path d="M2.92 4.58c.02.03.06.06.1.07s.14.02.26.02c.01 0 .01.01.01.02s0 .02-.01.02H2.3c-.01 0-.01-.01-.01-.02s0-.02.01-.02c.1 0 .15-.01.2-.02s.07-.03.08-.07c.02-.03.02-.08.02-.16V2.77c0-.07-.01-.12-.02-.16-.01-.03-.04-.05-.08-.06-.04-.02-.1-.02-.2-.02-.01 0-.01-.01-.01-.02s0-.02.01-.02h.2c.1.01.18.01.24.01s.12 0 .2-.01c.03 0 .07 0 .13-.01.06 0 .1-.01.16-.01.22 0 .4.05.54.15s.2.25.2.45c0 .15-.04.28-.12.4-.06.1-.16.18-.28.24-.12.05-.24.07-.37.07-.07 0-.12-.01-.17-.02-.01 0-.01-.01-.01-.02s0-.01.01-.02h.14a.49.49 0 0 0 .36-.15c.1-.1.15-.25.15-.44s-.05-.33-.14-.44a.51.51 0 0 0-.38-.16c-.07 0-.12.01-.16.02-.05.02-.08.04-.1.07-.02.04-.02.1-.02.17V4.4c0 .08.01.13.03.17zm1.88.02a1.08 1.08 0 0 1-.4-.42c-.1-.17-.14-.37-.14-.58 0-.24.06-.46.2-.63a1.19 1.19 0 0 1 .47-.39 1.38 1.38 0 0 1 .6-.13 1.1 1.1 0 0 1 .6.16 1.05 1.05 0 0 1 .39.42c.1.17.14.35.14.55a1.13 1.13 0 0 1-.17.6c-.12.18-.27.32-.46.42a1.33 1.33 0 0 1-.62.16c-.22 0-.42-.05-.6-.16zm1.13-.04c.12-.08.22-.2.3-.35a1.27 1.27 0 0 0 .1-.54c0-.22-.04-.42-.12-.6-.07-.17-.18-.3-.32-.4-.15-.1-.3-.15-.5-.15-.25 0-.44.08-.58.25s-.2.4-.2.7c0 .23.04.43.12.62s.2.33.33.44c.14.1.3.16.48.16.16-.01.3-.05.4-.13zm2.7-2.08c.1.02.2.05.28.08.02.01.03.02.04.03 0 .01 0 .03.01.06l.04.43c0 .01-.01.01-.02.01s-.02 0-.02-.01c-.06-.2-.16-.33-.3-.42s-.3-.13-.5-.13c-.17 0-.33.04-.45.12a.8.8 0 0 0-.3.33c-.07.15-.1.3-.1.5 0 .22.04.42.13.6.08.2.2.33.35.44.14.12.3.17.48.17.34 0 .6-.2.73-.6 0 0 .01-.01.02-.01.03 0 .03.01.03.01l-.05.44c-.01.03-.01.04-.02.05s-.02.02-.04.03a1.99 1.99 0 0 1-.67.13 1.42 1.42 0 0 1-.72-.17c-.2-.12-.34-.27-.43-.45a1.24 1.24 0 0 1-.13-.56c0-.22.06-.42.18-.6s.28-.3.48-.4a1.43 1.43 0 0 1 .64-.15c.12 0 .23.02.35.04zm2.35 0a1.2 1.2 0 0 1 .28.08c.02.01.03.02.04.03s.01.03.02.06l.04.43c0 .01-.01.01-.02.01s-.02 0-.02-.01c-.06-.2-.16-.33-.3-.42s-.3-.14-.5-.14c-.17 0-.33.04-.45.12-.14.1-.23.2-.3.34-.07.15-.1.3-.1.5 0 .22.04.42.13.6.08.2.2.33.35.44a.79.79 0 0 0 .48.16c.34 0 .6-.2.73-.6.02-.01.02-.01.03-.01l-.04.44c-.01.03-.01.05-.02.06s-.02.02-.04.03c-.22.1-.44.13-.67.13a1.42 1.42 0 0 1-.72-.17c-.2-.1-.33-.26-.42-.44s-.14-.37-.14-.56c0-.22.06-.42.18-.6s.28-.3.48-.4a1.43 1.43 0 0 1 .64-.15c.12 0 .23.02.35.04zm3.08 2.2c0 .01 0 .02-.01.02h-.9c-.01 0-.01-.01-.01-.02s0-.02.01-.02c.1 0 .16-.01.2-.02s.07-.03.1-.07c.01-.03.02-.1.02-.16V3L12.2 4.33v.1c0 .07.01.12.02.16.01.03.04.06.1.07.04.01.1.02.2.02.01 0 .01.01.01.02s0 .02-.01.02h-.9c-.01 0-.01-.01-.01-.02s0-.02.01-.02c.1 0 .15-.01.2-.02s.07-.03.1-.07c.01-.03.02-.1.02-.16V2.78c0-.07-.01-.12-.02-.16-.01-.03-.04-.06-.08-.07s-.1-.02-.2-.02c-.01 0-.01-.01-.01-.02s0-.02.01-.02h.18c.1.01.18.01.25.01h.28.18c.01 0 .01.01.01.02s0 .02-.01.02a.95.95 0 0 0-.2.02c-.04.01-.07.04-.1.07-.01.03-.02.1-.02.16V4.2l1.26-1.34v-.1c0-.07-.01-.12-.02-.16s-.04-.06-.1-.07c-.04-.01-.1-.02-.2-.02-.01 0-.01-.01-.01-.02s0-.02.01-.02h.17c.1.01.2.01.28.01h.26.2c.01 0 .01.01.01.02s0 .02-.01.02c-.1 0-.15.01-.2.02s-.07.04-.08.07-.02.1-.02.16v1.65c0 .07.01.12.02.16s.04.06.08.07.1.02.2.02zm2.64 0c0 .01 0 .02-.01.02h-.9c-.01 0-.01-.01-.01-.02s0-.02.01-.02c.1 0 .16-.01.2-.02s.07-.03.1-.07c.01-.03.02-.1.02-.16V3l-1.26 1.34v.1c0 .07.01.12.02.16.01.03.04.06.1.07.04.01.1.02.2.02.01 0 .01.01.01.02s0 .02-.01.02h-.9c-.01 0-.01-.01-.01-.02s0-.02.01-.02c.1 0 .15-.01.2-.02s.07-.03.1-.07c.01-.03.02-.1.02-.16V2.78c0-.07-.01-.12-.02-.16-.01-.03-.04-.06-.08-.07s-.1-.02-.2-.02c-.01 0-.01-.01-.01-.02s0-.02.01-.02h.18c.1.01.18.01.25.01h.28.18c.01 0 .01.01.01.02s0 .02-.01.02a.95.95 0 0 0-.2.02c-.04.01-.07.04-.1.07s-.02.1-.02.16V4.2l1.26-1.34v-.1c0-.07-.01-.12-.02-.16s-.04-.06-.1-.07c-.04-.01-.1-.02-.2-.02-.01 0-.01-.01-.01-.02s0-.02.01-.02h.17c.1.01.2.01.28.01h.26.2c.01 0 .01.01.01.02s0 .02-.01.02c-.1 0-.15.01-.2.02s-.07.04-.08.07-.02.1-.02.16v1.65c0 .07.01.12.02.16.01.03.04.06.08.07s.1.02.2.02zm-1.46-2.42c-.08-.03-.14-.07-.2-.12s-.07-.1-.07-.16c0-.03.01-.06.03-.1.02-.02.05-.03.1-.03.05 0 .08.01.1.04s.04.07.06.14c.02.06.04.12.08.16.03.04.08.06.15.06.1 0 .2-.07.24-.22.02-.06.04-.1.06-.14s.05-.04.1-.04c.04 0 .07.01.1.03s.03.05.03.1c0 .06-.02.1-.07.16s-.1.1-.2.12a.69.69 0 0 1-.25.04c-.1 0-.18 0-.26-.04zm3.37.2a1.2 1.2 0 0 1 .28.08c.02.01.03.02.04.03s.01.03.02.06l.04.43c0 .01-.01.01-.02.01s-.02 0-.02-.01c-.06-.2-.16-.33-.3-.42s-.3-.14-.5-.14c-.17 0-.33.04-.45.12-.13.08-.23.2-.3.34-.07.15-.1.3-.1.5 0 .22.04.42.13.6.08.2.2.33.35.44a.79.79 0 0 0 .48.16c.34 0 .6-.2.73-.6.02-.01.02-.01.03-.01l-.04.44c-.01.03-.01.05-.02.06s-.02.02-.04.03c-.22.1-.44.13-.67.13a1.42 1.42 0 0 1-.72-.17c-.2-.1-.33-.26-.42-.44-.1-.18-.15-.37-.15-.56 0-.22.06-.42.18-.6s.28-.3.48-.4a1.43 1.43 0 0 1 .64-.15c.12 0 .23.02.35.04zm2.88 2.2c0 .01 0 .02-.01.02H21c-.03 0-.06-.01-.1-.03a.82.82 0 0 1-.12-.15l-.3-.43-.04-.06-.22-.3c-.05-.06-.1-.1-.15-.12s-.12-.03-.2-.03h-.03v.84c0 .07.01.12.02.16.01.03.04.06.08.07s.1.02.2.02c.01 0 .01.01.01.02s0 .02-.01.02h-.9c-.01 0-.01-.01-.01-.02s0-.02.01-.02c.1 0 .15-.01.2-.02s.07-.03.08-.07c.01-.03.02-.1.02-.16V2.78c0-.07-.01-.12-.02-.16-.01-.03-.04-.06-.08-.07s-.1-.02-.2-.02c-.01 0-.01-.01-.01-.02s0-.02.01-.02h.18c.1.01.18.01.25.01h.27.18c.01 0 .01.01.01.02s0 .02-.01.02c-.1 0-.15.01-.2.02s-.07.04-.1.07c-.01.03-.02.1-.02.16v.75l.24-.01h.05l.42-.57c.1-.14.15-.25.15-.32s-.06-.1-.17-.1c-.01 0-.01-.01-.01-.02s0-.02.01-.02h.16a2.44 2.44 0 0 0 .26.01l.26-.01h.14c.01 0 .01.01.01.02s0 .02-.01.02a.61.61 0 0 0-.34.1c-.1.07-.2.17-.32.3l-.46.62c.07.01.13.03.18.06a.64.64 0 0 1 .15.14c.05.06.12.16.24.32l.27.36c.07.08.14.15.2.2a.48.48 0 0 0 .24.07zm2.52 0c0 .01 0 .02-.01.02h-.9c-.01 0-.01-.01-.01-.02s0-.02.01-.02c.1 0 .16-.01.2-.02s.07-.03.1-.07c.01-.03.02-.1.02-.16V3l-1.26 1.34v.1c0 .07.01.12.02.16.01.03.04.06.1.07.04.01.1.02.2.02.01 0 .01.01.01.02s0 .02-.01.02h-.9c-.01 0-.01-.01-.01-.02s0-.02.01-.02c.1 0 .15-.01.2-.02s.07-.03.1-.07c.01-.03.02-.1.02-.16V2.78c0-.07-.01-.12-.02-.16-.01-.03-.04-.06-.08-.07s-.1-.02-.2-.02c-.01 0-.01-.01-.01-.02s0-.02.01-.02h.18c.1.01.18.01.25.01h.28.18c.01 0 .01.01.01.02s0 .02-.01.02a.95.95 0 0 0-.2.02c-.04.01-.07.04-.1.07-.01.03-.02.1-.02.16V4.2l1.26-1.34v-.1c0-.07-.01-.12-.02-.16-.01-.03-.04-.06-.1-.07-.04-.01-.1-.02-.2-.02-.01 0-.01-.01-.01-.02s0-.02.01-.02h.17c.1.01.2.01.28.01h.26.2c.01 0 .01.01.01.02s0 .02-.01.02c-.1 0-.15.01-.2.02s-.07.04-.08.07-.02.1-.02.16v1.65c0 .07.01.12.02.16.01.03.04.06.08.07s.1.02.2.02zm1.82-.52c.01 0 .01 0 .02.01l-.02.5c0 .02 0 .03-.01.04s-.02.01-.04.01h-1.52c-.01 0-.01-.01-.01-.02s0-.02.01-.02c.1 0 .15-.01.2-.02s.06-.03.08-.07c.01-.03.02-.1.02-.16V2.78c0-.07-.01-.12-.02-.16-.01-.03-.04-.06-.08-.07s-.1-.02-.18-.02c-.01 0-.01-.01-.01-.02s0-.02.01-.02h1.46c.02 0 .03.01.03.03l.01.45c0 .01-.01.01-.02.01s-.02 0-.02-.01c-.02-.13-.06-.23-.14-.3s-.18-.1-.3-.1h-.18c-.1 0-.17.01-.2.04-.03.03-.05.1-.05.17v.73h.4c.12 0 .2-.02.27-.06s.1-.1.1-.2c0-.01.01-.01.02-.01s.02 0 .02.01v.46c.01.08.01.14.01.18 0 .01-.01.01-.02.01s-.02 0-.02-.01c0-.1-.03-.18-.1-.23s-.15-.07-.28-.07h-.38v.82c0 .1.02.15.05.17.03.03.1.05.2.05h.23c.14 0 .25-.04.34-.12s.15-.2.18-.34c-.03-.01-.03-.01-.02-.01zM2.72 6.7L3.6 5.5h.08v1.32h-.1V5.67L2.7 6.83h-.1V5.5h.1V6.7zM6.2 5.5v1.32h-.1V6.2h-.83v.63h-.1V5.5h.1v.6h.83v-.6h.1zm2.46.98c0 .05-.01.1-.03.13s-.04.08-.07.1c-.04.03-.07.05-.12.07-.04.02-.1.03-.13.03H7.7V5.5h.6c.05 0 .1.01.12.03a.7.7 0 0 1 .1.08c.03.03.05.07.06.1s.02.07.02.1c0 .07-.02.13-.05.18-.03.06-.08.1-.14.12a.43.43 0 0 1 .19.13.43.43 0 0 1 .06.22zm-.88-.9v.53h.48c.03 0 .07-.01.1-.02s.06-.03.08-.06c.02-.02.04-.05.05-.08s.02-.06.02-.1c0-.03-.01-.07-.02-.1-.01-.04-.02-.06-.04-.1-.03-.03-.05-.04-.08-.06-.03-.01-.06-.02-.1-.02h-.5zm.78.88c0-.03-.01-.07-.02-.1 0-.03-.02-.06-.05-.1s-.04-.04-.07-.06-.07-.02-.1-.02h-.54v.54h.52c.04 0 .07-.01.1-.02s.06-.03.08-.06c.03-.03.05-.06.07-.1.01-.03.01-.06.01-.1zm2.42.27v.08h-.88V5.5h.86v.08h-.77v.52h.67v.08h-.67v.55h.8zm1.3-.58c0-.08.01-.16.04-.24a.72.72 0 0 1 .12-.21.62.62 0 0 1 .2-.15c.08-.04.17-.06.27-.06.12 0 .22.03.3.08.08.06.15.12.2.2l-.08.04c-.02-.05-.05-.08-.08-.12a.7.7 0 0 0-.1-.08c-.04-.02-.08-.03-.1-.04-.04-.01-.08-.01-.12-.01a.51.51 0 0 0-.22.05.51.51 0 0 0-.16.13c-.04.06-.08.12-.1.2a.76.76 0 0 0-.03.21.54.54 0 0 0 .04.22c.03.07.06.13.1.2a.43.43 0 0 0 .17.13c.06.03.13.05.2.05.04 0 .08-.01.12-.01.04-.01.08-.03.12-.05s.08-.05.1-.08a.36.36 0 0 0 .08-.12l.08.04a.38.38 0 0 1-.09.13.64.64 0 0 1-.13.1.47.47 0 0 1-.15.06c-.06.01-.1.01-.16.01a.54.54 0 0 1-.25-.06c-.08-.04-.14-.1-.2-.15a.61.61 0 0 1-.13-.22c-.04-.07-.06-.16-.06-.24zm3.45-.57h-.48v1.23h-.1V5.6h-.48V5.5h1.06v.08zm1.46 1.1l.87-1.18h.08v1.32h-.1V5.67l-.85 1.16h-.1V5.5h.1l-.01 1.18zm3.48.14h-1.02V5.5h.1v1.23h.75V5.5h.1v1.23h.17v.43h-.1l-.01-.34zm1.56-.14l.87-1.18h.08v1.32h-.1V5.67l-.85 1.16h-.1V5.5h.1l-.02 1.18zm2.55 0l.87-1.18h.08v1.32h-.1V5.67l-.85 1.16h-.1V5.5h.1l-.01 1.18zM4.66 9.63c0 .01 0 .02-.01.02h-.52c-.06 0-.17-.1-.32-.3-.16-.2-.35-.48-.57-.84-.05.01-.1.02-.15.02s-.1 0-.17-.01v.84c0 .07.01.12.02.16s.03.06.07.08c.04.01.1.02.2.02.01 0 .01.01.01.02s0 .02-.01.02h-.86c-.01 0-.01-.01-.01-.02s0-.02.01-.02c.1 0 .15-.01.2-.02s.07-.03.08-.07c.01-.03.02-.1.02-.16V7.7c0-.07-.01-.12-.02-.16-.02-.02-.04-.05-.08-.06s-.1-.02-.2-.02c-.01 0-.01-.01-.01-.02s0-.02.01-.02h.18a2.45 2.45 0 0 0 .25.01h.12c.04 0 .07-.01.1-.01.08-.01.15-.01.22-.01.2 0 .36.04.47.12a.39.39 0 0 1 .17.33.55.55 0 0 1-.1.32.75.75 0 0 1-.26.24l.5.7c.13.16.25.28.35.36a.49.49 0 0 0 .31.11s.01.01.01.02zm-1.54-1.2c.15 0 .26-.03.33-.1s.1-.2.1-.35c0-.2-.03-.32-.1-.4-.07-.08-.17-.12-.3-.12-.06 0-.1.01-.14.02s-.05.03-.07.07c-.01.03-.02.08-.02.16v.7c.1.01.16.01.2.01zm4.82-.88c-.05-.06-.13-.1-.24-.1-.01 0-.01-.01-.01-.02s0-.02.01-.02h.16c.1.01.15.01.2.01.04 0 .1 0 .2-.01h.15c.01 0 .01.01.01.02s0 .02-.01.02c-.2 0-.3.12-.3.37v1c0 .27-.08.48-.24.63-.15.15-.35.23-.62.23-.18 0-.33-.03-.46-.1s-.24-.17-.3-.3a.87.87 0 0 1-.11-.44V7.7c0-.07-.01-.12-.02-.16-.02-.03-.04-.05-.08-.07-.04-.01-.1-.02-.2-.02-.01 0-.01-.01-.01-.02s0-.02.01-.02h.18a2.45 2.45 0 0 0 .25.01l.26-.01h.17c.01 0 .01.01.01.02s0 .02-.01.02a.68.68 0 0 0-.18.02c-.05.02-.07.04-.1.08s-.02.08-.02.16v1.02c0 .28.06.5.18.64s.3.2.52.2c.2 0 .37-.06.5-.2s.18-.3.18-.55v-1c0-.13-.03-.22-.08-.28zm2.68.5c.05.07.1.12.17.17a2.07 2.07 0 0 0 .27.18c.12.07.2.14.28.2s.13.12.18.2a.51.51 0 0 1 .08.28c0 .12-.03.22-.1.32-.06.1-.15.17-.26.22s-.24.08-.4.08c-.1 0-.2-.01-.28-.03s-.17-.06-.24-.1c-.01-.01-.02-.01-.03-.03-.01-.01-.01-.02-.01-.04l-.03-.5c0-.01 0-.01.02-.02.01 0 .02 0 .02.01a1.54 1.54 0 0 0 .24.46c.1.12.24.2.4.2.1 0 .2-.03.28-.1s.1-.16.1-.3a.53.53 0 0 0-.07-.28c-.05-.08-.1-.15-.17-.2s-.16-.12-.27-.18l-.27-.18c-.07-.05-.12-.1-.17-.2a.46.46 0 0 1-.07-.26.48.48 0 0 1 .1-.31.55.55 0 0 1 .26-.19.92.92 0 0 1 .33-.06c.16 0 .3.03.43.08.03.01.05.03.05.06v.45c0 .01-.01.01-.02.02-.01 0-.02 0-.02-.01a.95.95 0 0 0-.17-.37c-.1-.12-.2-.17-.36-.17-.12 0-.2.03-.28.1-.07.07-.1.16-.1.27-.01.08.01.16.06.23zm3.33 0c.05.07.1.12.17.17a2.07 2.07 0 0 0 .27.18c.12.07.2.14.28.2s.13.12.18.2a.51.51 0 0 1 .08.28c0 .12-.03.22-.1.32-.06.1-.15.17-.26.22s-.24.08-.4.08c-.1 0-.2-.01-.28-.03s-.17-.06-.24-.1c-.01-.01-.02-.01-.03-.03-.01-.01-.01-.02-.01-.04L13.6 9c0-.01 0-.01.02-.02.01 0 .02 0 .02.01a1.54 1.54 0 0 0 .24.46c.1.12.24.2.4.2.1 0 .2-.03.28-.1s.1-.16.1-.3a.53.53 0 0 0-.07-.28c-.05-.08-.1-.15-.17-.2s-.16-.12-.27-.18l-.27-.18c-.07-.05-.12-.1-.17-.2a.46.46 0 0 1-.07-.26.48.48 0 0 1 .1-.31c.07-.1.14-.15.25-.2a.92.92 0 0 1 .33-.06c.16 0 .3.03.43.08.03.01.05.03.05.06l.02.45c0 .01-.01.01-.02.02-.01 0-.02 0-.02-.01a.95.95 0 0 0-.17-.37c-.1-.12-.2-.17-.36-.17-.12 0-.2.03-.28.1-.07.07-.1.16-.1.27 0 .08.03.16.07.23zm3.48 1.46c.01.03.04.06.08.07s.1.02.2.02c.01 0 .01.01.01.02s0 .02-.01.02h-.88c-.01 0-.01-.01-.01-.02s0-.02.01-.02c.1 0 .15-.01.2-.02s.07-.03.08-.07c.01-.03.02-.1.02-.16V7.7c0-.07-.01-.12-.02-.16-.01-.03-.04-.06-.08-.07s-.1-.02-.2-.02c-.01 0-.01-.01-.01-.02s0-.02.01-.02h.2a2.45 2.45 0 0 0 .25.01l.26-.01h.17c.01 0 .01.01.01.02s0 .02-.01.02c-.08 0-.15.01-.2.02s-.07.04-.08.07-.02.1-.02.16v1.65a.91.91 0 0 0 .03.16zm4.52.1c0 .01-.01.02-.01.02-.05 0-.12 0-.22-.01s-.17-.01-.2-.01l-.2.01c-.08.01-.14.01-.18.01-.01 0-.01-.01-.01-.02s.01-.02.01-.02c.08 0 .14-.01.17-.02s.05-.04.05-.08-.02-.1-.05-.17l-.4-.83h-.66l-.3.67c-.03.08-.05.15-.05.2 0 .15.12.23.35.23.01 0 .02.01.02.02s-.01.02-.02.02c-.04 0-.1 0-.2-.01s-.17-.01-.24-.01l-.22.01c-.08.01-.14.01-.2.01-.01 0-.01-.01-.01-.02s.01-.02.01-.02c.07 0 .12-.01.17-.04s.1-.07.13-.14c.04-.06.1-.16.15-.28l.76-1.75c0-.01.01-.01.03-.01.01 0 .02 0 .03.01l.86 1.77c.08.17.15.3.2.35s.12.1.2.1c.01 0 .01.01.01.02zm-1.68-1.2h.6l-.3-.64-.28.64zm5.77-1c0 .01 0 .02-.01.02-.2 0-.3.12-.3.37V9.7c0 .01-.01.01-.02.01l-1.7-2v1.52c0 .12.02.22.07.28s.12.1.2.1c.01 0 .01.01.01.02s0 .02-.01.02h-.67c-.01 0-.01-.01-.01-.02s0-.02.01-.02c.1 0 .18-.03.23-.1s.07-.15.07-.28V7.62c-.1-.1-.2-.16-.3-.16-.01 0-.01-.01-.01-.02s0-.02.01-.02h.53c.02 0 .03 0 .04.01s.02.03.04.06a1.84 1.84 0 0 0 .09.12l1.33 1.6V7.84c0-.12-.02-.22-.07-.28s-.12-.1-.2-.1c-.01 0-.01-.01-.01-.02s0-.02.01-.02h.14c.07.01.13.01.18.01.04 0 .1 0 .2-.01h.15zM2.6 11.76v-1.32h.1v1.32h-.1zm1.57-1.14v1.14h-.1v-1.32h.07l.93 1.16v-1.16h.1v1.32h-.1l-.9-1.14zm2.34-.17l.5 1.2.5-1.2h.1l-.56 1.32h-.08l-.56-1.32h.1zm3.23 1.23v.08h-.88v-1.32h.86v.08h-.77v.52h.67v.08h-.67v.55l.8.01zm2.04-1.02c-.08-.1-.2-.14-.36-.14-.13 0-.22.02-.28.07s-.1.12-.1.2c0 .04.01.08.02.1.01.03.04.05.07.07s.07.04.12.05l.17.04c.07.01.13.03.2.05s.1.04.15.07.07.06.1.1.03.1.03.15-.01.1-.03.15-.06.08-.1.1-.1.05-.15.07c-.06.01-.12.02-.2.02-.2 0-.38-.07-.52-.2l.05-.08a.72.72 0 0 0 .2.14c.08.03.17.05.27.05.12 0 .2-.02.27-.06s.1-.1.1-.2c0-.04-.01-.08-.03-.1s-.04-.06-.08-.08c-.03-.02-.08-.04-.13-.06s-.1-.03-.18-.05c-.07-.01-.13-.03-.2-.05-.05-.01-.1-.04-.14-.06-.04-.03-.06-.06-.08-.1a.29.29 0 0 1-.03-.14c0-.06.01-.1.03-.16s.06-.08.1-.12c.04-.03.1-.06.15-.07.06-.02.12-.02.2-.02.08 0 .16.01.23.04a.44.44 0 0 1 .18.12l-.03.08zm2.3-.13h-.48v1.23h-.1v-1.23h-.48v-.08h1.06v.08zm2.44 1.23v-1.14l-.52.9h-.06l-.52-.9v1.14h-.1v-1.32h.1l.55.94.55-.94h.1v1.32h-.1zm2.36-.08v.08h-.88v-1.32h.86v.08h-.77v.52h.67v.08h-.67v.55l.8.01zm1.4-1.06v1.14h-.1v-1.32h.07l.93 1.16v-1.16h.1v1.32h-.1l-.9-1.14zm3.3-.1h-.48v1.23h-.1v-1.23h-.48v-.08h1.06v.08zm2 .13c-.08-.1-.2-.14-.36-.14-.13 0-.22.02-.28.07s-.1.12-.1.2c0 .04.01.08.02.1.01.03.04.05.07.07s.07.04.12.05l.17.04c.07.01.13.03.2.05s.1.04.15.07.07.06.1.1.03.1.03.15-.01.1-.03.15-.06.08-.1.1-.1.05-.15.07c-.06.01-.12.02-.2.02-.2 0-.38-.07-.52-.2l.05-.08a.72.72 0 0 0 .2.14c.08.03.17.05.27.05.12 0 .2-.02.27-.06s.1-.1.1-.2c0-.04-.01-.08-.03-.1s-.04-.06-.08-.08a.81.81 0 0 0-.13-.06c-.05-.02-.1-.03-.18-.05-.07-.01-.13-.03-.2-.05-.05-.01-.1-.04-.14-.06-.04-.03-.06-.06-.08-.1s-.03-.08-.03-.14.01-.1.03-.16.06-.08.1-.12c.04-.03.1-.06.15-.07.06-.02.12-.02.2-.02.08 0 .16.01.23.04a.44.44 0 0 1 .18.12l-.03.08z" fill="#fff"/><path class="A" d="M19.13 13.65L14.25 20l-4.88-6.36"/></svg>