<svg version="1" xmlns="http://www.w3.org/2000/svg" width="400" height="400" viewBox="0 0 300.000000 300.000000"><path d="M28.3 1.4C18 4.7 7.9 13.6 3.2 23.8L.5 29.5v241l2.7 5.8c3.8 8 11.7 16 19.7 20l6.6 3.2h242l5.8-2.7c7.7-3.6 16-11.6 19.7-19.1l3-6V28.3l-3-6c-3.7-7.5-12-15.5-19.7-19.1L271.5.5 152 .3C55.2.2 31.7.4 28.3 1.4zM102 81.3c20.6 6.1 33.2 19.8 36.1 39 3 20.1-6.3 37.7-24.3 46.2-9.7 4.6-21.4 6.5-39.4 6.5H60v50H26V78.8l35.3.5c28.5.3 36.2.7 40.7 2zm87 42.8c0 25.6.4 44.8.9 44.5.5-.3 12.2-20.6 26.1-45.1L241.2 79H276v144h-35l-.2-45.1-.3-45-25.5 45-25.5 45-17.2.1H155V79h34v45.1z"/><path d="M60 126v21h14.8c19.2-.1 23.7-1.9 27.7-11.3 4.2-10.2-.3-23.8-9.5-28.5-4-2-5.9-2.2-18.7-2.2H60v21z"/></svg>