<?xml version="1.0" encoding="utf-8"?>
<!-- Generator: Adobe Illustrator 23.0.1, SVG Export Plug-In . SVG Version: 6.00 Build 0)  -->
<svg version="1.1" id="Layer_1" xmlns="http://www.w3.org/2000/svg" xmlns:xlink="http://www.w3.org/1999/xlink" x="0px" y="0px"
	 viewBox="0 0 452.57 237.36" style="enable-background:new 0 0 452.57 237.36;" xml:space="preserve">
<style type="text/css">
	.st0{fill-rule:evenodd;clip-rule:evenodd;fill:#C9C9C9;}
	.st1{fill:#333333;}
</style>
<g>
	<g>
		<path class="st0" d="M106.85,34.23c47.51,0,86.02,38.52,86.02,86.05s-38.51,86.05-86.02,86.05s-86.02-38.52-86.02-86.05
			S59.35,34.23,106.85,34.23z"/>
		<path class="st0" d="M390.92,70.26c18.23,0,33.02,14.78,33.02,33.02c0,18.23-14.78,33.02-33.02,33.02
			c-18.23,0-33.02-14.78-33.02-33.02C357.9,85.05,372.68,70.26,390.92,70.26z"/>
		<path class="st0" d="M336.9,37.23c23.2,0,42,18.81,42,42.02c0,23.2-18.8,42.02-42,42.02c-23.2,0-42-18.81-42-42.02
			C294.9,56.04,313.7,37.23,336.9,37.23z"/>
		<path class="st0" d="M288.4,70.26c27.89,0,50.5,22.62,50.5,50.52c0,27.9-22.61,50.52-50.5,50.52c-27.89,0-50.5-22.62-50.5-50.52
			C237.9,92.88,260.51,70.26,288.4,70.26z"/>
		<path class="st0" d="M218.38,95.26c33.97,0,61.52,27.55,61.52,61.53c0,33.98-27.54,61.53-61.52,61.53
			c-33.97,0-61.52-27.55-61.52-61.53C156.87,122.81,184.41,95.26,218.38,95.26z"/>
	</g>
	<g>
		<path class="st1" d="M42.57,23.8h0.87v-2.7c0.2,0.05,0.44,0.06,0.7,0.06c0.85,0,1.6-0.25,2.06-0.74c0.34-0.35,0.52-0.83,0.52-1.44
			c0-0.6-0.22-1.09-0.59-1.41c-0.4-0.36-1.03-0.56-1.89-0.56c-0.7,0-1.25,0.06-1.67,0.13V23.8z M43.44,17.77
			c0.15-0.04,0.44-0.07,0.82-0.07c0.96,0,1.59,0.43,1.59,1.32c0,0.93-0.64,1.44-1.69,1.44c-0.29,0-0.53-0.02-0.72-0.07V17.77z"/>
		<path class="st1" d="M50.54,16.95c-1.8,0-3.13,1.4-3.13,3.54c0,2.04,1.25,3.42,3.03,3.42c1.72,0,3.13-1.23,3.13-3.55
			C53.57,18.36,52.38,16.95,50.54,16.95z M50.5,17.66c1.45,0,2.15,1.4,2.15,2.74c0,1.53-0.78,2.8-2.16,2.8
			c-1.37,0-2.15-1.29-2.15-2.73C48.34,18.99,49.06,17.66,50.5,17.66z"/>
		<path class="st1" d="M59.23,22.89c-0.35,0.17-0.89,0.28-1.42,0.28c-1.64,0-2.59-1.06-2.59-2.71c0-1.77,1.05-2.78,2.63-2.78
			c0.56,0,1.03,0.12,1.36,0.28l0.21-0.71c-0.23-0.12-0.76-0.3-1.6-0.3c-2.09,0-3.52,1.43-3.52,3.54c0,2.21,1.43,3.41,3.33,3.41
			c0.82,0,1.46-0.16,1.78-0.32L59.23,22.89z"/>
		<path class="st1" d="M64.83,22.89c-0.35,0.17-0.89,0.28-1.42,0.28c-1.64,0-2.59-1.06-2.59-2.71c0-1.77,1.05-2.78,2.63-2.78
			c0.56,0,1.03,0.12,1.36,0.28l0.21-0.71c-0.23-0.12-0.76-0.3-1.6-0.3c-2.09,0-3.52,1.43-3.52,3.54c0,2.21,1.43,3.41,3.33,3.41
			c0.82,0,1.46-0.16,1.78-0.32L64.83,22.89z"/>
		<path class="st1" d="M66.1,17.06v6.74h0.93l2.11-3.35c0.46-0.75,0.92-1.53,1.25-2.27l0.03,0.01c-0.07,0.85-0.08,1.65-0.08,2.74
			v2.87h0.82v-6.74h-0.87l-2.18,3.47c-0.49,0.8-0.91,1.53-1.25,2.23l-0.02-0.01c0.06-0.9,0.08-1.78,0.08-2.85v-2.84H66.1z"/>
		<path class="st1" d="M73,23.8c0.1-0.18,0.15-0.32,0.22-0.49c0.24-0.64,0.43-1.63,0.89-2.1c0.24-0.24,0.55-0.33,0.97-0.33h0.64
			v2.92h0.87v-6.65c-0.44-0.09-1.04-0.14-1.61-0.14c-0.85,0-1.51,0.18-1.93,0.52c-0.38,0.31-0.62,0.78-0.62,1.37
			c0,0.92,0.66,1.52,1.49,1.66v0.03c-0.2,0.06-0.4,0.18-0.56,0.34c-0.55,0.55-0.73,1.49-1.02,2.26c-0.08,0.22-0.17,0.43-0.27,0.61
			H73z M75.72,20.21c-0.17,0.01-0.45,0.01-0.74,0.01c-0.95,0-1.67-0.47-1.67-1.28c0-0.93,0.73-1.26,1.59-1.26
			c0.39,0,0.67,0.05,0.82,0.08V20.21z"/>
		<path class="st1" d="M237.61,224.15v6.72c0.29,0.04,0.75,0.08,1.36,0.08c0.92,0,1.83-0.21,2.38-0.75
			c0.35-0.35,0.56-0.83,0.56-1.46c0-0.79-0.35-1.32-0.86-1.65c-0.47-0.31-1.1-0.45-1.74-0.45c-0.22,0-0.62,0.02-0.83,0.05v-1.81
			h2.91v-0.73H237.61z M238.48,227.36c0.22-0.02,0.49-0.04,0.69-0.04c0.48,0,0.93,0.1,1.28,0.34c0.33,0.23,0.55,0.58,0.55,1.1
			c0,0.42-0.14,0.75-0.37,0.99c-0.33,0.35-0.88,0.52-1.42,0.52c-0.3,0-0.53-0.01-0.73-0.05V227.36z"/>
		<path class="st1" d="M243.04,230.89h0.87v-2.7c0.2,0.05,0.44,0.06,0.7,0.06c0.85,0,1.6-0.25,2.06-0.74
			c0.34-0.35,0.52-0.83,0.52-1.44c0-0.6-0.22-1.09-0.59-1.41c-0.4-0.36-1.03-0.56-1.89-0.56c-0.7,0-1.25,0.06-1.67,0.13V230.89z
			 M243.91,224.86c0.15-0.04,0.44-0.07,0.82-0.07c0.96,0,1.59,0.43,1.59,1.32c0,0.93-0.64,1.44-1.69,1.44
			c-0.29,0-0.53-0.02-0.72-0.07V224.86z"/>
		<path class="st1" d="M251,228.77l0.72,2.12h0.93l-2.3-6.74h-1.05l-2.29,6.74h0.9l0.7-2.12H251z M248.79,228.09l0.66-1.95
			c0.13-0.41,0.24-0.82,0.34-1.22h0.02c0.1,0.39,0.2,0.79,0.35,1.23l0.66,1.94H248.79z"/>
		<path class="st1" d="M253.72,225.19c0.36-0.23,0.89-0.44,1.4-0.44c0.73,0,1.21,0.38,1.21,1.06c0,0.69-0.69,1.24-1.58,1.24h-0.4
			v0.66h0.4c0.86,0,1.83,0.29,1.83,1.3c0,0.74-0.55,1.28-1.55,1.28c-0.55,0-1.15-0.2-1.51-0.41l-0.23,0.68
			c0.51,0.31,1.15,0.44,1.76,0.44c1.23,0,2.44-0.56,2.44-1.96c0-0.97-0.69-1.59-1.64-1.69v-0.02c0.79-0.18,1.39-0.81,1.39-1.64
			c0-1.04-0.81-1.65-1.98-1.65c-0.73,0-1.32,0.21-1.78,0.51L253.72,225.19z"/>
		<path class="st1" d="M258.66,224.15v6.74h0.93l2.11-3.35c0.46-0.75,0.92-1.53,1.25-2.27l0.03,0.01c-0.07,0.85-0.08,1.65-0.08,2.74
			v2.87h0.82v-6.74h-0.87l-2.18,3.47c-0.49,0.8-0.91,1.53-1.25,2.23l-0.02-0.01c0.06-0.9,0.08-1.78,0.08-2.85v-2.84H258.66z"/>
		<path class="st1" d="M265.74,224.15v2.84c0,1.08-0.05,2.39-0.59,2.92c-0.16,0.15-0.44,0.31-0.71,0.36l0.11,0.7
			c0.39,0,0.78-0.16,1.03-0.32c0.95-0.64,1.01-2.27,1.01-3.73v-2.04h2.23v6.01h0.88v-6.74H265.74z"/>
		<path class="st1" d="M271.22,224.15v6.74h0.93l2.11-3.35c0.46-0.75,0.92-1.53,1.25-2.27l0.03,0.01c-0.07,0.85-0.08,1.65-0.08,2.74
			v2.87h0.82v-6.74h-0.87l-2.18,3.47c-0.49,0.8-0.91,1.53-1.25,2.23l-0.02-0.01c0.06-0.9,0.08-1.78,0.08-2.85v-2.84H271.22z"/>
		<path class="st1" d="M278.12,230.89c0.1-0.18,0.15-0.32,0.22-0.49c0.24-0.64,0.43-1.63,0.89-2.1c0.24-0.24,0.55-0.33,0.97-0.33
			h0.64v2.92h0.87v-6.65c-0.44-0.09-1.04-0.14-1.61-0.14c-0.85,0-1.51,0.18-1.93,0.52c-0.38,0.31-0.62,0.78-0.62,1.37
			c0,0.92,0.66,1.52,1.49,1.66v0.03c-0.2,0.06-0.4,0.18-0.56,0.34c-0.55,0.55-0.73,1.49-1.02,2.26c-0.08,0.22-0.17,0.43-0.27,0.61
			H278.12z M280.84,227.3c-0.17,0.01-0.45,0.01-0.74,0.01c-0.95,0-1.67-0.47-1.67-1.28c0-0.93,0.73-1.26,1.59-1.26
			c0.39,0,0.67,0.05,0.82,0.08V227.3z"/>
		<path class="st1" d="M319.63,17.06v6.74h0.87v-3.1h0.98c0.07,1.97,1.17,3.21,2.8,3.21c1.6,0,2.9-1.21,2.9-3.55
			c0-2-1.06-3.41-2.81-3.41c-1.59,0-2.69,1.14-2.87,3.02h-1v-2.91H319.63z M324.31,23.21c-1.26,0-1.97-1.32-1.97-2.74
			c0-1.46,0.65-2.82,1.99-2.82c1.33,0,1.96,1.41,1.96,2.75C326.28,21.93,325.58,23.21,324.31,23.21z"/>
		<path class="st1" d="M327.58,17.06l2.39,3.1c-1.05,0.13-1.48,0.79-1.82,1.74c-0.22,0.63-0.38,1.28-0.67,1.9h0.89
			c0.22-0.45,0.38-1.1,0.54-1.58c0.32-0.92,0.66-1.51,1.74-1.51h0.3v3.09h0.85v-3.09h0.29c1.08,0,1.42,0.59,1.73,1.51
			c0.17,0.48,0.33,1.13,0.56,1.58h0.89c-0.28-0.62-0.44-1.27-0.67-1.91c-0.33-0.96-0.76-1.62-1.82-1.73l2.39-3.1h-1.02l-2.08,2.99
			h-0.27v-2.99h-0.85v2.99h-0.26l-2.09-2.99H327.58z"/>
		<path class="st1" d="M336.14,17.06v6.74h0.87v-3.16h3.26v3.16h0.88v-6.74h-0.88v2.82h-3.26v-2.82H336.14z"/>
		<path class="st1" d="M346.14,21.68l0.72,2.12h0.93l-2.3-6.74h-1.05l-2.29,6.74h0.9l0.7-2.12H346.14z M343.93,21l0.66-1.95
			c0.13-0.41,0.24-0.82,0.34-1.22h0.02c0.1,0.39,0.2,0.79,0.35,1.23l0.66,1.94H343.93z"/>
		<path class="st1" d="M349.1,23.8c0.1-0.18,0.15-0.32,0.22-0.49c0.24-0.64,0.43-1.63,0.89-2.1c0.24-0.24,0.55-0.33,0.97-0.33h0.64
			v2.92h0.87v-6.65c-0.44-0.09-1.04-0.14-1.61-0.14c-0.85,0-1.51,0.18-1.93,0.52c-0.38,0.31-0.62,0.78-0.62,1.37
			c0,0.92,0.66,1.52,1.49,1.66v0.03c-0.2,0.06-0.4,0.18-0.56,0.34c-0.55,0.55-0.73,1.49-1.02,2.26c-0.08,0.22-0.17,0.43-0.27,0.61
			H349.1z M351.82,20.21c-0.17,0.01-0.45,0.01-0.74,0.01c-0.95,0-1.67-0.47-1.67-1.28c0-0.93,0.73-1.26,1.59-1.26
			c0.39,0,0.67,0.05,0.82,0.08V20.21z"/>
		<path class="st1" d="M359.81,21.68l0.72,2.12h0.93l-2.3-6.74h-1.05l-2.29,6.74h0.9l0.7-2.12H359.81z M357.6,21l0.66-1.95
			c0.13-0.41,0.24-0.82,0.34-1.22h0.02c0.1,0.39,0.2,0.79,0.35,1.23l0.66,1.94H357.6z"/>
		<path class="st1" d="M364.75,16.79v0.6c-1.3,0.08-2.86,0.87-2.86,3.08c0,2.13,1.43,2.88,2.84,2.97v0.63h0.84v-0.63
			c1.43-0.08,2.85-0.89,2.85-3.01s-1.42-2.98-2.84-3.04v-0.6H364.75z M364.74,22.82c-0.99-0.1-1.95-0.78-1.95-2.39
			c0-1.75,1.07-2.36,1.95-2.41V22.82z M365.56,18.02c0.97,0.05,1.95,0.67,1.95,2.4c0,1.67-0.98,2.32-1.95,2.4V18.02z"/>
		<path class="st1" d="M369.54,23.8h0.87v-2.7c0.2,0.05,0.44,0.06,0.7,0.06c0.85,0,1.6-0.25,2.06-0.74
			c0.34-0.35,0.52-0.83,0.52-1.44c0-0.6-0.22-1.09-0.59-1.41c-0.4-0.36-1.03-0.56-1.89-0.56c-0.7,0-1.25,0.06-1.67,0.13V23.8z
			 M370.41,17.77c0.15-0.04,0.44-0.07,0.82-0.07c0.96,0,1.59,0.43,1.59,1.32c0,0.93-0.64,1.44-1.69,1.44
			c-0.29,0-0.53-0.02-0.72-0.07V17.77z"/>
		<path class="st1" d="M374.86,17.06v6.74h0.93l2.11-3.35c0.46-0.75,0.92-1.53,1.25-2.27l0.03,0.01c-0.07,0.85-0.08,1.65-0.08,2.74
			v2.87h0.82v-6.74h-0.87l-2.18,3.47c-0.49,0.8-0.91,1.53-1.25,2.23l-0.02-0.01c0.06-0.9,0.08-1.78,0.08-2.85v-2.84H374.86z"/>
		<path class="st1" d="M381.44,17.06v6.74h0.86v-3.09h0.28c1.14,0,1.57,0.61,1.88,1.5c0.18,0.53,0.37,1.13,0.61,1.59h0.94
			c-0.3-0.6-0.49-1.22-0.74-1.91c-0.35-0.91-0.78-1.59-1.89-1.74l2.55-3.09h-1.05l-2.31,2.99h-0.27v-2.99H381.44z"/>
		<path class="st1" d="M390.39,21.68l0.72,2.12h0.93l-2.3-6.74h-1.05l-2.29,6.74h0.9l0.7-2.12H390.39z M388.18,21l0.66-1.95
			c0.13-0.41,0.24-0.82,0.34-1.22h0.02c0.1,0.39,0.2,0.79,0.35,1.23l0.66,1.94H388.18z"/>
		<path class="st1" d="M400.64,147.12v6.74h0.93l2.11-3.35c0.46-0.75,0.92-1.53,1.25-2.27l0.03,0.01c-0.07,0.85-0.08,1.65-0.08,2.74
			v2.87h0.82v-6.74h-0.87l-2.18,3.47c-0.49,0.8-0.91,1.53-1.25,2.23l-0.02-0.01c0.06-0.9,0.08-1.78,0.08-2.85v-2.84H400.64z"/>
		<path class="st1" d="M407.23,147.12v6.74h0.87v-3.16h3.26v3.16h0.88v-6.74h-0.88v2.82h-3.26v-2.82H407.23z"/>
		<path class="st1" d="M414.59,147.12v1.71c0,1.16-0.09,2.06-0.32,2.84c-0.16,0.53-0.41,1.02-0.66,1.48l-0.51,0.02l0.06,2.31h0.68
			l0.06-1.62h4.25l0.06,1.62h0.68l0.06-2.31l-0.59-0.02v-6.03H414.59z M415.4,147.84h2.09v5.3h-2.98c0.2-0.36,0.41-0.81,0.55-1.28
			c0.24-0.76,0.34-1.67,0.34-2.75V147.84z"/>
		<path class="st1" d="M420.05,147.12v6.74h0.93l2.11-3.35c0.46-0.75,0.92-1.53,1.25-2.27l0.03,0.01c-0.07,0.85-0.08,1.65-0.08,2.74
			v2.87h0.82v-6.74h-0.87l-2.18,3.47c-0.49,0.8-0.91,1.53-1.25,2.23l-0.02-0.01c0.06-0.9,0.08-1.78,0.08-2.85v-2.84H420.05z"/>
		<path class="st1" d="M426.95,153.86c0.1-0.18,0.15-0.32,0.22-0.49c0.24-0.64,0.43-1.63,0.89-2.1c0.24-0.24,0.55-0.33,0.97-0.33
			h0.64v2.92h0.87v-6.65c-0.44-0.09-1.04-0.14-1.61-0.14c-0.85,0-1.51,0.18-1.93,0.52c-0.38,0.31-0.62,0.78-0.62,1.37
			c0,0.92,0.66,1.52,1.49,1.66v0.03c-0.2,0.06-0.4,0.18-0.56,0.34c-0.55,0.55-0.73,1.49-1.02,2.26c-0.08,0.22-0.17,0.43-0.27,0.61
			H426.95z M429.67,150.27c-0.17,0.01-0.45,0.01-0.74,0.01c-0.95,0-1.67-0.47-1.67-1.28c0-0.93,0.73-1.26,1.59-1.26
			c0.39,0,0.67,0.05,0.82,0.08V150.27z"/>
		<path class="st1" d="M236.61,57.08v6.74h0.86v-3.09h0.28c1.14,0,1.57,0.61,1.88,1.5c0.18,0.53,0.37,1.13,0.61,1.59h0.94
			c-0.3-0.6-0.49-1.22-0.74-1.91c-0.35-0.91-0.78-1.59-1.89-1.74l2.55-3.09h-1.05l-2.31,2.99h-0.27v-2.99H236.61z"/>
		<path class="st1" d="M242.03,57.08v6.74h0.93l2.11-3.35c0.46-0.75,0.92-1.53,1.25-2.27l0.03,0.01c-0.07,0.85-0.08,1.65-0.08,2.74
			v2.87h0.82v-6.74h-0.87l-2.18,3.47c-0.49,0.8-0.91,1.53-1.25,2.23l-0.02-0.01c0.06-0.9,0.08-1.78,0.08-2.85v-2.84H242.03z"/>
		<path class="st1" d="M249.89,63.82h0.88v-6h2.06v-0.74h-4.99v0.74h2.05V63.82z"/>
		<path class="st1" d="M256.25,61.7l0.72,2.12h0.93l-2.3-6.74h-1.05l-2.29,6.74h0.9l0.7-2.12H256.25z M254.04,61.02l0.66-1.95
			c0.13-0.41,0.24-0.82,0.34-1.22h0.02c0.1,0.39,0.2,0.79,0.35,1.23l0.66,1.94H254.04z"/>
		<path class="st1" d="M258.89,57.08v6.74h0.93l2.11-3.35c0.46-0.75,0.92-1.53,1.25-2.27l0.03,0.01c-0.07,0.85-0.08,1.65-0.08,2.74
			v2.87h0.82v-6.74h-0.87l-2.18,3.47c-0.49,0.8-0.91,1.53-1.25,2.23l-0.02-0.01c0.06-0.9,0.08-1.78,0.08-2.85v-2.84H258.89z
			 M260.14,55.67c0.05,0.66,0.44,1.07,1.26,1.07c0.85,0,1.25-0.41,1.3-1.07h-0.67c-0.04,0.33-0.15,0.62-0.61,0.62
			c-0.47,0-0.57-0.31-0.61-0.62H260.14z"/>
		<path class="st1" d="M378.05,93.72v1.97h8.59v0.05l-7.61,15.53h2.46l7.64-15.99v-1.57H378.05z"/>
		<path class="st1" d="M392.5,114.43c0.76-1.27,1.94-4.27,2.56-6.56l-2.65,0.27c-0.3,1.97-1.03,4.86-1.62,6.45L392.5,114.43z"/>
		<path class="st1" d="M402.33,111.27h2.29V93.72h-2.02l-3.83,2.05l0.46,1.81l3.05-1.65h0.05V111.27z"/>
		<path class="st1" d="M319.87,87.26h2.29V69.71h-2.02l-3.83,2.05l0.46,1.81l3.05-1.65h0.05V87.26z"/>
		<path class="st1" d="M328.49,86.37c0.86,0.57,2.59,1.19,4.56,1.19c4.21,0,6.4-2.46,6.4-5.27c0-2.46-1.75-4.08-3.91-4.51v-0.05
			c2.16-0.78,3.24-2.32,3.24-4.13c0-2.13-1.57-4.19-5.02-4.19c-1.89,0-3.67,0.68-4.59,1.35l0.62,1.73c0.76-0.54,2.11-1.16,3.51-1.16
			c2.19,0,3.08,1.24,3.08,2.65c0,2.08-2.19,2.97-3.91,2.97h-1.32v1.78h1.32c2.29,0,4.51,1.05,4.54,3.51c0.03,1.46-0.92,3.4-3.97,3.4
			c-1.65,0-3.21-0.68-3.89-1.11L328.49,86.37z"/>
		<path class="st1" d="M343.34,90.42c0.76-1.27,1.94-4.27,2.56-6.56l-2.65,0.27c-0.3,1.97-1.03,4.86-1.62,6.45L343.34,90.42z"/>
		<path class="st1" d="M357.6,87.26v-4.78h2.46v-1.86h-2.46V69.71h-2.56l-7.83,11.21v1.57h8.15v4.78H357.6z M349.61,80.62v-0.05
			l4.29-5.97c0.49-0.81,0.92-1.57,1.46-2.59h0.08c-0.05,0.92-0.08,1.84-0.08,2.75v5.86H349.61z"/>
		<path class="st1" d="M271.86,129.28h2.29v-17.55h-2.02l-3.83,2.05l0.46,1.81l3.05-1.65h0.05V129.28z"/>
		<path class="st1" d="M291.03,111.72h-8.4l-1.13,8.43c0.65-0.08,1.43-0.19,2.43-0.19c3.51,0,5.02,1.62,5.05,3.89
			c0,2.35-1.92,3.81-4.16,3.81c-1.59,0-3.02-0.54-3.75-0.97l-0.59,1.81c0.84,0.54,2.46,1.08,4.37,1.08c3.81,0,6.53-2.57,6.53-5.99
			c0-2.21-1.13-3.73-2.51-4.51c-1.08-0.65-2.43-0.95-3.78-0.95c-0.65,0-1.03,0.05-1.43,0.11l0.67-4.51h6.7V111.72z"/>
		<path class="st1" d="M295.33,132.43c0.76-1.27,1.94-4.27,2.56-6.56l-2.65,0.27c-0.3,1.97-1.03,4.86-1.62,6.45L295.33,132.43z"/>
		<path class="st1" d="M310.48,111.72h-8.4l-1.13,8.43c0.65-0.08,1.43-0.19,2.43-0.19c3.51,0,5.02,1.62,5.05,3.89
			c0,2.35-1.92,3.81-4.16,3.81c-1.59,0-3.02-0.54-3.75-0.97l-0.59,1.81c0.84,0.54,2.46,1.08,4.37,1.08c3.81,0,6.53-2.57,6.53-5.99
			c0-2.21-1.13-3.73-2.51-4.51c-1.08-0.65-2.43-0.95-3.78-0.95c-0.65,0-1.03,0.05-1.43,0.11l0.67-4.51h6.7V111.72z"/>
		<path class="st1" d="M201.85,165.29h2.29v-17.55h-2.02l-3.83,2.05l0.46,1.81l3.05-1.65h0.05V165.29z"/>
		<path class="st1" d="M220.56,147.47c-0.43,0-1.03,0.03-1.73,0.13c-2.21,0.27-4.16,1.16-5.62,2.59c-1.73,1.73-2.97,4.46-2.97,7.91
			c0,4.56,2.46,7.48,6.21,7.48c3.64,0,5.83-2.97,5.83-6.18c0-3.43-2.19-5.67-5.29-5.67c-1.94,0-3.4,0.92-4.24,2.03h-0.08
			c0.4-2.89,2.38-5.62,6.1-6.24c0.68-0.11,1.3-0.14,1.78-0.11V147.47z M216.46,163.75c-2.48,0-3.81-2.13-3.86-5.02
			c0-0.43,0.11-0.78,0.27-1.05c0.65-1.27,1.97-2.16,3.4-2.16c2.19,0,3.62,1.51,3.62,4.02C219.89,162.05,218.51,163.75,216.46,163.75
			z"/>
		<path class="st1" d="M225.32,168.45c0.76-1.27,1.94-4.27,2.56-6.56l-2.65,0.27c-0.3,1.97-1.03,4.86-1.62,6.45L225.32,168.45z"/>
		<path class="st1" d="M240,147.47c-0.43,0-1.03,0.03-1.73,0.13c-2.21,0.27-4.16,1.16-5.62,2.59c-1.73,1.73-2.97,4.46-2.97,7.91
			c0,4.56,2.46,7.48,6.21,7.48c3.64,0,5.83-2.97,5.83-6.18c0-3.43-2.19-5.67-5.29-5.67c-1.94,0-3.4,0.92-4.24,2.03h-0.08
			c0.4-2.89,2.38-5.62,6.1-6.24c0.68-0.11,1.3-0.14,1.78-0.11V147.47z M235.9,163.75c-2.48,0-3.81-2.13-3.86-5.02
			c0-0.43,0.11-0.78,0.27-1.05c0.65-1.27,1.97-2.16,3.4-2.16c2.19,0,3.62,1.51,3.62,4.02C239.33,162.05,237.95,163.75,235.9,163.75z
			"/>
		<path class="st1" d="M84.87,128.28v-1.97h-7.88v-0.05l1.4-1.3c3.7-3.56,6.05-6.18,6.05-9.42c0-2.51-1.59-5.1-5.37-5.1
			c-2.02,0-3.75,0.76-4.97,1.78l0.76,1.67c0.81-0.68,2.13-1.49,3.73-1.49c2.62,0,3.48,1.65,3.48,3.43
			c-0.03,2.65-2.05,4.91-6.53,9.18l-1.86,1.81v1.46H84.87z"/>
		<path class="st1" d="M87.84,110.72v1.97h8.59v0.05l-7.61,15.53h2.46l7.64-15.99v-1.57H87.84z"/>
		<path class="st1" d="M102.29,131.43c0.76-1.27,1.94-4.27,2.56-6.56l-2.65,0.27c-0.3,1.97-1.03,4.86-1.62,6.45L102.29,131.43z"/>
		<path class="st1" d="M108.34,128.55c0.57,0.03,1.32,0,2.19-0.13c1.89-0.22,3.75-1.03,5.1-2.35c1.73-1.67,3.02-4.37,3.02-8.24
			c0-4.48-2.21-7.4-5.8-7.4c-3.59,0-5.99,2.92-5.99,6.24c0,3,2.02,5.37,5.18,5.37c1.75,0,3.16-0.7,4.13-1.89h0.08
			c-0.32,2.08-1.16,3.62-2.32,4.67c-1,0.95-2.29,1.51-3.67,1.7c-0.81,0.08-1.4,0.14-1.92,0.08V128.55z M112.66,112.24
			c2.48,0,3.59,2.3,3.59,5.29c0,0.38-0.08,0.65-0.22,0.86c-0.62,1.05-1.86,1.84-3.46,1.84c-2.05,0-3.37-1.54-3.37-3.73
			C109.2,114.02,110.63,112.24,112.66,112.24z"/>
		<path class="st1" d="M126.67,110.43c-3.56,0-6.1,3.24-6.1,9.13c0.05,5.81,2.38,9.02,5.8,9.02c3.89,0,6.1-3.29,6.1-9.26
			C132.48,113.72,130.37,110.43,126.67,110.43z M126.54,112.26c2.46,0,3.56,2.84,3.56,7.16c0,4.48-1.16,7.32-3.59,7.32
			c-2.16,0-3.56-2.59-3.56-7.16C122.95,114.8,124.46,112.26,126.54,112.26z"/>
		<path class="st1" d="M140.53,110.43c-3.56,0-6.1,3.24-6.1,9.13c0.05,5.81,2.38,9.02,5.8,9.02c3.89,0,6.1-3.29,6.1-9.26
			C146.33,113.72,144.22,110.43,140.53,110.43z M140.39,112.26c2.46,0,3.56,2.84,3.56,7.16c0,4.48-1.16,7.32-3.59,7.32
			c-2.16,0-3.56-2.59-3.56-7.16C136.8,114.8,138.31,112.26,140.39,112.26z"/>
	</g>
</g>
</svg>
