<?xml version="1.0" encoding="utf-8"?>
<!-- Generator: Adobe Illustrator 23.0.1, SVG Export Plug-In . SVG Version: 6.00 Build 0)  -->
<svg version="1.1" id="Layer_1" xmlns="http://www.w3.org/2000/svg" xmlns:xlink="http://www.w3.org/1999/xlink" x="0px" y="0px"
	 viewBox="0 0 452.57 237.36" style="enable-background:new 0 0 452.57 237.36;" xml:space="preserve">
<style type="text/css">
	.st0{fill-rule:evenodd;clip-rule:evenodd;fill:#D8D8D8;}
	.st1{fill:#232322;}
</style>
<g>
	<g>
		<path class="st0" d="M345.95,42.02c43.84,0,79.37,35.54,79.37,79.38c0,43.84-35.54,79.38-79.37,79.38
			c-43.84,0-79.37-35.54-79.37-79.38C266.58,77.56,302.11,42.02,345.95,42.02z"/>
		<path class="st0" d="M38.58,93.52c15.39,0,27.86,12.48,27.86,27.87c0,15.39-12.47,27.87-27.86,27.87s-27.86-12.48-27.86-27.87
			C10.72,106,23.19,93.52,38.58,93.52z"/>
		<path class="st0" d="M76.57,85.92c19.58,0,35.46,15.88,35.46,35.47c0,19.59-15.88,35.47-35.46,35.47
			c-19.58,0-35.46-15.88-35.46-35.47C41.11,101.8,56.99,85.92,76.57,85.92z"/>
		<path class="st0" d="M115,80.01c23.55,0,42.65,19.09,42.65,42.65c0,23.55-19.09,42.65-42.65,42.65
			c-23.55,0-42.65-19.09-42.65-42.65C72.35,99.11,91.44,80.01,115,80.01z"/>
		<path class="st0" d="M191.01,69.88c28.68,0,51.93,23.26,51.93,51.95c0,28.69-23.25,51.95-51.93,51.95
			c-28.68,0-51.93-23.26-51.93-51.95C139.07,93.14,162.32,69.88,191.01,69.88z"/>
		<path class="st0" d="M266.56,61.44c33.11,0,59.95,26.85,59.95,59.97c0,33.12-26.84,59.97-59.95,59.97
			c-33.11,0-59.95-26.85-59.95-59.97C206.61,88.29,233.45,61.44,266.56,61.44z"/>
	</g>
	<g>
		<path class="st1" d="M322.17,135.28v-3.51c3.48-0.57,5.34-3.07,5.34-5.74c0-3.01-1.76-4.76-5.23-6.18
			c-2.94-1.22-4.19-2.09-4.19-3.85c0-1.35,0.98-2.9,3.58-2.9c2.16,0,3.55,0.74,4.26,1.15l0.84-2.23c-0.98-0.57-2.36-1.11-4.39-1.18
			v-3.28h-2.09v3.41c-3.11,0.51-5.1,2.63-5.1,5.44c0,2.94,2.13,4.49,5.57,5.84c2.5,1.01,3.82,2.16,3.82,4.02
			c0,1.93-1.62,3.31-4.02,3.31c-1.89,0-3.65-0.64-4.86-1.45l-0.81,2.26c1.18,0.84,3.21,1.45,5.17,1.49v3.41H322.17z"/>
		<path class="st1" d="M343.51,132.38v-5.98h3.07v-2.33h-3.07v-13.65h-3.21l-9.79,14.02v1.96h10.2v5.98H343.51z M333.52,124.07V124
			l5.37-7.46c0.61-1.01,1.15-1.96,1.82-3.24h0.1c-0.07,1.15-0.1,2.3-0.1,3.45v7.33H333.52z"/>
		<path class="st1" d="M350,136.33c0.95-1.59,2.43-5.34,3.21-8.21l-3.31,0.34c-0.37,2.47-1.28,6.08-2.03,8.07L350,136.33z"/>
		<path class="st1" d="M355.74,131.26c1.08,0.71,3.24,1.49,5.71,1.49c5.27,0,8-3.07,8-6.59c0-3.07-2.2-5.1-4.9-5.64v-0.07
			c2.7-0.98,4.05-2.9,4.05-5.17c0-2.67-1.96-5.24-6.28-5.24c-2.36,0-4.59,0.84-5.74,1.69l0.78,2.16c0.95-0.68,2.63-1.45,4.39-1.45
			c2.74,0,3.85,1.55,3.85,3.31c0,2.6-2.74,3.72-4.9,3.72h-1.65v2.23h1.65c2.87,0,5.64,1.32,5.67,4.39c0.03,1.82-1.15,4.26-4.96,4.26
			c-2.06,0-4.02-0.84-4.86-1.38L355.74,131.26z"/>
		<path class="st1" d="M340.47,30.47v-0.74h-2.96v-0.02l0.53-0.49c1.39-1.34,2.27-2.32,2.27-3.54c0-0.94-0.6-1.91-2.02-1.91
			c-0.76,0-1.41,0.28-1.86,0.67l0.28,0.63c0.3-0.25,0.8-0.56,1.4-0.56c0.98,0,1.31,0.62,1.31,1.29c-0.01,0.99-0.77,1.84-2.45,3.44
			l-0.7,0.68v0.55H340.47z"/>
		<path class="st1" d="M343.66,23.77c-1.34,0-2.29,1.22-2.29,3.42c0.02,2.18,0.89,3.38,2.18,3.38c1.46,0,2.29-1.24,2.29-3.47
			C345.84,25.01,345.05,23.77,343.66,23.77z M343.61,24.46c0.92,0,1.34,1.06,1.34,2.68c0,1.68-0.44,2.75-1.35,2.75
			c-0.81,0-1.34-0.97-1.34-2.68C342.27,25.41,342.83,24.46,343.61,24.46z"/>
		<path class="st1" d="M348.6,30.47h0.86v-6.58h-0.76l-1.44,0.77l0.17,0.68l1.14-0.62h0.02V30.47z"/>
		<path class="st1" d="M352.37,30.57c0.21,0.01,0.5,0,0.82-0.05c0.71-0.08,1.41-0.38,1.91-0.88c0.65-0.63,1.13-1.64,1.13-3.09
			c0-1.68-0.83-2.78-2.18-2.78c-1.35,0-2.25,1.09-2.25,2.34c0,1.12,0.76,2.02,1.94,2.02c0.66,0,1.18-0.26,1.55-0.71h0.03
			c-0.12,0.78-0.44,1.36-0.87,1.75c-0.37,0.35-0.86,0.57-1.38,0.64c-0.3,0.03-0.53,0.05-0.72,0.03V30.57z M353.99,24.45
			c0.93,0,1.35,0.86,1.35,1.99c0,0.14-0.03,0.24-0.08,0.32c-0.23,0.4-0.7,0.69-1.3,0.69c-0.77,0-1.27-0.58-1.27-1.4
			C352.7,25.12,353.23,24.45,353.99,24.45z"/>
		<path class="st1" d="M34.76,79.65v-0.74h-2.96v-0.02l0.53-0.49c1.39-1.34,2.27-2.32,2.27-3.54c0-0.94-0.6-1.91-2.02-1.91
			c-0.76,0-1.41,0.28-1.86,0.67l0.28,0.63c0.3-0.25,0.8-0.56,1.4-0.56c0.98,0,1.31,0.62,1.31,1.29c-0.01,0.99-0.77,1.84-2.45,3.44
			l-0.7,0.68v0.55H34.76z"/>
		<path class="st1" d="M37.95,72.95c-1.34,0-2.29,1.22-2.29,3.42c0.02,2.18,0.89,3.38,2.18,3.38c1.46,0,2.29-1.24,2.29-3.47
			C40.13,74.19,39.34,72.95,37.95,72.95z M37.9,73.64c0.92,0,1.34,1.06,1.34,2.68c0,1.68-0.44,2.75-1.35,2.75
			c-0.81,0-1.34-0.97-1.34-2.68C36.56,74.59,37.12,73.64,37.9,73.64z"/>
		<path class="st1" d="M42.89,79.65h0.86v-6.58h-0.76l-1.44,0.77l0.17,0.68l1.14-0.62h0.02V79.65z"/>
		<path class="st1" d="M50.35,79.65v-0.74h-2.96v-0.02l0.53-0.49c1.39-1.34,2.27-2.32,2.27-3.54c0-0.94-0.6-1.91-2.02-1.91
			c-0.76,0-1.41,0.28-1.86,0.67l0.28,0.63c0.3-0.25,0.8-0.56,1.4-0.56c0.98,0,1.31,0.62,1.31,1.29c-0.01,0.99-0.77,1.84-2.45,3.44
			l-0.7,0.68v0.55H50.35z"/>
	</g>
</g>
</svg>
