<?xml version="1.0" encoding="utf-8"?>
<!-- Generator: Adobe Illustrator 23.0.1, SVG Export Plug-In . SVG Version: 6.00 Build 0)  -->
<svg version="1.1" id="Layer_1" xmlns="http://www.w3.org/2000/svg" xmlns:xlink="http://www.w3.org/1999/xlink" x="0px" y="0px"
	 viewBox="0 0 452.57 237.36" style="enable-background:new 0 0 452.57 237.36;" xml:space="preserve">
<style type="text/css">
	.st0{fill-rule:evenodd;clip-rule:evenodd;fill:#D1D1D1;}
	.st1{fill:#0E0F10;}
</style>
<g>
	<g id="circles">
		<path class="st0" d="M376.98,37.68c16.3,0,29.52,13.21,29.52,29.52s-13.21,29.52-29.52,29.52c-16.3,0-29.52-13.21-29.52-29.52
			S360.68,37.68,376.98,37.68z"/>
		<path class="st0" d="M416.49,67.68c11.6,0,21,9.41,21,21.02c0,11.61-9.4,21.02-21,21.02c-11.6,0-21-9.41-21-21.02
			C395.49,77.09,404.9,67.68,416.49,67.68z"/>
		<path class="st0" d="M335.46,63.68c18.23,0,33,14.78,33,33.02c0,18.23-14.77,33.02-33,33.02s-33-14.78-33-33.02
			C302.46,78.46,317.24,63.68,335.46,63.68z"/>
		<path class="st0" d="M287.46,30.68c23.2,0,42,18.81,42,42.02c0,23.2-18.8,42.02-42,42.02c-23.2,0-42-18.81-42-42.02
			C245.46,49.49,264.27,30.68,287.46,30.68z"/>
		<path class="st0" d="M238.95,63.68c27.9,0,50.52,22.62,50.52,50.52c0,27.9-22.62,50.52-50.52,50.52s-50.52-22.62-50.52-50.52
			C188.43,86.3,211.05,63.68,238.95,63.68z"/>
		<path class="st0" d="M168.95,88.68c33.97,0,61.52,27.55,61.52,61.53c0,33.98-27.54,61.53-61.52,61.53
			c-33.97,0-61.52-27.55-61.52-61.53C107.43,116.23,134.97,88.68,168.95,88.68z"/>
		<path class="st0" d="M85.42,28.68c42.53,0,77.02,34.49,77.02,77.03s-34.48,77.03-77.02,77.03c-42.53,0-77.02-34.49-77.02-77.03
			S42.88,28.68,85.42,28.68z"/>
	</g>
	<g>
		<path class="st1" d="M370.2,30.23h0.87v-2.7c0.2,0.05,0.44,0.06,0.7,0.06c0.85,0,1.6-0.25,2.06-0.74
			c0.34-0.35,0.52-0.83,0.52-1.44c0-0.6-0.22-1.09-0.59-1.41c-0.4-0.36-1.03-0.56-1.89-0.56c-0.7,0-1.25,0.06-1.67,0.13V30.23z
			 M371.07,24.21c0.15-0.04,0.44-0.07,0.82-0.07c0.96,0,1.59,0.43,1.59,1.32c0,0.93-0.64,1.44-1.69,1.44
			c-0.29,0-0.53-0.02-0.72-0.07V24.21z"/>
		<path class="st1" d="M378.17,23.39c-1.8,0-3.13,1.4-3.13,3.54c0,2.04,1.25,3.42,3.03,3.42c1.72,0,3.13-1.23,3.13-3.55
			C381.2,24.8,380.01,23.39,378.17,23.39z M378.13,24.1c1.45,0,2.15,1.4,2.15,2.74c0,1.53-0.78,2.8-2.16,2.8
			c-1.37,0-2.15-1.29-2.15-2.73C375.97,25.43,376.69,24.1,378.13,24.1z"/>
		<path class="st1" d="M386.86,29.33c-0.35,0.17-0.89,0.28-1.42,0.28c-1.64,0-2.59-1.06-2.59-2.71c0-1.77,1.05-2.78,2.63-2.78
			c0.56,0,1.03,0.12,1.36,0.28l0.21-0.71c-0.23-0.12-0.76-0.3-1.6-0.3c-2.09,0-3.52,1.43-3.52,3.54c0,2.21,1.43,3.41,3.33,3.41
			c0.82,0,1.46-0.16,1.78-0.32L386.86,29.33z"/>
		<path class="st1" d="M392.47,29.33c-0.35,0.17-0.89,0.28-1.42,0.28c-1.64,0-2.59-1.06-2.59-2.71c0-1.77,1.05-2.78,2.63-2.78
			c0.56,0,1.03,0.12,1.36,0.28l0.21-0.71c-0.23-0.12-0.76-0.3-1.6-0.3c-2.09,0-3.52,1.43-3.52,3.54c0,2.21,1.43,3.41,3.33,3.41
			c0.82,0,1.46-0.16,1.78-0.32L392.47,29.33z"/>
		<path class="st1" d="M393.74,23.5v6.74h0.93l2.11-3.35c0.46-0.75,0.92-1.53,1.25-2.27l0.03,0.01c-0.07,0.85-0.08,1.65-0.08,2.74
			v2.87h0.82V23.5h-0.87l-2.18,3.47c-0.49,0.8-0.91,1.53-1.25,2.23l-0.02-0.01c0.06-0.9,0.08-1.78,0.08-2.85V23.5H393.74z"/>
		<path class="st1" d="M400.64,30.23c0.1-0.18,0.15-0.32,0.22-0.49c0.24-0.64,0.43-1.63,0.89-2.1c0.24-0.24,0.55-0.33,0.97-0.33
			h0.64v2.92h0.87v-6.65c-0.44-0.09-1.04-0.14-1.61-0.14c-0.85,0-1.51,0.18-1.93,0.52c-0.38,0.31-0.62,0.78-0.62,1.37
			c0,0.92,0.66,1.52,1.49,1.66v0.03c-0.2,0.06-0.4,0.18-0.56,0.34c-0.55,0.55-0.73,1.49-1.02,2.26c-0.08,0.22-0.17,0.43-0.27,0.61
			H400.64z M403.36,26.65c-0.17,0.01-0.45,0.01-0.74,0.01c-0.95,0-1.67-0.47-1.67-1.28c0-0.93,0.73-1.26,1.59-1.26
			c0.39,0,0.67,0.05,0.82,0.08V26.65z"/>
		<path class="st1" d="M401.21,118.54v6.72c0.29,0.04,0.75,0.08,1.36,0.08c0.92,0,1.83-0.21,2.38-0.75
			c0.35-0.35,0.56-0.83,0.56-1.46c0-0.79-0.35-1.32-0.86-1.65c-0.47-0.31-1.1-0.45-1.74-0.45c-0.22,0-0.62,0.02-0.83,0.05v-1.81
			h2.91v-0.73H401.21z M402.08,121.75c0.22-0.02,0.49-0.04,0.69-0.04c0.48,0,0.93,0.1,1.28,0.34c0.33,0.23,0.55,0.58,0.55,1.1
			c0,0.42-0.14,0.75-0.37,0.99c-0.33,0.35-0.88,0.52-1.42,0.52c-0.3,0-0.53-0.01-0.73-0.05V121.75z"/>
		<path class="st1" d="M406.64,125.27h0.87v-2.7c0.2,0.05,0.44,0.06,0.7,0.06c0.85,0,1.6-0.25,2.06-0.74
			c0.34-0.35,0.52-0.83,0.52-1.44c0-0.6-0.22-1.09-0.59-1.41c-0.4-0.36-1.03-0.56-1.89-0.56c-0.7,0-1.25,0.06-1.67,0.13V125.27z
			 M407.51,119.25c0.15-0.04,0.44-0.07,0.82-0.07c0.96,0,1.59,0.43,1.59,1.32c0,0.93-0.64,1.44-1.69,1.44
			c-0.29,0-0.53-0.02-0.72-0.07V119.25z"/>
		<path class="st1" d="M414.6,123.15l0.72,2.12h0.93l-2.3-6.74h-1.05l-2.29,6.74h0.9l0.7-2.12H414.6z M412.39,122.48l0.66-1.95
			c0.13-0.41,0.24-0.82,0.34-1.22h0.02c0.1,0.39,0.2,0.79,0.35,1.23l0.66,1.94H412.39z"/>
		<path class="st1" d="M417.32,119.58c0.36-0.23,0.89-0.44,1.4-0.44c0.73,0,1.21,0.38,1.21,1.06c0,0.69-0.69,1.24-1.58,1.24h-0.4
			v0.66h0.4c0.86,0,1.83,0.29,1.83,1.3c0,0.74-0.55,1.28-1.55,1.28c-0.55,0-1.15-0.2-1.51-0.41l-0.23,0.68
			c0.51,0.31,1.15,0.44,1.76,0.44c1.23,0,2.44-0.56,2.44-1.96c0-0.97-0.69-1.59-1.64-1.69v-0.02c0.79-0.18,1.39-0.81,1.39-1.64
			c0-1.04-0.81-1.65-1.98-1.65c-0.73,0-1.32,0.21-1.78,0.51L417.32,119.58z"/>
		<path class="st1" d="M422.26,118.54v6.74h0.93l2.11-3.35c0.46-0.75,0.92-1.53,1.25-2.27l0.03,0.01c-0.07,0.85-0.08,1.65-0.08,2.74
			v2.87h0.82v-6.74h-0.87l-2.18,3.47c-0.49,0.8-0.91,1.53-1.25,2.23l-0.02-0.01c0.06-0.9,0.08-1.78,0.08-2.85v-2.84H422.26z"/>
		<path class="st1" d="M429.35,118.54v2.84c0,1.08-0.05,2.39-0.59,2.92c-0.16,0.15-0.44,0.31-0.71,0.36l0.11,0.7
			c0.39,0,0.78-0.16,1.03-0.32c0.95-0.64,1.01-2.27,1.01-3.73v-2.04h2.23v6.01h0.88v-6.74H429.35z"/>
		<path class="st1" d="M434.82,118.54v6.74h0.93l2.11-3.35c0.46-0.75,0.92-1.53,1.25-2.27l0.03,0.01c-0.07,0.85-0.08,1.65-0.08,2.74
			v2.87h0.82v-6.74h-0.87l-2.18,3.47c-0.49,0.8-0.91,1.53-1.25,2.23l-0.02-0.01c0.06-0.9,0.08-1.78,0.08-2.85v-2.84H434.82z"/>
		<path class="st1" d="M441.72,125.27c0.1-0.18,0.15-0.32,0.22-0.49c0.24-0.64,0.43-1.63,0.89-2.1c0.24-0.24,0.55-0.33,0.97-0.33
			h0.64v2.92h0.87v-6.65c-0.44-0.09-1.04-0.14-1.61-0.14c-0.85,0-1.51,0.18-1.93,0.52c-0.38,0.31-0.62,0.78-0.62,1.37
			c0,0.92,0.66,1.52,1.49,1.66v0.03c-0.2,0.06-0.4,0.18-0.56,0.34c-0.55,0.55-0.73,1.49-1.02,2.26c-0.08,0.22-0.17,0.43-0.27,0.61
			H441.72z M444.44,121.69c-0.17,0.01-0.45,0.01-0.74,0.01c-0.95,0-1.67-0.47-1.67-1.28c0-0.93,0.73-1.26,1.59-1.26
			c0.39,0,0.67,0.05,0.82,0.08V121.69z"/>
		<path class="st1" d="M311.19,139.54v6.74h0.87v-6.01h2.71v-0.73H311.19z"/>
		<path class="st1" d="M319.01,142.4h-2.62v-2.13h2.77v-0.73h-3.64v6.74h3.79v-0.73h-2.92v-2.43h2.62V142.4z"/>
		<path class="st1" d="M320.44,146.28h0.87v-2.7c0.2,0.05,0.44,0.06,0.7,0.06c0.85,0,1.6-0.25,2.06-0.74
			c0.34-0.35,0.52-0.83,0.52-1.44c0-0.6-0.22-1.09-0.59-1.41c-0.4-0.36-1.03-0.56-1.89-0.56c-0.7,0-1.25,0.06-1.67,0.13V146.28z
			 M321.31,140.25c0.15-0.04,0.44-0.07,0.82-0.07c0.96,0,1.59,0.43,1.59,1.32c0,0.93-0.64,1.44-1.69,1.44
			c-0.29,0-0.53-0.02-0.72-0.07V140.25z"/>
		<path class="st1" d="M331.43,146.28h0.85l-0.42-6.74h-1.11l-1.2,3.26c-0.3,0.85-0.54,1.59-0.71,2.27h-0.03
			c-0.17-0.7-0.4-1.44-0.68-2.27l-1.15-3.26h-1.11l-0.47,6.74h0.83l0.18-2.89c0.06-1.01,0.11-2.14,0.13-2.98h0.02
			c0.19,0.8,0.46,1.67,0.78,2.62l1.09,3.21h0.66l1.19-3.27c0.34-0.93,0.62-1.77,0.85-2.56h0.03c-0.01,0.84,0.05,1.97,0.1,2.91
			L331.43,146.28z"/>
		<path class="st1" d="M337.02,144.16l0.72,2.12h0.93l-2.3-6.74h-1.05l-2.29,6.74h0.9l0.7-2.12H337.02z M334.81,143.48l0.66-1.95
			c0.13-0.41,0.24-0.82,0.34-1.22h0.02c0.1,0.39,0.2,0.79,0.35,1.23l0.66,1.94H334.81z"/>
		<path class="st1" d="M339.67,139.54v6.74h0.87v-3.16h3.26v3.16h0.88v-6.74h-0.88v2.82h-3.26v-2.82H339.67z"/>
		<path class="st1" d="M346.19,139.54v6.74h0.93l2.11-3.35c0.46-0.75,0.92-1.53,1.25-2.27l0.03,0.01c-0.07,0.85-0.08,1.65-0.08,2.74
			v2.87h0.82v-6.74h-0.87l-2.18,3.47c-0.49,0.8-0.91,1.53-1.25,2.23l-0.02-0.01c0.06-0.9,0.08-1.78,0.08-2.85v-2.84H346.19z"/>
		<path class="st1" d="M353.09,146.28c0.1-0.18,0.15-0.32,0.22-0.49c0.24-0.64,0.43-1.63,0.89-2.1c0.24-0.24,0.55-0.33,0.97-0.33
			h0.64v2.92h0.87v-6.65c-0.44-0.09-1.04-0.14-1.61-0.14c-0.85,0-1.51,0.18-1.93,0.52c-0.38,0.31-0.62,0.78-0.62,1.37
			c0,0.92,0.66,1.52,1.49,1.66v0.03c-0.2,0.06-0.4,0.18-0.56,0.34c-0.55,0.55-0.73,1.49-1.02,2.26c-0.08,0.22-0.17,0.43-0.27,0.61
			H353.09z M355.81,142.69c-0.17,0.01-0.45,0.01-0.74,0.01c-0.95,0-1.67-0.47-1.67-1.28c0-0.93,0.73-1.26,1.59-1.26
			c0.39,0,0.67,0.05,0.82,0.08V142.69z"/>
		<path class="st1" d="M270.5,17.23c0.1-0.18,0.15-0.32,0.22-0.49c0.24-0.64,0.43-1.63,0.89-2.1c0.24-0.24,0.55-0.33,0.97-0.33h0.64
			v2.92h0.87v-6.65c-0.44-0.09-1.04-0.14-1.61-0.14c-0.85,0-1.51,0.18-1.93,0.52c-0.38,0.31-0.62,0.78-0.62,1.37
			c0,0.92,0.66,1.52,1.49,1.66v0.03c-0.2,0.06-0.4,0.18-0.56,0.34c-0.55,0.55-0.73,1.49-1.02,2.26c-0.08,0.22-0.17,0.43-0.27,0.61
			H270.5z M273.22,13.64c-0.17,0.01-0.45,0.01-0.74,0.01c-0.95,0-1.67-0.47-1.67-1.28c0-0.93,0.73-1.26,1.59-1.26
			c0.39,0,0.67,0.05,0.82,0.08V13.64z"/>
		<path class="st1" d="M275.61,10.49v6.74h0.87v-6.01h3.13v6.01h0.87v-6.74H275.61z"/>
		<path class="st1" d="M284.73,10.38c-1.8,0-3.13,1.4-3.13,3.54c0,2.04,1.25,3.42,3.03,3.42c1.72,0,3.13-1.23,3.13-3.55
			C287.76,11.79,286.57,10.38,284.73,10.38z M284.69,11.09c1.45,0,2.15,1.4,2.15,2.74c0,1.53-0.78,2.8-2.16,2.8
			c-1.37,0-2.15-1.29-2.15-2.73C282.53,12.42,283.25,11.09,284.69,11.09z"/>
		<path class="st1" d="M288.9,10.49v6.74h0.87v-3.16h3.26v3.16h0.88v-6.74h-0.88v2.82h-3.26v-2.82H288.9z"/>
		<path class="st1" d="M295.42,10.49v6.74h0.93l2.11-3.35c0.46-0.75,0.92-1.53,1.25-2.27l0.03,0.01c-0.07,0.85-0.08,1.65-0.08,2.74
			v2.87h0.82v-6.74h-0.87l-2.18,3.47c-0.49,0.8-0.91,1.53-1.25,2.23l-0.02-0.01c0.06-0.9,0.08-1.78,0.08-2.85v-2.84H295.42z"/>
		<path class="st1" d="M302.32,17.23c0.1-0.18,0.15-0.32,0.22-0.49c0.24-0.64,0.43-1.63,0.89-2.1c0.24-0.24,0.55-0.33,0.97-0.33
			h0.64v2.92h0.87v-6.65c-0.44-0.09-1.04-0.14-1.61-0.14c-0.85,0-1.51,0.18-1.93,0.52c-0.38,0.31-0.62,0.78-0.62,1.37
			c0,0.92,0.66,1.52,1.49,1.66v0.03c-0.2,0.06-0.4,0.18-0.56,0.34c-0.55,0.55-0.73,1.49-1.02,2.26c-0.08,0.22-0.17,0.43-0.27,0.61
			H302.32z M305.04,13.64c-0.17,0.01-0.45,0.01-0.74,0.01c-0.95,0-1.67-0.47-1.67-1.28c0-0.93,0.73-1.26,1.59-1.26
			c0.39,0,0.67,0.05,0.82,0.08V13.64z"/>
		<path class="st1" d="M188.16,50.51v6.74h0.93l2.11-3.35c0.46-0.75,0.92-1.53,1.25-2.27l0.03,0.01c-0.07,0.85-0.08,1.65-0.08,2.74
			v2.87h0.82v-6.74h-0.87l-2.18,3.47c-0.49,0.8-0.91,1.53-1.25,2.23l-0.02-0.01c0.06-0.9,0.08-1.78,0.08-2.85v-2.84H188.16z"/>
		<path class="st1" d="M194.75,50.51v6.74h0.87v-3.16h3.26v3.16h0.88v-6.74h-0.88v2.82h-3.26v-2.82H194.75z"/>
		<path class="st1" d="M202.11,50.51v1.71c0,1.16-0.09,2.06-0.32,2.84c-0.16,0.53-0.41,1.02-0.66,1.48l-0.51,0.02l0.06,2.31h0.68
			l0.06-1.62h4.25l0.06,1.62h0.68l0.06-2.31l-0.59-0.02v-6.03H202.11z M202.92,51.23h2.09v5.3h-2.98c0.2-0.36,0.41-0.81,0.55-1.28
			c0.24-0.76,0.34-1.67,0.34-2.75V51.23z"/>
		<path class="st1" d="M207.57,50.51v6.74h0.93l2.11-3.35c0.46-0.75,0.92-1.53,1.25-2.27l0.03,0.01c-0.07,0.85-0.08,1.65-0.08,2.74
			v2.87h0.82v-6.74h-0.87l-2.18,3.47c-0.49,0.8-0.91,1.53-1.25,2.23l-0.02-0.01c0.06-0.9,0.08-1.78,0.08-2.85v-2.84H207.57z"/>
		<path class="st1" d="M214.47,57.25c0.1-0.18,0.15-0.32,0.22-0.49c0.24-0.64,0.43-1.63,0.89-2.1c0.24-0.24,0.55-0.33,0.97-0.33
			h0.64v2.92h0.87V50.6c-0.44-0.09-1.04-0.14-1.61-0.14c-0.85,0-1.51,0.18-1.93,0.52c-0.38,0.31-0.62,0.78-0.62,1.37
			c0,0.92,0.66,1.52,1.49,1.66v0.03c-0.2,0.06-0.4,0.18-0.56,0.34c-0.55,0.55-0.73,1.49-1.02,2.26c-0.08,0.22-0.17,0.43-0.27,0.61
			H214.47z M217.19,53.66c-0.17,0.01-0.45,0.01-0.74,0.01c-0.95,0-1.67-0.47-1.67-1.28c0-0.93,0.73-1.26,1.59-1.26
			c0.39,0,0.67,0.05,0.82,0.08V53.66z"/>
		<path class="st1" d="M158.68,227.41c-0.35,0.17-0.89,0.28-1.42,0.28c-1.64,0-2.59-1.06-2.59-2.71c0-1.77,1.05-2.78,2.63-2.78
			c0.56,0,1.03,0.12,1.36,0.28l0.21-0.71c-0.23-0.12-0.76-0.3-1.6-0.3c-2.09,0-3.52,1.43-3.52,3.54c0,2.21,1.43,3.41,3.33,3.41
			c0.82,0,1.46-0.16,1.78-0.32L158.68,227.41z"/>
		<path class="st1" d="M159.96,221.58v6.74h6.96v-6.74h-0.87v6.01h-2.18v-6.01h-0.86v6.01h-2.19v-6.01H159.96z"/>
		<path class="st1" d="M171.91,226.2l0.72,2.12h0.93l-2.3-6.74h-1.05l-2.29,6.74h0.9l0.7-2.12H171.91z M169.7,225.52l0.66-1.95
			c0.13-0.41,0.24-0.82,0.34-1.22h0.02c0.1,0.39,0.2,0.79,0.35,1.23l0.66,1.94H169.7z"/>
		<path class="st1" d="M18.13,195.57v6.74h0.86v-3.09h0.28c1.14,0,1.57,0.61,1.88,1.5c0.18,0.53,0.37,1.13,0.61,1.59h0.94
			c-0.3-0.6-0.49-1.22-0.74-1.91c-0.35-0.91-0.78-1.59-1.89-1.74l2.55-3.09h-1.05l-2.31,2.99h-0.27v-2.99H18.13z"/>
		<path class="st1" d="M23.55,195.57v6.74h0.93l2.11-3.35c0.46-0.75,0.92-1.53,1.25-2.27l0.03,0.01c-0.07,0.85-0.08,1.65-0.08,2.74
			v2.87h0.82v-6.74h-0.87l-2.18,3.47c-0.49,0.8-0.91,1.53-1.25,2.23l-0.02-0.01c0.06-0.9,0.08-1.78,0.08-2.85v-2.84H23.55z"/>
		<path class="st1" d="M31.41,202.31h0.88v-6h2.06v-0.74h-4.99v0.74h2.05V202.31z"/>
		<path class="st1" d="M37.77,200.19l0.72,2.12h0.93l-2.3-6.74h-1.05l-2.29,6.74h0.9l0.7-2.12H37.77z M35.56,199.51l0.66-1.95
			c0.13-0.41,0.24-0.82,0.34-1.22h0.02c0.1,0.39,0.2,0.79,0.35,1.23l0.66,1.94H35.56z"/>
		<path class="st1" d="M40.41,195.57v6.74h0.93l2.11-3.35c0.46-0.75,0.92-1.53,1.25-2.27l0.03,0.01c-0.07,0.85-0.08,1.65-0.08,2.74
			v2.87h0.82v-6.74H44.6l-2.18,3.47c-0.49,0.8-0.91,1.53-1.25,2.23l-0.02-0.01c0.06-0.9,0.08-1.78,0.08-2.85v-2.84H40.41z
			 M41.66,194.16c0.05,0.66,0.44,1.07,1.26,1.07c0.85,0,1.25-0.41,1.3-1.07h-0.67c-0.04,0.33-0.15,0.62-0.61,0.62
			c-0.47,0-0.57-0.31-0.61-0.62H41.66z"/>
		<path class="st1" d="M401.22,95.8c0.86,0.57,2.59,1.19,4.56,1.19c4.21,0,6.4-2.46,6.4-5.27c0-2.46-1.75-4.08-3.91-4.51v-0.05
			c2.16-0.78,3.24-2.32,3.24-4.13c0-2.13-1.57-4.19-5.02-4.19c-1.89,0-3.67,0.68-4.59,1.35l0.62,1.73c0.76-0.54,2.11-1.16,3.51-1.16
			c2.19,0,3.08,1.24,3.08,2.65c0,2.08-2.19,2.97-3.91,2.97h-1.32v1.78h1.32c2.29,0,4.51,1.05,4.54,3.51c0.03,1.46-0.92,3.4-3.97,3.4
			c-1.65,0-3.21-0.68-3.89-1.11L401.22,95.8z"/>
		<path class="st1" d="M416.07,99.85c0.76-1.27,1.94-4.27,2.56-6.56l-2.65,0.27c-0.3,1.97-1.03,4.86-1.62,6.45L416.07,99.85z"/>
		<path class="st1" d="M431.95,96.69v-1.97h-7.88v-0.05l1.4-1.3c3.7-3.56,6.05-6.18,6.05-9.42c0-2.51-1.59-5.1-5.37-5.1
			c-2.02,0-3.75,0.76-4.97,1.78l0.76,1.67c0.81-0.68,2.13-1.49,3.73-1.49c2.62,0,3.48,1.65,3.48,3.43
			c-0.03,2.65-2.05,4.91-6.53,9.18l-1.86,1.81v1.46H431.95z"/>
		<path class="st1" d="M372.88,75.68V70.9h2.46v-1.86h-2.46V58.13h-2.56l-7.83,11.21v1.57h8.15v4.78H372.88z M364.88,69.04v-0.05
			l4.29-5.97c0.49-0.81,0.92-1.57,1.46-2.59h0.08c-0.05,0.92-0.08,1.84-0.08,2.75v5.86H364.88z"/>
		<path class="st1" d="M378.06,78.84c0.76-1.27,1.94-4.27,2.56-6.56l-2.65,0.27c-0.3,1.97-1.03,4.86-1.62,6.45L378.06,78.84z"/>
		<path class="st1" d="M388.59,57.83c-3.56,0-6.1,3.24-6.1,9.13c0.05,5.81,2.38,9.02,5.8,9.02c3.89,0,6.1-3.29,6.1-9.26
			C394.4,61.13,392.29,57.83,388.59,57.83z M388.46,59.67c2.46,0,3.56,2.84,3.56,7.16c0,4.48-1.16,7.32-3.59,7.32
			c-2.16,0-3.56-2.59-3.56-7.16C384.87,62.21,386.38,59.67,388.46,59.67z"/>
		<path class="st1" d="M327.87,103.69v-4.78h2.46v-1.86h-2.46V86.14h-2.56l-7.83,11.21v1.57h8.15v4.78H327.87z M319.88,97.05V97
			l4.29-5.97c0.49-0.81,0.92-1.57,1.46-2.59h0.08c-0.05,0.92-0.08,1.84-0.08,2.75v5.86H319.88z"/>
		<path class="st1" d="M333.05,106.85c0.76-1.27,1.94-4.27,2.56-6.56l-2.65,0.27c-0.3,1.97-1.03,4.86-1.62,6.45L333.05,106.85z"/>
		<path class="st1" d="M348.93,103.69v-1.97h-7.88v-0.05l1.4-1.3c3.7-3.56,6.05-6.18,6.05-9.42c0-2.51-1.59-5.1-5.37-5.1
			c-2.02,0-3.75,0.76-4.97,1.78l0.76,1.67c0.81-0.68,2.13-1.49,3.73-1.49c2.62,0,3.48,1.65,3.48,3.43
			c-0.03,2.65-2.05,4.91-6.53,9.18l-1.86,1.81v1.46H348.93z"/>
		<path class="st1" d="M280.75,62.13h-8.4l-1.13,8.43c0.65-0.08,1.43-0.19,2.43-0.19c3.51,0,5.02,1.62,5.05,3.89
			c0,2.35-1.92,3.81-4.16,3.81c-1.59,0-3.02-0.54-3.75-0.97l-0.59,1.81c0.84,0.54,2.46,1.08,4.37,1.08c3.81,0,6.53-2.57,6.53-5.99
			c0-2.21-1.13-3.73-2.51-4.51c-1.08-0.65-2.43-0.95-3.78-0.95c-0.65,0-1.03,0.05-1.43,0.11l0.67-4.51h6.7V62.13z"/>
		<path class="st1" d="M285.04,82.84c0.76-1.27,1.94-4.27,2.56-6.56l-2.65,0.27c-0.3,1.97-1.03,4.86-1.62,6.45L285.04,82.84z"/>
		<path class="st1" d="M299.3,79.68V74.9h2.46v-1.86h-2.46V62.13h-2.56l-7.83,11.21v1.57h8.15v4.78H299.3z M291.31,73.04v-0.05
			l4.29-5.97c0.49-0.81,0.92-1.57,1.46-2.59h0.08c-0.05,0.92-0.08,1.84-0.08,2.75v5.86H291.31z"/>
		<path class="st1" d="M226.64,121.97c0.57,0.03,1.32,0,2.19-0.14c1.89-0.22,3.75-1.03,5.1-2.35c1.73-1.67,3.02-4.37,3.02-8.24
			c0-4.48-2.21-7.4-5.8-7.4c-3.59,0-5.99,2.92-5.99,6.24c0,3,2.02,5.37,5.18,5.37c1.75,0,3.16-0.7,4.13-1.89h0.08
			c-0.32,2.08-1.16,3.62-2.32,4.67c-1,0.95-2.29,1.51-3.67,1.7c-0.81,0.08-1.4,0.14-1.92,0.08V121.97z M230.96,105.66
			c2.48,0,3.59,2.3,3.59,5.29c0,0.38-0.08,0.65-0.22,0.86c-0.62,1.05-1.86,1.84-3.46,1.84c-2.05,0-3.37-1.54-3.37-3.73
			C227.5,107.44,228.93,105.66,230.96,105.66z"/>
		<path class="st1" d="M240.03,124.86c0.76-1.27,1.94-4.27,2.56-6.56l-2.65,0.27c-0.3,1.97-1.03,4.86-1.62,6.45L240.03,124.86z"/>
		<path class="st1" d="M255.18,104.15h-8.4l-1.13,8.43c0.65-0.08,1.43-0.19,2.43-0.19c3.51,0,5.02,1.62,5.05,3.89
			c0,2.35-1.92,3.81-4.16,3.81c-1.59,0-3.02-0.54-3.75-0.97l-0.59,1.81c0.84,0.54,2.46,1.08,4.37,1.08c3.81,0,6.53-2.57,6.53-5.99
			c0-2.21-1.13-3.73-2.51-4.51c-1.08-0.65-2.43-0.95-3.78-0.95c-0.65,0-1.03,0.05-1.43,0.11l0.67-4.51h6.7V104.15z"/>
		<path class="st1" d="M152.4,157.72h2.29v-17.55h-2.02l-3.83,2.05l0.46,1.81l3.05-1.65h0.05V157.72z"/>
		<path class="st1" d="M162.48,157.99c0.57,0.03,1.32,0,2.19-0.13c1.89-0.22,3.75-1.03,5.1-2.35c1.73-1.67,3.02-4.37,3.02-8.24
			c0-4.48-2.21-7.4-5.8-7.4s-5.99,2.92-5.99,6.24c0,3,2.02,5.37,5.18,5.37c1.75,0,3.16-0.7,4.13-1.89h0.08
			c-0.32,2.08-1.16,3.62-2.32,4.67c-1,0.95-2.29,1.51-3.67,1.7c-0.81,0.08-1.4,0.13-1.92,0.08V157.99z M166.8,141.68
			c2.48,0,3.59,2.3,3.59,5.29c0,0.38-0.08,0.65-0.22,0.86c-0.62,1.05-1.86,1.84-3.46,1.84c-2.05,0-3.37-1.54-3.37-3.73
			C163.34,143.46,164.77,141.68,166.8,141.68z"/>
		<path class="st1" d="M175.87,160.88c0.76-1.27,1.94-4.27,2.56-6.56l-2.65,0.27c-0.3,1.97-1.03,4.86-1.62,6.45L175.87,160.88z"/>
		<path class="st1" d="M190.13,157.72v-4.78h2.46v-1.86h-2.46v-10.91h-2.56l-7.83,11.21v1.57h8.15v4.78H190.13z M182.13,151.07
			v-0.05l4.29-5.97c0.49-0.81,0.92-1.57,1.46-2.59h0.08c-0.05,0.92-0.08,1.84-0.08,2.75v5.86H182.13z"/>
		<path class="st1" d="M77.43,113.7v-1.97h-7.88v-0.05l1.4-1.3c3.7-3.56,6.05-6.18,6.05-9.42c0-2.51-1.59-5.1-5.37-5.1
			c-2.02,0-3.75,0.76-4.97,1.78l0.76,1.67c0.81-0.68,2.13-1.49,3.73-1.49c2.62,0,3.48,1.65,3.48,3.43
			c-0.03,2.65-2.05,4.91-6.53,9.18l-1.86,1.81v1.46H77.43z"/>
		<path class="st1" d="M80,112.81c0.86,0.57,2.59,1.19,4.56,1.19c4.21,0,6.4-2.46,6.4-5.27c0-2.46-1.75-4.08-3.91-4.51v-0.05
			c2.16-0.78,3.24-2.32,3.24-4.13c0-2.13-1.57-4.19-5.02-4.19c-1.89,0-3.67,0.68-4.59,1.35l0.62,1.73c0.76-0.54,2.11-1.16,3.51-1.16
			c2.19,0,3.08,1.24,3.08,2.65c0,2.08-2.19,2.97-3.91,2.97h-1.32v1.78h1.32c2.29,0,4.51,1.05,4.54,3.51c0.03,1.46-0.92,3.4-3.97,3.4
			c-1.65,0-3.21-0.68-3.89-1.11L80,112.81z"/>
		<path class="st1" d="M94.85,116.86c0.76-1.27,1.94-4.27,2.56-6.56l-2.65,0.27c-0.3,1.97-1.03,4.86-1.62,6.45L94.85,116.86z"/>
		<path class="st1" d="M104.68,113.7h2.29V96.15h-2.02l-3.83,2.05l0.46,1.81l3.05-1.65h0.05V113.7z"/>
	</g>
</g>
</svg>
