<?xml version="1.0" encoding="utf-8"?>
<!-- Generator: Adobe Illustrator 22.0.1, SVG Export Plug-In . SVG Version: 6.00 Build 0)  -->
<svg version="1.1" id="Слой_1" xmlns="http://www.w3.org/2000/svg" xmlns:xlink="http://www.w3.org/1999/xlink" x="0px" y="0px"
	 viewBox="0 0 841.9 595.3" style="enable-background:new 0 0 841.9 595.3;" xml:space="preserve">
<style type="text/css">
	.st0{fill:#000000;}
</style>
<g>
	<path class="st0" d="M35.8,214.9c0.7,1.2,1.9,2,3.8,2.5c1.8,0.5,4.8,0.7,8.9,0.7c0.2,0,0.4,0.2,0.4,0.7c0,0.5-0.1,0.7-0.4,0.7
		c-3.4,0-6,0-7.9-0.1l-10.7-0.1l-8.5,0.1c-1.6,0.1-3.7,0.1-6.4,0.1c-0.2,0-0.2-0.2-0.2-0.7c0-0.5,0.1-0.7,0.2-0.7
		c3,0,5.1-0.2,6.5-0.6c1.4-0.4,2.3-1.2,2.8-2.4c0.5-1.2,0.7-3,0.7-5.5v-56.9c0-2.5-0.2-4.3-0.7-5.4c-0.5-1.1-1.4-1.9-2.8-2.4
		c-1.4-0.4-3.5-0.7-6.5-0.7c-0.2,0-0.2-0.2-0.2-0.7c0-0.5,0.1-0.7,0.2-0.7l6.4,0.1c3.4,0.2,6.2,0.2,8.4,0.2c2,0,4.3-0.1,7-0.4
		c1,0,2.5-0.1,4.6-0.2c2.1-0.1,3.9-0.2,5.5-0.2c7.7,0,13.9,1.7,18.6,5.1c4.7,3.4,7,8.5,7,15.4c0,5.3-1.3,9.8-4,13.5
		c-2.7,3.7-6.1,6.4-10.2,8.2c-4.1,1.8-8.4,2.7-12.9,2.7c-2.4,0-4.3-0.2-5.9-0.6c-0.2,0-0.4-0.2-0.4-0.6c0-0.2,0.1-0.5,0.2-0.7
		c0.1-0.2,0.3-0.3,0.4-0.2c1.3,0.3,2.8,0.5,4.4,0.5c4.8,0,8.9-1.8,12.3-5.3c3.4-3.5,5-8.6,5-15.3c0-6.5-1.6-11.5-4.9-15.2
		c-3.3-3.6-7.6-5.5-13-5.5c-2.5,0-4.3,0.2-5.5,0.6c-1.2,0.4-2,1.1-2.5,2.3c-0.5,1.2-0.7,3.1-0.7,5.6v56.2
		C34.9,211.8,35.2,213.7,35.8,214.9z"/>
	<path class="st0" d="M100.8,215.8c-5.9-3.6-10.5-8.4-13.8-14.5c-3.2-6.1-4.9-12.8-4.9-20c0-8.4,2.1-15.7,6.4-21.7
		c4.3-6,9.7-10.6,16.4-13.6c6.7-3,13.5-4.6,20.5-4.6c7.8,0,14.6,1.8,20.5,5.5c5.9,3.6,10.4,8.5,13.6,14.5c3.2,6,4.7,12.3,4.7,19.1
		c0,7.5-2,14.3-5.9,20.5c-3.9,6.2-9.2,11.2-15.8,14.8c-6.6,3.6-13.8,5.4-21.5,5.4C113.6,221.1,106.8,219.3,100.8,215.8z
		 M139.6,214.4c4.2-2.7,7.5-6.7,9.9-11.9c2.4-5.2,3.6-11.4,3.6-18.6c0-7.6-1.3-14.4-4-20.4c-2.7-6-6.5-10.7-11.4-14
		c-5-3.4-10.7-5-17.3-5c-8.5,0-15.2,2.9-19.9,8.7c-4.8,5.8-7.1,13.8-7.1,23.9c0,7.8,1.4,14.8,4.1,21.2c2.7,6.3,6.5,11.3,11.4,14.9
		c4.9,3.6,10.4,5.4,16.7,5.4C130.8,218.4,135.5,217.1,139.6,214.4z"/>
	<path class="st0" d="M232.1,142.5c4,0.7,7.2,1.7,9.6,2.9c0.7,0.3,1.1,0.7,1.3,1c0.2,0.4,0.4,1,0.6,1.9l1.4,14.9
		c0,0.2-0.2,0.4-0.6,0.4c-0.4,0-0.7-0.1-0.7-0.3c-2.1-6.4-5.6-11.2-10.5-14.3c-4.8-3.2-10.7-4.7-17.5-4.7c-6,0-11.2,1.4-15.6,4.1
		c-4.4,2.7-7.8,6.6-10.1,11.6c-2.3,5-3.5,10.8-3.5,17.3c0,7.6,1.5,14.6,4.4,21s6.9,11.5,12,15.2c5,3.7,10.6,5.6,16.5,5.6
		c11.8,0,20.3-6.8,25.3-20.3c0-0.2,0.2-0.4,0.5-0.4c0.2,0,0.5,0,0.7,0.1c0.2,0.1,0.3,0.2,0.3,0.4l-1.7,14.9c-0.2,1-0.3,1.6-0.6,1.9
		c-0.2,0.3-0.7,0.6-1.4,0.9c-7.5,3-15.3,4.4-23.1,4.4c-9.9,0-18.2-2-24.8-6c-6.6-4-11.5-9-14.6-15.2c-3.1-6.1-4.7-12.6-4.7-19.3
		c0-7.6,2.1-14.4,6.3-20.4c4.2-5.9,9.8-10.6,16.7-13.9c6.9-3.3,14.3-5,22.2-5C224.2,141.4,228.1,141.8,232.1,142.5z"/>
	<path class="st0" d="M313.2,142.5c4,0.7,7.2,1.7,9.6,2.9c0.7,0.3,1.1,0.7,1.3,1c0.2,0.4,0.4,1,0.6,1.9l1.4,14.9
		c0,0.2-0.2,0.4-0.6,0.4c-0.4,0-0.7-0.1-0.7-0.3c-2.1-6.4-5.6-11.2-10.5-14.3c-4.8-3.2-10.7-4.7-17.5-4.7c-6,0-11.2,1.4-15.6,4.1
		c-4.4,2.7-7.8,6.6-10.1,11.6c-2.3,5-3.5,10.8-3.5,17.3c0,7.6,1.5,14.6,4.4,21s6.9,11.5,12,15.2c5,3.7,10.6,5.6,16.5,5.6
		c11.8,0,20.3-6.8,25.3-20.3c0-0.2,0.2-0.4,0.5-0.4c0.2,0,0.5,0,0.7,0.1c0.2,0.1,0.3,0.2,0.3,0.4l-1.7,14.9c-0.2,1-0.3,1.6-0.6,1.9
		c-0.2,0.3-0.7,0.6-1.4,0.9c-7.5,3-15.3,4.4-23.1,4.4c-9.9,0-18.2-2-24.8-6c-6.6-4-11.5-9-14.6-15.2c-3.1-6.1-4.7-12.6-4.7-19.3
		c0-7.6,2.1-14.4,6.3-20.4c4.2-5.9,9.8-10.6,16.7-13.9c6.9-3.3,14.3-5,22.2-5C305.3,141.4,309.2,141.8,313.2,142.5z"/>
	<path class="st0" d="M419.3,218.9c0,0.5-0.1,0.7-0.2,0.7c-2.7,0-4.8,0-6.4-0.1l-8.9-0.1l-9.6,0.1c-1.5,0.1-3.4,0.1-5.9,0.1
		c-0.2,0-0.4-0.2-0.4-0.7c0-0.5,0.1-0.7,0.4-0.7c3.1,0,5.4-0.2,6.9-0.6c1.5-0.4,2.5-1.2,3-2.4c0.5-1.2,0.7-3,0.7-5.5v-49.3
		l-43.3,46.1v3.2c0,2.5,0.2,4.3,0.7,5.5c0.5,1.2,1.5,2,3,2.4c1.5,0.4,3.8,0.6,6.9,0.6c0.2,0,0.2,0.2,0.2,0.7c0,0.5-0.1,0.7-0.2,0.7
		c-2.6,0-4.7,0-6.3-0.1l-9.5-0.1l-8.7,0.1c-1.6,0.1-3.7,0.1-6.4,0.1c-0.2,0-0.2-0.2-0.2-0.7c0-0.5,0.1-0.7,0.2-0.7
		c3,0,5.3-0.2,6.7-0.6c1.4-0.4,2.4-1.2,3-2.4c0.5-1.2,0.8-3,0.8-5.5v-56.9c0-2.5-0.2-4.3-0.7-5.4c-0.5-1.1-1.4-1.9-2.8-2.4
		c-1.4-0.4-3.6-0.7-6.6-0.7c-0.2,0-0.4-0.2-0.4-0.7c0-0.5,0.1-0.7,0.4-0.7l6.3,0.1c3.4,0.2,6.3,0.2,8.6,0.2c2.6,0,5.8-0.1,9.6-0.2
		l6.1-0.1c0.2,0,0.2,0.2,0.2,0.7c0,0.5-0.1,0.7-0.2,0.7c-3,0-5.3,0.2-6.8,0.7c-1.5,0.5-2.5,1.3-3,2.5c-0.5,1.2-0.8,3-0.8,5.5v49.2
		l43.3-46.2v-3c0-2.5-0.3-4.3-0.8-5.5c-0.5-1.2-1.5-2-3-2.5c-1.4-0.5-3.7-0.7-6.8-0.7c-0.2,0-0.4-0.2-0.4-0.7c0-0.5,0.1-0.7,0.4-0.7
		l5.9,0.1c3.8,0.2,7,0.2,9.6,0.2c2.3,0,5.2-0.1,8.9-0.2l6.4-0.1c0.2,0,0.2,0.2,0.2,0.7c0,0.5-0.1,0.7-0.2,0.7c-3,0-5.2,0.2-6.6,0.7
		c-1.4,0.5-2.4,1.3-2.9,2.4c-0.5,1.1-0.8,3-0.8,5.4v56.9c0,2.5,0.3,4.3,0.8,5.5c0.5,1.2,1.5,2,2.9,2.4c1.4,0.4,3.6,0.6,6.6,0.6
		C419.3,218.2,419.3,218.4,419.3,218.9z"/>
	<path class="st0" d="M510.2,218.9c0,0.5-0.1,0.7-0.2,0.7c-2.7,0-4.8,0-6.4-0.1l-8.9-0.1l-9.6,0.1c-1.5,0.1-3.4,0.1-5.9,0.1
		c-0.2,0-0.4-0.2-0.4-0.7c0-0.5,0.1-0.7,0.4-0.7c3.1,0,5.4-0.2,6.9-0.6c1.5-0.4,2.5-1.2,3-2.4c0.5-1.2,0.7-3,0.7-5.5v-49.3
		l-43.3,46.1v3.2c0,2.5,0.2,4.3,0.7,5.5c0.5,1.2,1.5,2,3,2.4c1.5,0.4,3.8,0.6,6.9,0.6c0.2,0,0.2,0.2,0.2,0.7c0,0.5-0.1,0.7-0.2,0.7
		c-2.6,0-4.7,0-6.3-0.1l-9.5-0.1l-8.7,0.1c-1.6,0.1-3.7,0.1-6.4,0.1c-0.2,0-0.2-0.2-0.2-0.7c0-0.5,0.1-0.7,0.2-0.7
		c3,0,5.3-0.2,6.7-0.6c1.4-0.4,2.4-1.2,3-2.4c0.5-1.2,0.8-3,0.8-5.5v-56.9c0-2.5-0.2-4.3-0.7-5.4c-0.5-1.1-1.4-1.9-2.8-2.4
		c-1.4-0.4-3.6-0.7-6.6-0.7c-0.2,0-0.4-0.2-0.4-0.7c0-0.5,0.1-0.7,0.4-0.7l6.3,0.1c3.4,0.2,6.3,0.2,8.6,0.2c2.6,0,5.8-0.1,9.6-0.2
		l6.1-0.1c0.2,0,0.2,0.2,0.2,0.7c0,0.5-0.1,0.7-0.2,0.7c-3,0-5.3,0.2-6.8,0.7c-1.5,0.5-2.5,1.3-3,2.5c-0.5,1.2-0.8,3-0.8,5.5v49.2
		l43.3-46.2v-3c0-2.5-0.3-4.3-0.8-5.5c-0.5-1.2-1.5-2-3-2.5c-1.4-0.5-3.7-0.7-6.8-0.7c-0.2,0-0.4-0.2-0.4-0.7c0-0.5,0.1-0.7,0.4-0.7
		l5.9,0.1c3.8,0.2,7,0.2,9.6,0.2c2.3,0,5.2-0.1,8.9-0.2l6.4-0.1c0.2,0,0.2,0.2,0.2,0.7c0,0.5-0.1,0.7-0.2,0.7c-3,0-5.2,0.2-6.6,0.7
		c-1.4,0.5-2.4,1.3-2.9,2.4c-0.5,1.1-0.8,3-0.8,5.4v56.9c0,2.5,0.3,4.3,0.8,5.5c0.5,1.2,1.5,2,2.9,2.4c1.4,0.4,3.6,0.6,6.6,0.6
		C510.2,218.2,510.2,218.4,510.2,218.9z M459.9,135.5c-2.7-1.1-4.8-2.5-6.5-4.2c-1.6-1.7-2.5-3.6-2.5-5.5c0-1.2,0.3-2.2,1-3
		c0.7-0.7,1.7-1.1,3-1.1c1.6,0,2.8,0.5,3.4,1.5c0.7,1,1.3,2.5,2,4.7c0.6,2.2,1.5,4,2.6,5.4c1.2,1.4,2.9,2.1,5.1,2.1
		c3.9,0,6.7-2.5,8.2-7.5c0.7-2.1,1.3-3.7,2-4.7c0.7-1,1.8-1.5,3.3-1.5c1.3,0,2.3,0.4,3,1.1c0.7,0.7,1,1.7,1,3c0,2-0.8,3.8-2.5,5.6
		c-1.6,1.8-3.8,3.2-6.5,4.2c-2.7,1-5.5,1.5-8.5,1.5S462.5,136.6,459.9,135.5z"/>
	<path class="st0" d="M576,142.5c4,0.7,7.2,1.7,9.6,2.9c0.7,0.3,1.1,0.7,1.3,1s0.4,1,0.6,1.9l1.4,14.9c0,0.2-0.2,0.4-0.6,0.4
		c-0.4,0-0.7-0.1-0.7-0.3c-2.1-6.4-5.6-11.2-10.5-14.3c-4.8-3.2-10.7-4.7-17.5-4.7c-6,0-11.2,1.4-15.6,4.1
		c-4.4,2.7-7.8,6.6-10.1,11.6c-2.3,5-3.5,10.8-3.5,17.3c0,7.6,1.5,14.6,4.4,21s7,11.5,12,15.2c5,3.7,10.6,5.6,16.5,5.6
		c11.8,0,20.3-6.8,25.3-20.3c0-0.2,0.2-0.4,0.5-0.4c0.2,0,0.5,0,0.7,0.1c0.2,0.1,0.3,0.2,0.3,0.4l-1.7,14.9c-0.2,1-0.4,1.6-0.6,1.9
		c-0.2,0.3-0.7,0.6-1.4,0.9c-7.5,3-15.3,4.4-23.1,4.4c-9.9,0-18.2-2-24.8-6c-6.6-4-11.5-9-14.6-15.2c-3.1-6.1-4.7-12.6-4.7-19.3
		c0-7.6,2.1-14.4,6.3-20.4c4.2-5.9,9.8-10.6,16.7-13.9c6.9-3.3,14.3-5,22.2-5C568.1,141.4,572,141.8,576,142.5z"/>
	<path class="st0" d="M675.2,218.9c0,0.5-0.1,0.7-0.2,0.7h-16.6c-1.1,0-2.1-0.3-3-0.9c-0.8-0.6-2.3-2.3-4.3-5
		c-2.1-2.7-5.6-7.6-10.6-14.8l-1.5-2.1c-3.5-5-6.1-8.5-7.7-10.5c-1.6-2-3.3-3.4-5.1-4.2c-1.8-0.8-4.1-1.2-6.9-1.2h-1.1v28.8
		c0,2.5,0.2,4.3,0.7,5.5c0.5,1.2,1.5,2,2.9,2.4c1.4,0.4,3.7,0.6,6.7,0.6c0.2,0,0.2,0.2,0.2,0.7c0,0.5-0.1,0.7-0.2,0.7
		c-2.7,0-4.8,0-6.4-0.1l-9.2-0.1l-8.6,0.1c-1.5,0.1-3.6,0.1-6.3,0.1c-0.2,0-0.2-0.2-0.2-0.7c0-0.5,0.1-0.7,0.2-0.7
		c3,0,5.2-0.2,6.6-0.6c1.4-0.4,2.4-1.2,2.9-2.4c0.5-1.2,0.8-3,0.8-5.5v-56.9c0-2.5-0.2-4.3-0.7-5.4c-0.5-1.1-1.4-1.9-2.8-2.4
		c-1.4-0.4-3.6-0.7-6.6-0.7c-0.2,0-0.2-0.2-0.2-0.7c0-0.5,0.1-0.7,0.2-0.7l6.3,0.1c3.4,0.2,6.3,0.2,8.5,0.2c2.5,0,5.6-0.1,9.3-0.2
		l6.3-0.1c0.2,0,0.2,0.2,0.2,0.7c0,0.5-0.1,0.7-0.2,0.7c-3,0-5.1,0.2-6.6,0.7c-1.4,0.5-2.4,1.3-3,2.5c-0.5,1.2-0.8,3-0.8,5.5v26
		c4.4-0.2,7.2-0.2,8.2-0.2h1.6l14.3-19.8c3.5-4.8,5.3-8.5,5.3-10.9s-1.9-3.7-5.8-3.7c-0.2,0-0.2-0.2-0.2-0.7c0-0.5,0.1-0.7,0.2-0.7
		l5.4,0.1c3.3,0.2,6.3,0.2,9,0.2c3,0,6-0.1,9.1-0.2l4.7-0.1c0.2,0,0.4,0.2,0.4,0.7c0,0.5-0.1,0.7-0.4,0.7c-4,0-7.9,1.1-11.6,3.4
		c-3.7,2.3-7.3,5.7-10.9,10.3l-16.5,20.9c2.5,0.2,4.5,0.9,6.2,2c1.7,1.1,3.3,2.7,5,4.7c1.6,2,4.3,5.6,8.1,10.9
		c3.9,5.6,7.1,9.8,9.3,12.5c2.3,2.8,4.7,5,7.1,6.6s5.2,2.4,8.2,2.5C675.1,218.2,675.2,218.4,675.2,218.9z"/>
	<path class="st0" d="M762.1,218.9c0,0.5-0.1,0.7-0.2,0.7c-2.7,0-4.8,0-6.4-0.1l-8.9-0.1l-9.6,0.1c-1.5,0.1-3.4,0.1-5.9,0.1
		c-0.2,0-0.4-0.2-0.4-0.7c0-0.5,0.1-0.7,0.4-0.7c3.1,0,5.4-0.2,6.9-0.6c1.5-0.4,2.5-1.2,3-2.4c0.5-1.2,0.7-3,0.7-5.5v-49.3
		l-43.3,46.1v3.2c0,2.5,0.2,4.3,0.7,5.5c0.5,1.2,1.5,2,3,2.4c1.5,0.4,3.8,0.6,6.9,0.6c0.2,0,0.2,0.2,0.2,0.7c0,0.5-0.1,0.7-0.2,0.7
		c-2.6,0-4.7,0-6.3-0.1l-9.5-0.1l-8.7,0.1c-1.6,0.1-3.7,0.1-6.4,0.1c-0.2,0-0.2-0.2-0.2-0.7c0-0.5,0.1-0.7,0.2-0.7
		c3,0,5.3-0.2,6.7-0.6c1.4-0.4,2.4-1.2,3-2.4c0.5-1.2,0.8-3,0.8-5.5v-56.9c0-2.5-0.2-4.3-0.7-5.4c-0.5-1.1-1.4-1.9-2.8-2.4
		c-1.4-0.4-3.6-0.7-6.6-0.7c-0.2,0-0.4-0.2-0.4-0.7c0-0.5,0.1-0.7,0.4-0.7l6.3,0.1c3.4,0.2,6.3,0.2,8.6,0.2c2.6,0,5.8-0.1,9.6-0.2
		l6.1-0.1c0.2,0,0.2,0.2,0.2,0.7c0,0.5-0.1,0.7-0.2,0.7c-3,0-5.3,0.2-6.8,0.7c-1.5,0.5-2.5,1.3-3,2.5c-0.5,1.2-0.8,3-0.8,5.5v49.2
		l43.3-46.2v-3c0-2.5-0.3-4.3-0.8-5.5c-0.5-1.2-1.5-2-3-2.5c-1.4-0.5-3.7-0.7-6.8-0.7c-0.2,0-0.4-0.2-0.4-0.7c0-0.5,0.1-0.7,0.4-0.7
		l5.9,0.1c3.8,0.2,7,0.2,9.6,0.2c2.3,0,5.2-0.1,8.9-0.2l6.4-0.1c0.2,0,0.2,0.2,0.2,0.7c0,0.5-0.1,0.7-0.2,0.7c-3,0-5.2,0.2-6.6,0.7
		c-1.4,0.5-2.4,1.3-2.9,2.4c-0.5,1.1-0.8,3-0.8,5.4v56.9c0,2.5,0.3,4.3,0.8,5.5c0.5,1.2,1.5,2,2.9,2.4c1.4,0.4,3.6,0.6,6.6,0.6
		C762.1,218.2,762.1,218.4,762.1,218.9z"/>
	<path class="st0" d="M824.8,200.7c0.2,0,0.5,0.1,0.7,0.2c0.2,0.1,0.3,0.2,0.3,0.3c-0.8,5.9-1.2,11.4-1.2,16.6
		c0,0.7-0.1,1.1-0.4,1.4c-0.2,0.3-0.7,0.4-1.5,0.4h-52.4c-0.2,0-0.4-0.2-0.4-0.7c0-0.5,0.1-0.7,0.4-0.7c3,0,5.1-0.2,6.4-0.6
		c1.3-0.4,2.2-1.2,2.7-2.4c0.5-1.2,0.7-3,0.7-5.5v-56.9c0-2.5-0.2-4.3-0.7-5.4c-0.5-1.1-1.4-1.9-2.8-2.4c-1.4-0.4-3.5-0.7-6.3-0.7
		c-0.2,0-0.4-0.2-0.4-0.7c0-0.5,0.1-0.7,0.4-0.7h50.2c0.8,0,1.2,0.4,1.2,1.1l0.2,15.5c0,0.2-0.2,0.4-0.7,0.4c-0.5,0-0.7-0.1-0.8-0.3
		c-0.6-4.5-2.2-7.9-4.8-10.3c-2.6-2.3-6.1-3.5-10.3-3.5H799c-3.6,0-6,0.5-7.3,1.5c-1.2,1-1.8,3-1.8,6v25h13.5c4.2,0,7.3-0.7,9.2-2.2
		c2-1.4,3-3.7,3-6.7c0-0.2,0.2-0.2,0.7-0.2c0.4,0,0.7,0.1,0.7,0.2l-0.1,10.3l0.1,5.5c0.2,2.6,0.2,4.7,0.2,6.1c0,0.2-0.2,0.2-0.7,0.2
		s-0.7-0.1-0.7-0.2c0-3.5-1-6.1-3-7.8c-2-1.7-5.2-2.5-9.7-2.5h-13.2v28.2c0,3,0.6,5,1.7,6c1.1,1.1,3.3,1.6,6.7,1.6h8
		c4.7,0,8.5-1.4,11.6-4.1c3.1-2.7,5.2-6.7,6.3-11.7C824.3,200.8,824.4,200.7,824.8,200.7z"/>
</g>
<g>
	<path class="st0" d="M28.9,287.5l29.8-40.6h2.8v45.4h-3.3v-39.9l-29.4,39.9h-3.1v-45.4h3.3V287.5z"/>
	<path class="st0" d="M148.7,246.9v45.4h-3.3v-21.8h-28.7v21.8h-3.3v-45.4h3.3v20.7h28.7v-20.7H148.7z"/>
	<path class="st0" d="M233.6,280.6c0,1.7-0.3,3.2-1,4.6c-0.6,1.4-1.5,2.7-2.6,3.7c-1.1,1.1-2.4,1.9-3.9,2.5
		c-1.5,0.6-3.1,0.9-4.7,0.9h-21.3v-45.4h21.2c1.6,0,3,0.3,4.3,1c1.3,0.7,2.4,1.6,3.3,2.7c0.9,1.1,1.6,2.3,2.1,3.7
		c0.5,1.4,0.7,2.8,0.7,4.2c0,2.3-0.6,4.4-1.7,6.3c-1.2,1.9-2.8,3.3-4.8,4.2c2.6,0.8,4.7,2.2,6.2,4.3
		C232.8,275.5,233.6,277.9,233.6,280.6z M203.3,249.9V268H220c1.2,0,2.4-0.3,3.4-0.8c1-0.5,1.9-1.2,2.7-2c0.7-0.8,1.3-1.8,1.8-2.9
		c0.4-1.1,0.6-2.2,0.6-3.4c0-1.2-0.2-2.4-0.6-3.5c-0.4-1.1-1-2-1.7-2.9s-1.5-1.5-2.5-2c-1-0.5-2.1-0.7-3.3-0.7H203.3z M230.3,280.1
		c0-1.2-0.2-2.4-0.6-3.5c-0.4-1.1-1-2.1-1.8-3c-0.8-0.9-1.7-1.6-2.7-2.1c-1-0.5-2.2-0.8-3.4-0.8h-18.4v18.6h18
		c1.3,0,2.5-0.3,3.6-0.8c1.1-0.5,2-1.2,2.8-2.1c0.8-0.9,1.4-1.9,1.9-3C230.1,282.5,230.3,281.3,230.3,280.1z"/>
	<path class="st0" d="M313.4,289.4v2.9h-30.3v-45.4h29.7v2.9h-26.4v17.9h23.1v2.8h-23.1v18.9H313.4z"/>
	<path class="st0" d="M358.1,269.3c0-2.7,0.5-5.5,1.4-8.2c1-2.7,2.4-5.1,4.2-7.3c1.8-2.1,4.1-3.9,6.8-5.2c2.7-1.3,5.7-2,9.1-2
		c4.1,0,7.5,0.9,10.4,2.8c2.9,1.9,5,4.2,6.4,7.1l-2.7,1.5c-0.8-1.6-1.8-2.9-2.8-4c-1.1-1.1-2.3-1.9-3.5-2.6
		c-1.3-0.7-2.6-1.1-3.9-1.4c-1.4-0.3-2.7-0.4-4-0.4c-2.9,0-5.5,0.6-7.7,1.8c-2.2,1.2-4.1,2.7-5.6,4.6c-1.5,1.9-2.7,4-3.5,6.4
		c-0.8,2.4-1.2,4.7-1.2,7.1c0,2.7,0.5,5.2,1.4,7.7c0.9,2.4,2.2,4.6,3.8,6.4c1.6,1.9,3.5,3.3,5.8,4.4c2.2,1.1,4.6,1.7,7.2,1.7
		c1.4,0,2.8-0.2,4.2-0.5c1.5-0.3,2.8-0.9,4.2-1.6c1.3-0.7,2.6-1.7,3.7-2.8c1.2-1.1,2.1-2.5,2.9-4l2.8,1.3c-0.8,1.7-1.8,3.2-3.1,4.5
		c-1.3,1.3-2.8,2.4-4.4,3.3c-1.6,0.9-3.3,1.6-5.2,2c-1.8,0.4-3.6,0.7-5.3,0.7c-3.1,0-6-0.7-8.5-2c-2.6-1.4-4.8-3.1-6.7-5.3
		c-1.9-2.2-3.3-4.7-4.4-7.5C358.6,275.1,358.1,272.2,358.1,269.3z"/>
	<path class="st0" d="M476.7,249.9H460v42.5h-3.3v-42.5h-16.6v-2.9h36.6V249.9z"/>
	<path class="st0" d="M527,287.5l29.8-40.6h2.8v45.4h-3.3v-39.9l-29.4,39.9h-3.1v-45.4h3.3V287.5z"/>
	<path class="st0" d="M646.9,292.3h-35.2v-45.4h3.3v42.5h25.7v-42.5h3.3v42.5h6v14.8h-3V292.3z"/>
	<path class="st0" d="M700.6,287.5l29.8-40.6h2.8v45.4H730v-39.9l-29.4,39.9h-3.1v-45.4h3.3V287.5z"/>
	<path class="st0" d="M788.5,287.5l29.8-40.6h2.8v45.4h-3.3v-39.9l-29.4,39.9h-3.1v-45.4h3.3V287.5z"/>
</g>
<g>
	<path class="st0" d="M95.7,389c0,0.5-0.1,0.7-0.2,0.7H77.6c-2,0-5.7-3.5-11.1-10.5c-5.5-7-12-16.6-19.5-28.8
		c-1.9,0.4-3.7,0.6-5.4,0.6c-1.6,0-3.6-0.1-6-0.2v29c0,2.5,0.2,4.3,0.7,5.5c0.5,1.2,1.4,2,2.8,2.4c1.4,0.4,3.5,0.6,6.5,0.6
		c0.2,0,0.4,0.2,0.4,0.7s-0.1,0.7-0.4,0.7c-2.5,0-4.6,0-6-0.1l-8.9-0.1l-8.6,0.1c-1.6,0.1-3.6,0.1-6.3,0.1c-0.2,0-0.4-0.2-0.4-0.7
		s0.1-0.7,0.4-0.7c3,0,5.1-0.2,6.5-0.6c1.4-0.4,2.3-1.2,2.8-2.4c0.5-1.2,0.7-3,0.7-5.5v-56.9c0-2.5-0.2-4.3-0.7-5.4
		c-0.5-1.1-1.4-1.9-2.8-2.4c-1.4-0.4-3.5-0.7-6.5-0.7c-0.2,0-0.2-0.2-0.2-0.7s0.1-0.7,0.2-0.7L22,313c3.6,0.2,6.5,0.2,8.6,0.2
		c1.5,0,2.9,0,4.2-0.1c1.3-0.1,2.5-0.2,3.4-0.2c2.7-0.2,5.2-0.4,7.6-0.4c7,0,12.3,1.4,16.1,4.1c3.8,2.7,5.7,6.5,5.7,11.4
		c0,3.9-1.1,7.5-3.4,10.9c-2.3,3.4-5.3,6.2-9,8.4c6.9,10.4,12.6,18.6,17.3,24.4c4.6,5.9,8.8,10.1,12.4,12.7
		c3.6,2.6,7.1,3.9,10.6,3.9C95.6,388.3,95.7,388.5,95.7,389z M42.8,348c5.2,0,9-1.2,11.3-3.5c2.3-2.3,3.4-6.4,3.4-12.1
		c0-6.5-1.2-11.1-3.7-13.8s-5.9-4.1-10.2-4.1c-2.1,0-3.8,0.2-4.9,0.6c-1.1,0.4-1.9,1.2-2.4,2.4c-0.5,1.2-0.7,3-0.7,5.5v24.5
		C38.6,347.9,41.1,348,42.8,348z"/>
	<path class="st0" d="M208.8,317.6c-1.8-2.2-4.6-3.3-8.2-3.3c-0.2,0-0.4-0.2-0.4-0.7s0.1-0.7,0.4-0.7l5.5,0.1c3,0.2,5.3,0.2,7,0.2
		c1.5,0,3.6-0.1,6.4-0.2l5.3-0.1c0.2,0,0.2,0.2,0.2,0.7s-0.1,0.7-0.2,0.7c-6.6,0-10,4.3-10,12.8v34.7c0,9.2-2.7,16.4-8.1,21.6
		c-5.4,5.2-12.5,7.9-21.5,7.9c-6.1,0-11.4-1.2-16-3.5c-4.6-2.3-8.2-5.7-10.7-10.1c-2.5-4.4-3.8-9.5-3.8-15.4v-39.5
		c0-2.5-0.2-4.3-0.7-5.4c-0.5-1.1-1.4-1.9-2.8-2.4c-1.4-0.4-3.5-0.7-6.5-0.7c-0.2,0-0.4-0.2-0.4-0.7s0.1-0.7,0.4-0.7l6.1,0.1
		c3.6,0.2,6.5,0.2,8.6,0.2c2.3,0,5.2-0.1,8.9-0.2l5.9-0.1c0.2,0,0.4,0.2,0.4,0.7s-0.1,0.7-0.4,0.7c-2.9,0-5,0.2-6.3,0.7
		s-2.3,1.3-2.8,2.5c-0.5,1.2-0.7,3-0.7,5.5V358c0,9.7,2.1,17,6.3,22c4.2,5,10.1,7.4,17.8,7.4c7.1,0,12.7-2.2,16.8-6.7
		c4.1-4.5,6.1-10.7,6.1-18.8v-34.8C211.5,322.9,210.6,319.8,208.8,317.6z"/>
	<path class="st0" d="M301,334.8c1.6,2.3,3.4,4.3,5.7,6c2.2,1.7,5.3,3.7,9.2,6.1c4.1,2.5,7.4,4.7,9.8,6.6c2.4,1.8,4.5,4.1,6.2,6.8
		c1.7,2.7,2.6,5.9,2.6,9.6c0,4-1,7.6-3.1,10.9c-2.1,3.2-5.1,5.8-9,7.6c-3.9,1.8-8.4,2.8-13.6,2.8c-3.3,0-6.5-0.4-9.7-1.2
		c-3.2-0.8-6-1.9-8.4-3.4c-0.4-0.2-0.7-0.5-0.9-0.9c-0.2-0.3-0.2-0.8-0.2-1.5l-1.2-17.6c-0.1-0.3,0.1-0.5,0.6-0.6
		c0.4-0.1,0.7,0,0.8,0.4c2,6.2,4.7,11.5,8.2,15.9c3.5,4.3,8.1,6.5,13.8,6.5c3.9,0,7.1-1,9.7-3.1c2.6-2.1,3.9-5.5,3.9-10.3
		c0-3.6-0.8-6.8-2.5-9.5c-1.6-2.7-3.6-5-6-6.8s-5.5-4-9.4-6.3c-3.9-2.5-6.9-4.6-9.2-6.3c-2.3-1.8-4.2-3.9-5.7-6.5
		c-1.6-2.6-2.3-5.6-2.3-9c0-4.2,1.1-7.7,3.4-10.7c2.3-3,5.2-5.1,8.9-6.6c3.6-1.4,7.5-2.2,11.5-2.2c5.5,0,10.5,0.9,14.9,2.8
		c1.2,0.5,1.8,1.2,1.8,2.2l0.6,15.4c0,0.3-0.2,0.5-0.6,0.6c-0.4,0.1-0.7,0-0.7-0.4c-0.9-4.4-2.8-8.6-5.8-12.6c-3-4-7.1-6-12.5-6
		c-4.1,0-7.3,1.2-9.5,3.7c-2.3,2.5-3.4,5.6-3.4,9.3C298.6,329.7,299.4,332.5,301,334.8z"/>
	<path class="st0" d="M415.8,334.8c1.6,2.3,3.4,4.3,5.7,6c2.2,1.7,5.3,3.7,9.2,6.1c4.1,2.5,7.4,4.7,9.8,6.6c2.4,1.8,4.5,4.1,6.2,6.8
		c1.7,2.7,2.6,5.9,2.6,9.6c0,4-1,7.6-3.1,10.9c-2.1,3.2-5.1,5.8-9,7.6c-3.9,1.8-8.4,2.8-13.6,2.8c-3.3,0-6.5-0.4-9.7-1.2
		c-3.2-0.8-6-1.9-8.4-3.4c-0.4-0.2-0.7-0.5-0.9-0.9c-0.2-0.3-0.2-0.8-0.2-1.5l-1.2-17.6c-0.1-0.3,0.1-0.5,0.6-0.6
		c0.4-0.1,0.7,0,0.8,0.4c2,6.2,4.7,11.5,8.2,15.9c3.5,4.3,8.1,6.5,13.8,6.5c3.9,0,7.1-1,9.7-3.1c2.6-2.1,3.9-5.5,3.9-10.3
		c0-3.6-0.8-6.8-2.5-9.5c-1.6-2.7-3.6-5-6-6.8s-5.5-4-9.4-6.3c-3.9-2.5-6.9-4.6-9.2-6.3c-2.3-1.8-4.2-3.9-5.7-6.5
		c-1.6-2.6-2.3-5.6-2.3-9c0-4.2,1.1-7.7,3.4-10.7c2.3-3,5.2-5.1,8.9-6.6c3.6-1.4,7.5-2.2,11.5-2.2c5.5,0,10.5,0.9,14.9,2.8
		c1.2,0.5,1.8,1.2,1.8,2.2l0.6,15.4c0,0.3-0.2,0.5-0.6,0.6c-0.4,0.1-0.7,0-0.7-0.4c-0.9-4.4-2.8-8.6-5.8-12.6c-3-4-7.1-6-12.5-6
		c-4.1,0-7.3,1.2-9.5,3.7c-2.3,2.5-3.4,5.6-3.4,9.3C413.5,329.7,414.3,332.5,415.8,334.8z"/>
	<path class="st0" d="M535.8,385.2c0.5,1.2,1.4,2,2.8,2.4c1.4,0.4,3.5,0.6,6.5,0.6c0.2,0,0.2,0.2,0.2,0.7s-0.1,0.7-0.2,0.7
		c-2.6,0-4.7,0-6.1-0.1l-8.9-0.1l-8.6,0.1c-1.6,0.1-3.7,0.1-6.4,0.1c-0.2,0-0.2-0.2-0.2-0.7s0.1-0.7,0.2-0.7c3,0,5.1-0.2,6.5-0.6
		c1.4-0.4,2.3-1.2,2.8-2.4c0.5-1.2,0.7-3,0.7-5.5v-56.9c0-2.5-0.2-4.3-0.7-5.4c-0.5-1.1-1.4-1.9-2.8-2.4c-1.4-0.4-3.6-0.7-6.5-0.7
		c-0.2,0-0.2-0.2-0.2-0.7s0.1-0.7,0.2-0.7l6.4,0.1c3.6,0.2,6.5,0.2,8.6,0.2c2.4,0,5.4-0.1,9-0.2l6-0.1c0.2,0,0.2,0.2,0.2,0.7
		s-0.1,0.7-0.2,0.7c-2.9,0-5,0.2-6.4,0.7c-1.4,0.5-2.3,1.3-2.8,2.5c-0.5,1.2-0.7,3-0.7,5.5v56.7C535,382.2,535.3,384.1,535.8,385.2z
		"/>
	<path class="st0" d="M691.4,389c0,0.5-0.2,0.7-0.5,0.7c-1.6,0-4.1-0.1-7.5-0.2c-3.3-0.2-5.7-0.2-7.3-0.2c-1.9,0-4.2,0.1-7,0.2
		c-2.8,0.2-4.9,0.2-6.3,0.2c-0.3,0-0.5-0.2-0.5-0.7s0.2-0.7,0.5-0.7c2.8,0,4.8-0.3,6-0.8c1.2-0.5,1.8-1.5,1.8-2.9
		c0-1.4-0.6-3.3-1.8-5.8l-13.8-28.5h-22.6l-10.1,23.2c-1.1,2.7-1.7,5-1.7,6.8c0,5.3,4,8,11.9,8c0.4,0,0.6,0.2,0.6,0.7
		s-0.2,0.7-0.6,0.7c-1.5,0-3.6-0.1-6.4-0.2c-3.1-0.2-5.8-0.2-8.1-0.2c-2.1,0-4.7,0.1-7.6,0.2c-2.6,0.2-4.8,0.2-6.4,0.2
		c-0.3,0-0.5-0.2-0.5-0.7s0.2-0.7,0.5-0.7c2.3,0,4.2-0.5,5.8-1.4c1.6-0.9,3.1-2.5,4.6-4.7c1.5-2.2,3.2-5.5,5-9.8l26.2-60.4
		c0.1-0.2,0.4-0.4,0.9-0.4c0.5,0,0.8,0.1,0.9,0.4l29.6,60.9c2.8,6,5.2,10,7.1,12.2c2,2.1,4.2,3.2,6.6,3.2
		C691.2,388.3,691.4,388.5,691.4,389z M633.5,347.4h20.2l-10.6-22.1L633.5,347.4z"/>
	<path class="st0" d="M832.2,313.6c0,0.5-0.1,0.7-0.4,0.7c-6.7,0-10.1,4.3-10.1,12.8v64.2c0,0.2-0.2,0.3-0.6,0.4
		c-0.4,0.1-0.6,0-0.8-0.1l-57.7-68.4v52.4c0,4.3,0.8,7.5,2.4,9.6c1.6,2.1,4,3.1,7.3,3.1c0.2,0,0.4,0.2,0.4,0.7s-0.1,0.7-0.4,0.7
		c-2.1,0-3.8,0-4.9-0.1l-6.3-0.1l-6.6,0.1c-1.2,0.1-3,0.1-5.4,0.1c-0.2,0-0.2-0.2-0.2-0.7s0.1-0.7,0.2-0.7c3.5,0,6.1-1,7.8-3.1
		c1.7-2,2.5-5.2,2.5-9.6v-55.8c-3.6-3.6-7.2-5.4-10.7-5.4c-0.2,0-0.4-0.2-0.4-0.7s0.1-0.7,0.4-0.7l4.8,0.1c1,0.1,2.4,0.1,4.2,0.1
		l6.4-0.1c0.7-0.1,1.7-0.1,2.8-0.1c0.7,0,1.1,0.1,1.4,0.4c0.3,0.3,0.8,0.9,1.4,1.9c0.7,1.1,1.8,2.5,3.1,4.1l45.8,55.2v-47.4
		c0-4.3-0.8-7.6-2.3-9.7c-1.6-2.1-4-3.1-7.3-3.1c-0.2,0-0.2-0.2-0.2-0.7s0.1-0.7,0.2-0.7l4.9,0.1c2.5,0.2,4.6,0.2,6.3,0.2
		c1.5,0,3.6-0.1,6.4-0.2l5.2-0.1C832.1,312.9,832.2,313.1,832.2,313.6z"/>
</g>
<g>
	<path class="st0" d="M25.1,462.4V417h3.3v45.4H25.1z"/>
	<path class="st0" d="M79.4,423.1v39.3h-3.3V417h2.5l31.9,40v-40h3.3v45.4h-3L79.4,423.1z"/>
	<path class="st0" d="M159.9,417l17.3,41.3l17.3-41.3h3.5l-19.2,45.4h-3L156.5,417H159.9z"/>
	<path class="st0" d="M271.1,459.5v2.9h-30.3V417h29.7v2.9H244v17.9h23.1v2.8H244v18.9H271.1z"/>
	<path class="st0" d="M341.3,424.5c-2.9-3.3-7.1-4.9-12.5-4.9c-4.4,0-7.7,0.8-9.7,2.5c-2,1.7-3,4-3,6.8c0,1.5,0.3,2.7,0.8,3.6
		c0.5,1,1.3,1.8,2.4,2.5s2.5,1.3,4.1,1.7c1.7,0.5,3.7,1,6,1.5c2.4,0.5,4.6,1.1,6.6,1.7c2,0.6,3.7,1.4,5.1,2.3
		c1.4,0.9,2.5,2.1,3.2,3.5c0.7,1.4,1.1,3.1,1.1,5.1c0,2-0.4,3.8-1.2,5.2c-0.8,1.5-1.9,2.7-3.3,3.7c-1.4,1-3.1,1.8-5.1,2.3
		c-2,0.5-4.2,0.8-6.6,0.8c-7.1,0-13.1-2.3-18-6.8l1.7-2.6c1.9,2,4.3,3.6,7,4.8c2.8,1.2,5.9,1.8,9.3,1.8c4,0,7.1-0.7,9.3-2.2
		c2.2-1.5,3.4-3.6,3.4-6.6c0-1.5-0.3-2.8-0.9-3.8c-0.6-1-1.5-2-2.7-2.7c-1.2-0.8-2.7-1.4-4.4-2c-1.8-0.6-3.9-1.1-6.3-1.6
		c-2.4-0.5-4.6-1.1-6.4-1.6s-3.4-1.3-4.7-2.2c-1.3-0.9-2.2-1.9-2.8-3.2s-1-2.8-1-4.7c0-2,0.4-3.9,1.2-5.4c0.8-1.6,1.9-2.9,3.3-4
		c1.4-1.1,3.1-1.9,5.1-2.5c2-0.6,4.1-0.8,6.5-0.8c2.9,0,5.6,0.4,7.9,1.3c2.3,0.9,4.4,2.2,6.3,4L341.3,424.5z"/>
	<path class="st0" d="M420.9,419.9h-16.6v42.5H401v-42.5h-16.6V417h36.6V419.9z"/>
	<path class="st0" d="M504.9,462.4v-39.3L487,453.8h-2L467,423.1v39.3h-3.3V417h3.3l19,32.5l19-32.5h3.3v45.4H504.9z"/>
	<path class="st0" d="M586.2,459.5v2.9H556V417h29.7v2.9h-26.4v17.9h23.1v2.8h-23.1v18.9H586.2z"/>
	<path class="st0" d="M634.3,423.1v39.3H631V417h2.5l31.9,40v-40h3.3v45.4h-3L634.3,423.1z"/>
	<path class="st0" d="M748.1,419.9h-16.6v42.5h-3.3v-42.5h-16.6V417h36.6V419.9z"/>
	<path class="st0" d="M817.4,424.5c-2.9-3.3-7.1-4.9-12.5-4.9c-4.4,0-7.7,0.8-9.7,2.5c-2,1.7-3,4-3,6.8c0,1.5,0.3,2.7,0.8,3.6
		c0.5,1,1.3,1.8,2.4,2.5c1.1,0.7,2.5,1.3,4.1,1.7c1.7,0.5,3.7,1,6,1.5c2.4,0.5,4.6,1.1,6.6,1.7c2,0.6,3.7,1.4,5.1,2.3
		c1.4,0.9,2.5,2.1,3.2,3.5c0.7,1.4,1.1,3.1,1.1,5.1c0,2-0.4,3.8-1.2,5.2c-0.8,1.5-1.9,2.7-3.3,3.7c-1.4,1-3.1,1.8-5.1,2.3
		c-2,0.5-4.2,0.8-6.6,0.8c-7.1,0-13.1-2.3-18-6.8l1.7-2.6c1.9,2,4.3,3.6,7,4.8c2.8,1.2,5.9,1.8,9.3,1.8c4,0,7.1-0.7,9.3-2.2
		c2.2-1.5,3.4-3.6,3.4-6.6c0-1.5-0.3-2.8-0.9-3.8c-0.6-1-1.5-2-2.7-2.7c-1.2-0.8-2.7-1.4-4.5-2c-1.8-0.6-3.9-1.1-6.3-1.6
		c-2.4-0.5-4.6-1.1-6.4-1.6s-3.4-1.3-4.7-2.2c-1.3-0.9-2.2-1.9-2.8-3.2c-0.6-1.2-1-2.8-1-4.7c0-2,0.4-3.9,1.2-5.4
		c0.8-1.6,1.9-2.9,3.3-4c1.4-1.1,3.1-1.9,5.1-2.5c2-0.6,4.1-0.8,6.5-0.8c2.9,0,5.6,0.4,7.9,1.3c2.3,0.9,4.4,2.2,6.3,4L817.4,424.5z"
		/>
</g>
<g>
</g>
<g>
</g>
<g>
</g>
<g>
</g>
<g>
</g>
<g>
</g>
</svg>
