<svg xmlns="http://www.w3.org/2000/svg" viewBox="0 0 841.89 595.28"><style><![CDATA[.A{fill:none}.B{fill:#fff}]]></style><path class="B" d="M412.7 201.08l-.13.32-.48 1.15-.1.25.16.22 1 1.4.34.48.4-.43 1.07-1.14.13-.13.01-.18.06-1.28.03-.47-.47-.04-1.7-.14zm3.98 16.57l.04.13.12.1 1.14.87.4.3.3-.42 1.07-1.55.27-.38-.38-.28-1.75-1.28-.28-.2-.3.2-.94.67-.3.22.13.35zm-3.08 5.3l-.58-.65-.25.83-.54 1.82-.1.33.27.2 1 .74.46.33.26-.5.67-1.28.16-.3-.23-.25zm1.3-4.28l-.07 1.48-.01.28.23.15 1.45.97.25-.48.82-1.53-.37-.25-1.55-1-.7-.47zm18.13-28.07l.03.25.22.12 3 1.67.07-.75.16-1.87.02-.2-.14-.16-1.55-1.8-.3-.37-.37.32-1.34 1.14.03.26zm-42.5-67.28l.04.07.07.06 1.3 1.18.32-.25 1.32-1 .45-.35-.42-.4-1.92-1.82-.3-.3-.33.27-1 .8-.32.25.2.36zm.92 14.18l-.13-.4-.88-2.64-.2-.08-2.93-1.22-.28-.1-.22.2-2.53 2.13-.16.13-.01.2-.1 1.72-.01.23.17.16 2.13 1.92.25.22.3-.14 4.26-2.13zm-2.5 96.23l-.53.3-2.7 1.48-.12.07-.07.14-.74 1.4-.26.5.52.2 2.15.8.12.04.14-.02 2.22-.4.53-.1-.15-.5-.94-3.3zm7.3-2.63l-.24-.1-1.55-.8-.4-.2-.24.36-1.95 2.93.2.27 2.45 3.2.35-.15 1.55-.68.33-.14-.04-.36-.47-4.04zm.94-101.18l.16.5.48-.2 1.82-.7.42-.17-.13-.43-.88-2.93-.55.35-1.72 1.1-.3.2.1.35zm13.74 28.78l.14.14.2.01 2.2.04h.54v-.52l-.1-1.98v-.15l-.1-.12-1.53-2.02-.23-.3-.35.16-2.1.93-.05.25-.3 1.53-.05.25.18.18zm-18.17-26.33l-.34-.32-1.52-1.42-.4-.36-2.2 2.8.53.26 1.82.92.34.17.25-.3 1.2-1.42zm15.85 76.13l.05.05.05.04 1.28.88.26.17.27-.16 1.88-1.15.4-.24-.24-.4-1.08-1.9-.1-.17-.2-.05-1.62-.47-.25-.08-.2.18-1.55 1.34-.36.32.3.36zm2.67 12.62l-.28-.07-1.55-.4-.36-.1-.18.33-1 1.82-.2.33.28.26 1.82 1.68.34.32 1.55-1.54.2-.2-.07-.26-.47-1.9zm-12.74-8l-.06.28-.26 1.35-.05.2.14.18 1.14 1.48.35.45.4-.4 1.2-1.28.2-.2-.07-.26-.54-2.02-.13-.48-.48.14-1.55.47zm20.83-69.75l.02.33.32.1 2.2.68.13-.03 2.27-.6.56-.14-.24-.52-1.38-3.08-.1-.07-1.68-1.33-.33-.27-.3.3-1.18 1.13-.12.12-.02.17-.25 1.88-.01.05.01.05zm165.38 10.9l.4.1.15-.4.77-2.1.17-.45-2.55-.94-.5-.18-.14.5-.66 2.42-.14.5.5.1zm-11.42 44.02l-5.44-.7-.84-.12.33.8 1.05 2.44.13.1 2.5 1.53.2-.05 1.98-.55.4-.1-.04-.4-.2-2.53zm9.07-10.56l-.32.32-1.32 1.3-.18.2.05.26.88 4.06.08.4h2.9l.06-.43.46-3.88-.2-.17-2.08-1.76zm2.84 5.2v5.4l.6-.13 5.22-1.1.07-.03 5.23-2.74-.18-.4-1.76-4-.27-.03-3.16-.44-2.4-.54-.32-.08-.2.28-1.74 2.6-.96 1.07zm-144.22-32.8l.04.17.15.1 3.67 2.53.26-.15 2.36-1.3.18-.1.05-.2.85-2.8.07.06.28-.13 6.97-3.14v-2.55l2.83-1.54-.2-.42-.96-2-1.66-4.74-.1-.08-3.27-2.9-.32.33-2.57 2.57-2.56 1.68-.28.18.07.32.6 2.96-2.65 3.54v2.5l.16.15 3.42 3.1.02.01-.26-.1-5.12-1.96-.2-.07-.2.1-1.95 1.06-.33.18.1.37zm250.3-43.24l.34.4 1.7-1.7 1.56-7.78 1.94-3.8-.18-.24-2.05-2.77-.16-.22h-.27l-5.12.42-.23.01-.13.2-3.16 4.74v3.92l.12.13zm-102.85 54l.13.28h.3l9.9.1.3.01.14-.26 2.97-5.5-.1-.22-1.87-4.06-.3-.67-2.43 2.67-3.82-.3-.3-.02-.15.26-.96 1.63h-2.34l-.06.42-.26 1.76-2.2-.1-.8-.04.34.73zm68.93 4.7l.25.16.27-.15 1.86-1.1.33-.2-.1-.36-.66-2.3-.13-.43-.44.1-2.2.44-.28.05-.1.26-.65 1.87-.13.36.3.2zm-93.68 6.25l.01.13.1.1 2.02 2.56.75 2.86.07.27.27.08 4.28 1.2.1.02h.08l4.44-.37-.04-.5-.28-3.58 2.27.26.3.04.15-.27 2.02-3.33 2.3.48.28.05.2-.2 1.76-1.97.3-.34-.32-.33-1.85-1.85-.12-.03-3.7-1.06-2.47-2.92 1.43-.38 2.12 3.23.1.16.2.05 4.85 1 .02-.58.1-4.94.01-.14-.07-.12-1.56-2.64h-.26l-5.05-.33h-.17l-.14.1-2.47 1.76-3.87-.63-.5-.08-.4 3.25-.03.22.16.17 2.1 2.2-.72.84-3.48-2.88-.15-.13-.2.02-5.02.48-.03.4-.33 3.73-.01.05.01.05zM458.5 158l-.2 1.56-.85.25-1.16-4.4-.54.26-6.43 3.18-.07.17-2.3 5.7v.1l-.08 1.8-.02.33.3.13 2.3 1.03 4.1 3.54.02.02.02.01 4.64 3.18.24.16.26-.13 2.28-1.23.22-.1.03-.24.5-3.18.04-.2-.15-.17-1.56-1.85 2-3.22.01-.12.25-3.67.01-.22-.16-.16-3.55-3.44zm-6.62 37.2l.28-.16 1.38-.82.38-.22-.2-.4-.98-2.03-.23-.5-.47.3-2.27 1.46-.6.4.57.4 1.87 1.4zm-3.18.86l-1.2 2.38.23.25 1.23 1.34.36-.34 1.14-1.05.36-.34-.34-.35-1.3-1.4zm-2.66-51.2l.8.15-1.38-4.43-.1-.35-4.2.1-.05.42-.33 2.68-.05.46.45.08zm54.36 73.8l-.14.36-1.17 2.93-.14.34.3.22 3.42 2.74.3-.46 1.38-2.18.04-.07.02-.07.46-1.8.1-.34-.3-.2-1.68-1.05-.1-.06-.1-.01-2-.3zm58.7-34.1l.03.12.08.1 2.64 3.08.22.26.33-.13 1.64-.66.5-.2-.26-.48-1.98-3.62-.06-.12-.12-.07-2.96-1.76-.97-.57.25 1.1zm-99.16-4.25l.05.2 1.06 3.83.2.7.57-.47 4.44-3.56 4.65-.32.18-.01 2.8-2.78.01-.2.33-6.04-.1-.15-3.04-3.85-.38.4-1.93 1.92-.73-.78.2-4.16-.76.4-4.14 2.25-.58 7.48-2.72 4.96zm17.22.32l.06.3 4.56 1.03-.08-.68-.16-1.38-.03-.24-.2-.12-3.6-2.2-.53-.33-.18.6-.25.8-.03.12.02.12zm-84.66-45.35l-.68 1.48-.06.15.03.16.6 2.62 4.65-.12h.26l.14-.23 1.72-2.83.16-.26-.16-.25-1.42-2.33-.38-.64-2.06 2.97-2.4-.62zm415.56 207.76l-.03-.34-.44-5.96-.02-.2-1.85-1.72-.1-.08-.1-.03-1.84-.5-.57-.15-.05.58-.52 6.22.12.14 2.35 3.05.23.3.36-.16 2.15-1.02zm-.96 4.6l-.6-.26-.1.63-.32 2.22-.02.15.06.12 1.22 2.67 3.23-1.47.2-.1.06-.22.38-1.46.1-.4-.38-.17zm-1-17.32l-.33-.3-.32.3-.9.83-.1.1-.03.15-.4 1.87.4.15 2.16.82.3.12.22-.24 1.15-1.27.32-.37-.37-.33zm5.26 44.02l-.17.35-.95 2-.1.24.13.22 1.04 1.74.2.34.37-.14 1.47-.52.3-.1.03-.3.35-2.77.05-.44-.43-.1-1.9-.43zM209.6 206l-.14-.1-1.44-1.08-.3.4-.8 1.1-.08.1-.01.13-.13 1.07-.03.22.15.16 1.3 1.42.35-.24 1.36-.9.28-.18-.08-.33-.4-1.6zm591.37 126.35l-.42.27-2.15 1.4-.28.18.07.33.3 1.52.05.2.17.1 1.96 1.27.5.32.22-.55.95-2.42.1-.22-.13-.2-1.08-1.78zm-31.35-97.3l-.07-.01-1.93-.3-.4-.07-.13.4-1.62 4.83.2.2 6.54 7.34.1-1.12.84-9.7-.32-.14-3.14-1.42zm42.52 130.6l-.1-.22-.25-.03-1.55-.23-.16.3-1.03 2-.14.26.17.24 1.55 2.26.33.46.4-.4 1.9-1.82.27-.25-.17-.33zM497.6 225.9h-.33l-2.36-.1-.15.23-1.18 1.8-.04.07-.02.07-.36 1.37.15.2 1.23 1.55.36-.22 3.35-2.06.34-.2-.14-.37-.75-2zm316.9 155.94l-.08-.23-.24-.07-2.36-.68-.2.2-1.55 1.65-.2.22.1.28 1.22 3.3.15.42.42-.1 3.64-.96.5-.13-.18-.5zm-.12-130.2l-.12-.2-4.6-.55-.08.02-3.97.9-.67.16.37.58 1.53 2.34.12.18.2.03 5.8.92.16.02.14-.07 2.8-1.46-.26-.43zm7.42-4.6l-1.73-.4-.14-.04-.14.05-4.27 1.63-.7.27 2.87 2.87.34-.28 3.97-3.25.75-.62zm-16.2 168l.02-.01 1.38-2.17.12-.17-.06-.2-.6-2.5-.1-.36h-.34l-1.9-.08-.55-.03.05.56.15 1.74-1.1.97-.02.01-.02.02-2.33 2.42-.14.15v.2l.17 5.85.01.02.74 4.92.22.12.87.43.6.3.1-.68.34-2.68.53-3.55v-.05l.17-2.72zm6-17.47v-.12l-.07-.1-1.56-2.5-.32-.52-2.4 2.4.01.2.08 3.8.1 4 .1 1.82.02.46h2.7l.1-.33 1.57-4.5.03-.1-.01-.1zm-12.66 31.93l-.22-.14-.25.1-1.9.9-.05.03-.04.03-1.05.83-.27.2 1 3.2-.34 3.84.04.1 1.07 3.05 1.42-.62.27-.12.02-.3.37-6.6 1.05-1.23.1-.1.02-.14.22-1.77.04-.3-.26-.17zm8.03 3.35l-.02-.1-.06-.1-1.38-1.92-.4.4-1.05 1-.14.14-.01.2-.03 1.7-.01.1.05.1.63 1.47.18.4.43-.14 2.32-.82-.1-.42zm-445.55-313.6l.04.16.13.1 1.97 1.53.2-.01 2.44-.2 1.47 1.2.36.3-2.1.28-.06.02-1.25.54-3.24-.92-.05.58-.2 2.13-.03.23.16.16 1.92 1.9 2.35 2.97.35-.64.6-1.12.1-.16-.04-.17-.4-1.86 2.03-.47 3.5 1.17.2-.2 2.13-2.12.3-.32-.3-.35-1.93-2.22-.08-.1-.1-.04-1.62-.6-.26-.1-.2.16-1.62 1.24-.14.02.3-.36 1.02-1.22.3-.36-.34-.3-2.23-2-.26.08-1.6.5-3.66-2.36-1.03-.67.3 1.2zm14.3 8.67l-.47.78-.6 1-.1.17.05.2.4 1.73.17.7 2.03-1.48-.17-.36-.9-1.93zm.26 6.48l-.1.15-1.35 1.97.3.28 1.62 1.52.32.3.33-.3 1.65-1.42-.43.56-.28.37.35.3 1.22 1 .25.2.28-.15 2.13-1.12.2-.1.05-.22.72-3-.47-.12-1.62-.4-.3-.07-.2.25-1.14 1.48-.1-.14-1.12-1.63-.2-.27-.32.08-1.62.4zm-1.82-11.94l.33.46.4-.4 1.57-1.58-.38-.34-2.53-2.28-.27.63-.5 1.22-.1.25.16.22zm11.16 3.46l.04.2.17.1 2.03 1.3.4.27.26-.4 1.22-1.82.16-.24-.13-.25-1.1-2.23-.22-.43-.43.2-2.44 1.22-.33.17.07.36zm421 203.73l-.08-1-1.04-13.12-1.47-6.14-4.25-4.25.37-5.97 2.06-1.7.38-.32-.33-.38-7.32-8.47.12-5.63 3-3.26.17-.2-.06-.25-.78-3.4-.06-.28-.28-.08-6.07-1.77-6.08-10.8.8-.53 1.68 2.36.27.37.38-.24 3.66-2.3-.46-.43-5.1-4.8-.3.17-2.36 1.3-4-2.6-.04-.1-1.92-4.6-.13-.3h-5.04l-.07.4-.45 2.56-2.03-.2-8.7-17.4.48-5.12 3.67-.82-2.4-9.54 4.5 3.55.78.6.01-1 .13-12.34 4.17-4.3 7.17-.14-.27-.65-3.75-9.2-3.15-34.77-.22-.12-3.24-1.84 8.92-6.16-.1-.34-1.4-4.63-.33-.03-17.5-1.46-2.12 2.78-4.88.4-.06.38-.46 3.2-2.88-.2v-4.3l3.97-1.32.2-.06.1-.18 1.7-3.52.06-.12V145l-.95-9.57-.28-.1-1.7-.65-.23-.1-.2.13-1.38.86-.1-2.55-.03-.68-.63.25-3.73 1.44-2.36-2.7.83-4.03 2.77 2.45.3.27.32-.25 1.6-1.28 2.57 2.8.5.55.3-.7 1.7-3.92.05-.1-.38-4.57 2.78-2.32 5.28.5.2.02.15-.1 9.55-7.23-.33-.4-1.4-1.63 3.87.55-.02-.58-.13-4.44v-.57l-.55.1-4.6.84-1.28-2.8-.1-.23-.24-.05-5.87-1.15 2.1-2.64.32-.4-.4-.3-2.85-2.08 3-2.12-.3-.4-4.18-5.43-.37.22-11.3 6.65-.03.24-.64 5.22-3.3 4.32.6.24 6.4 2.58-2.85 1.3-12.05-3.28-.2.12-13.96 9.26-20.97 11.4-.07.1-5.7 9.3.03.18.44 2.3-3.47.95-.08.08-5.7 5.14.3.36 4 4.96.3-.1 3.2-.98 4.63 2.6-.45 4.4-4.4.5-.1.05-2.88 1.68-7.15-4.5v9.12l-6.68 5-.05.1-2.84 5.5-1.27 2.45-6.74 3.8-5.08-4.82-.17-.02-5.4-.54-.14.1-7.5 4.87-.05.06-5.1 6.27-.06.08-.03.1-1.75 6.14-2.96.9-4-2-.13-.06-.14.01-4.26.4-.13.17-1.78 2.33-1.43-1.23-.35-.3-.32.34-1.37 1.47-1.37-1.28 3.4-3.4-1.06-.08-7.05-.52-.2-.01-.15.13-4.28 3.72.1.3 2.14 7.3-3 2.9v-5.2h-3.4l-.14.13-2.12 1.92-.42-1.9 4.87-4.4-1.38.08-4.3.26-.1.01-.1.04-13.34 6.8.4.47 2.2 2.66-3.6 3.47.18.33 1.44 2.6.23.4 2.38-1.2.2 3.22.1.12 2.62 3.05-4.06 1-.17.04-.1.14-1.6 2.18.1.25 1.07 2.57-3.2.53-5.6-1.67-.13.5-1.45 5.44-9-1.6v13.06l-5.56-.93-9.1-8.24 3.03-2.13.4-.27-.26-.4-5.95-8.86-.12-.06-3.8-1.83-.18-.1-.2.06-5.58 1.9-6.83-2.65-.96 10.27-11.1 4.74-3.93-2.66.73-2.62h-.64l-12.13-.13-3.28 4.38-.06.07-.02.08-.22.8-.43-2.2-.12-.1-2.57-2.27-.32.34-2.55 2.68-3.54 1.77-.25.12-3.74 1.87-.03.02-3.84 2.95-5.26 1.54-.2.05-.1.17-1.13 1.98.08-3.1 10.74-11.13.03-.06 6.03-10.88v-.05l2.8-9.9-.17-.2-8.5-9.7-.2-.01-8.1-.27-.15.2-2.62 3.75-2.12.35 2.28-6.45-.6-.07-5.6-.7 1.63-2.34.26-.36-.34-.3-4.14-3.44-.26.1-3.53 1.3-.15.05-.1.13-5.73 8.53.06.2 1.16 4.4-5.92.38.04.5.13 1.57.01.13.07.1 1.54 2.27-3.13-.66-.25-.05-.2.17-2.04 1.92-4.42-.8-.57-1.93-.1-.35-.37.01-7.54.14.02.5.12 3.6-8.18 1.14-.1.08-5.62 4.47-4.27.13-.18.01-.13.1-3.26 2.87-.1.1-.04.15-1.44 5.88-.04.18.1.16 2.44 4.4-3.47.87-11-1.8h-.07l-6.7-.14-.14.26-1.96 3.52-.06.1v.12l-.26 9.14-.01.2.15.15 3.98 3.85 1.63 3.8h-4.6l-4.84-9.02-.3.02-3.56.2-.23.01-.25.01-2.97.18-.1.34-1.1 3.94-3.72-3.38-.58-.52-.22.75-1.17 4.05-.08.26.2.2 4.45 4.83.18 2.96-7.33-6.52-.24-4.3 3.5-4.28v-.14l.58-7.74-.75.34-1.43.65-.2.08-.07.2-1.65 4.58-2.44 2.2-2.63.75-.17.05-.1.15-2.7 4.04v.15l.13 10.17-6.4 10.07.01.16.42 6.6h6.75l5.1 6.1v5.8l-3.87 4.67.14.28 1.04 2.1.07.13.13.07 1.92 1.08-3.94.92-1.4-5.22 4.2-7.33-2-6-.3-.04-6.64-.93-.17.16-3.66 3.53-.4 7.72-5.67 5.8-5.36 1.96-.08.08-3.38 3.63-11.7-7.22v-2.63l7.72 3.56.2-.07 4.3-1.7.04-.02.04-.03 7.03-4.5 4.83-9.66-.02-.15-.76-4.96 7.92-18.86.9-3.26.03-.12-.03-.12-.86-4.04 5.02-4.77.12-.1.03-.17 1.07-7.12-.12-.16-3.54-4.7 3.33-.44.48-.06-.06-.48-.6-5.04-.05-.4-.4-.03-4.12-.3-.48-.04-.04.48-.3 3.77.04.1.46 1.17-1.56-.63-.26-.1-.22.17-3.97 3.04-.04.05-4.68 5.97-3.54 3.4-5.5 1.3-.1.1-3.18 3.04.26.35 2.68 3.53-2.88 5.17-4.12 1.25-.32.1-.02.34-.13 1.96-.01.2.15.15 3.58 3.7-1.25 3.5.04.15.65 2.35.02.08.05.07 1.2 1.74-4.1 3.76-1.2-1.92-1.3-5.6-.04-.07-5.1-8.18-.13-.2-.1-.2-2.52-4.63-.04-.05-6.68-7.2h-5.56l-.1.38-.66 2.9v.05l-.12 4.04-3.13 1.86-1.78-.36-.32-.06-.18.27-1 1.52-1.62-1.28 2.45-2.23.16-.15v-3.56l-.48-.01-9.1-.13-4.44-3.3-.15-.1-.18.02-6.78.63-1.8-2.48 3.33-.3.27-.03.12-.24 2.22-4.3.3-.55-.6-.14-5.9-1.37-.2.23-2.16 2.6-.96-1.73-.1-.2-.2-.05-14.63-3.6-1.7 1.7-1.74-1.64-.27-.25-.3.18-7.25 4.25-3.43-3.32 1.07-3.1.05-.16-.05-.16-1.02-2.93 4-1.33 4.53 3.15.27-.44 2.17-3.52V219l-.13-6.14v-.18l-.12-.13-6.33-6.92-.23.84-1.65 5.96-7.86 5.1-.04.2-.63 3.75-3.6 3.26-.03.02-.18.16-.22.2-3.47 3.13-1.22-2.27 2.6-.53-.3-.58-3.42-6.44-.34.05-4.84.77-4.85-1.66-.1-.04-.12.02-6.42.94-.1.26-3.2 7.96-1.86-1.07-3.4-7.96.55-6.88-.6.07-5.74.65-.33.04-.1.3-1.64 5.73.16.2 2.24 2.7-1.87 2.5-3.2-1.77-.62-4.17-.05-.32-.03-.18-.3-2.06.37-1.74.04-.2-.13-.17-1.52-2.1 1.4-2.56 4.7-5.86 4.1-1.32.1-.16 2.35-4.05.05-.08.01-.1.88-5.87.03-.17.1-.58.9-5.52.77 1.1-.65 4.65.06.13 1.92 4.1.53 6.96.07.1 2.68 4.1.64 4.2.03.23.2.12 10.34 6.23.18-.03 6.45-1.2.1-.15 4.7-6.4.06-.1.02-.1 1.33-6.9-.03-.1-2.07-8.03.26-11.85-1.33-4.38-.03-.05-3.2-5.13-.47-3.63.8-.5 1.7 2.37.28.38.4-.26 2.32-1.55-.2-.4-1.83-3.52-.06-.1-.1-.07-7.02-4.77-.13-.01-10.1-.93-.15.1-1.94 1.42-4.94 2.86-.25.15.14 4.06-3.18 5.13-6.4.13h-.23l-.14.18-2.3 2.9-.24.3-5.4 6.8-2.63-.12-.16-.01-.13.1-3.52 2.4-2.45-.12h-.3l-.13.32-1.03 2.6-1.1 2.1-2.33 1.75.2.37 1 1.9-1 1-5-.8-.12.4-1.32 4.64-.88 6.64-2.5 1.02-12.74-1.68-10.66.4-.07.03-5.65 2.07-.02.32-.26 4.3v.13l.44 1.66-.8.67-.93-2.38-.1-.3-.3-.02-1.9-.12-3.4-3.28-.32.2-3.95 2.55-2.6.3-.5.06-2.53.3-.14.02-.1.08-4.05 3.13-.05.04-.04.06-2.2 3.05-4.3-.25-.3-.02-.15.25-2.62 4.36-3.44.4v.4l-.12 3.27-4.62 3-.24.15.02.28.27 4.72.1.12 1.72 2.18-1.97 2.44-.15.2.05.23.6 2.52.3.07 2.83.7.56 2.8-1 1.77-.16.28-.1.17-.43.77-4.3 2.47-.06.1-2.22 3.52-.02.03-.01.02-2.35 4.83-.04.1-.01.1-.26 3.92-.01.08.02.08.58 2.1-1.64 2-.01.15-.1 1.4-3.4-.28-2.3-2.2.23-2.1.05-.44-3.3-.68-.15.38-1.4 3.4-5.33 4.53.04.26.45 3.3.44-.02 2.56-.12 1.8 1.47.75 3.5.1.43.44-.05 2.28-.25 2.27.43v1.27l-3.3 4.35-.2.27h-.2l-.1.04-2.32 1-1.03 2.06-1.35.34-.35.1-.02.36-.13 2.6-.01.3.25.15 1.95 1.15-.5 4.57-.02.15-.06.08-1.9 2.35-.02.03-1.02 1.6.04.2.45 2.2.22.1 1.65.77-.23 2.67-.03.3.25.16 4.74 3 .13 5.48v.12l.05.1 3.96 7.54.17.3 1.03 1.96-.23 6.05-3.84-.13-.15.22-1.44 2.17-1.87.23-.25.03-.12.22-2.4 4.28-3.65 1.37-2.9-4.3-.22-.03-7.3-.94-.17.17-3.68 3.84.53.3 6.4 3.8-1.2.83-3.7-2.24-.26.2-2.02 1.6-.08-.16-.06-.06-5.5-5-.68 6.53-2.1-1.05-.13.01-4.96.26h-.22l-.14.17-1.4 1.8-3.6-6.03-3.48 3.16.01.23.25 4.38-1.3 1.55-.18.2.1.26.7 2.1 2 1.5-.12 3v.07l.01.06 1.16 5.15-.4 4.76-.93 8.14.1.15 1.04 1.44.23.32.36-.16 1.7-.74 1.15 1.93.2.34.05.1 3.13 5.25v3.3l.13.14 6.15 6.8.13 4v.14l.07.1.83 1.3.06.1.01.16.2 4.48.01.3.26.13 4.96 2.35.03.47.01.13.01.2.02.32.05.95.01.23.18.14 1.38 1.02.1.08.04.1.92 2.47.38 1.87-1.58 1.58.01.22.26 3.92.01.13.08.1 3.56 5.1-.25 5.27-.64 2.57-.06.23.15.2 3.26 4.05.23.28.34-.14 1.57-.65.15-.06.08-.14.68-1.16 1.58.85.04.01 2.1.66.2.07.2-.12 2.48-1.57.23-.14V432l1.66-9.6 6.28-6.02.02-.18.53-6.35-.02-.08-.58-2.43 2.78-2.1.07-.05h.1l4.18.1.1-.04 3.9-1.8.08-.04.03.04.14.05 4.18 1.53h.1l10.96-.26.6-.01-.12-.57-.8-3.82 2.25-.43.33-.06.06-.33 2.13-11.96-.12-.17-1.83-2.48-.1-.15-2.47-.58.28-1.6 3.6-3.32-.25-.35-2.7-3.74.95-.5 1.9-.84.2-.1.22-.07 4.68-1.55.05-.28.6-3.17 3.54-1.95 3.98-1.03.02-.01 1.43-.44.04.04 2.32 2.2-.23 2.32-.64 2.04-.06.2.1.18 1.66 3 .4-.2 3.03-1.37.08-.15 1.4-2.8 1.47-1.58 3.78.73.22.04.18-.15 2.1-1.73 1.23-.1 1.02.8.15.1.18-.01 4.05-.26h.04l.05-.01 3-.78 1.74-.38-.13 2.76v.1l.04.1 1.57 3.8.16.37.4-.08 1.83-.4.13-.03.1-.1 1.06-.96 2.15 1.02-.1 1.4-.75 1.62-.13.28 1.12 1.28.1.1.12.04 2.37.83.97 3.4 1 4.4-1.2 2.93 1.27 2.54.24.47.45-.27 2.82-1.72.9.27.8 1.7.68 3.54.15.1 1.96 1.44.28.2.28-.2 2.2-1.48 1.97.12 3.78 1.66-.1 1.62-.01.15.07.13.9 1.57.1.2.22.04 2.36.45.18-.2 1.35-1.46 1.5 1.5.05.03 2.08 1.27-.48 3.34-.01.1.02.1.55 2.2.08.1 2.43 2.7.13.04 2.17.72.2-.1 1.77-1.06 1.16.4 1.17 2.35.2.06 4.83 1.57.24.08 2.36-1.77.04-.06 2.25-3.23-.12-.25-3.7-8.08-.06-.12h-.06v-.1l1.36-1.8 5.15-.4.05-.4.36-3.27 2-1.12 2.2.12 2.88 2.25.33.26.3-.28 2.12-1.97-.2-.34-2.18-3.6-.95-3.33 2.2-2.3 1.8-.53 3.32 3.57.2.01 7.24.45.2.05 7.27 1.68 4.4 2.75.27-.2 2.23-1.76 3.45 1.85.07.01 12.42 2.38.14-.06 4.46-2.04.16-.07h.14l3.38-.06 2.98 5.05.23.04 2.67.42.2.06 1.55.45.1 2.84-1.23 1.37.1.27.7 2.1-2.43 2.8-.16.2.06.24.6 2.52.3.07 5.27 1.22.23 2.65.04.42.43.02 2.7.13 1.9.47 1.65 1.86-2.8 2.3v2.97l.63-.2 2.8-.85 2.6 1.43.18-.04 2.35-.52.12-.03.1-.08 1.86-1.6 5.73-1.04h.2l5.65.13-1.98 2.08-.25.27.2.32 5.66 9.35.08.14.04.17 6.4 30.7.45-.07 3.6-.55.12-.17 2.13-3.07 1.6.66.64 3.5.2.1 7.37 4.03.2-.08 5.43-2.02 2.66 1.15 2.15 4.43.02.15.46 4.5.03.25.22.12 3.94 2.22.13 4.54.37.08 4 .88 1.6 1.96.25.3.35-.2 4.17-2.2.75 2.7.02.08.04.06 3.13 4.64.22.03 5.05.56.15-.32 1.3-2.86 6.12-.26.12-.1 4.15-3.1.17-.12.17-.06 16.73-6.3 5.65-.37.9 1.33.1.17.2.04 8.68 1.9.64 3.97.22.1 3.47 1.74.1.01 9.53 1.04 3.62.5 1.85 1.72.2.2.28-.1 3-1.04.1-.03 2.9-2.5.04-.1 2.07-5.1-.2-.22-3.14-3.77.36-5.48 1.77-.55.32-.1.02-.34.1-2.3 2.3-.1.36-.02.8-3.1 10.9 4.4.08.02 9.9 2.28 2.06 8 .2.1 7.55 3.98.13-.01 5.22-.13h.13l.1-.06 7.25-4.33 5.63 1.8.1-.01 5.7-.37 1.55 2.7.27.01 3.45.15.4.02.1.01 1.9.08 2.2 4.16.26.03 17.26 1.58.13-.08 11.38-6.86 3.53-.13.34-.01.1-.33 1.13-3.66 5.4-5 7.45-.37 2.53 2.4.34-.3 3.1-2.84 14 2.24.14-.38 1.9-5.2 4.9-3.4-.15-.36-1.9-4.7 2.04-12.76 3.64-3.63-.1-.3-2.45-6.55-.3-.03-4.24-.45 3.12-5.8 6.3-4.37.2-.1 8.7-4.48 6.7 2.32.12-.02 7.98-1.27 11.83 11.7 15.1 15.63.3-.12 5.68-2.27 3.47 1.6.2.1 2.64-1.32 4.77 1.5.1.03.1-.01 2.7-.35 3.92 6.2.05.05 4.42 3.86.3-.14 9.07-4.4.06-.2 1.14-3.56 6.52-7.3 3.43-1.58 3.32 5.42-1.3 4.12.05.15 2.18 6.23v.16l-.5 15.24v.14l.07.12 2.36 4.04-9.94.85-.28.02-.12.26-3.66 8 .23.24 9.8 10.05.32 4.64.75-.7 5.34-5.1 9.38.13.13-.1 6.8-5.48.08-.07.05-.1 4.08-8.18.01-.1 1.96-22.16 2.75-11.66-.01-.1-1.85-13.8.02-.2 1.2-15.5-.03-.1-1.72-4.9-7.63-15.5-2.4-2.9-2.2-10.8-1.16-2.77 6.33 3.43 2.45 6.43.05.06 3.76 4.8 4.56 7.3 3.26 5.35.04.08.08.06 3.67 2.78 1.13 3.25 1.1 3.2.18.1 4.46 2.1.64 4.57.08.1 5.6 7.12.1-1.25.4-5.35.01-.05-.01-.06-.57-3.52 3.26-.22.1-.01.08-.04 1.22-.56 4.6 2.4-.63-1.3-2.87-6-.13-.28h-4.38l-4.3-1.9-4.93-3.54-3.2-8.2-1.7-4.96 3.47-1.96 8.65-.47-17.62-11.9-11.53-10.36-5.55-10.1-.1-.06-7.25-5.05-3.35-4.25-.23-.3-.35.15-2.35 1.04-.23.1-.05.25-.52 2.48-.06.3.26.2 4.23 2.95 2.1 3.16-.9 1.17-1.78-.45-.5-.12-.1.5-.65 3-.07.3.25.2 4.07 3.06 3.64 8.3-4.78-1.97-1.68-2 1.56-3.1.24-.47-.5-.2-4.22-1.72-.06-.01-8.9-1.6-.15.08-7 3.62-2.17 9.54-2.62-3.35-.38.5-2.7 3.47-2.45-7.12-.2-.57-.52.32-5.6 3.43-4.22-.7.23-4.05 6.26-15.65v-.08l1.56-15.63 1.85-7.66-.03-.1-1.53-6.12 2.04-5.47.05-.12-.02-.12-.88-5.76 12.82-12.57 3.93.74.45.08.1-.44.44-1.77-.12-.18-.92-1.42 1.44-.95.42-.28 3.52-2.32.02-.02 2.26-1.9 3.15-.76.44-.1-.07-.44-.98-6.25 5.44-1.73.08-.07 4.3-3.8 2.9-.1-2.7 3.87.33.3 2.87 2.48.36.3 4.6-5.17.02-.15 1-7.16 3.64-1.38.1-.1 3.3-4.32-3.53-2.65-.38-.28-.3.36-2.4 2.98-2.35-2.24-.77-13.3-.02-.06-2.45-7.86.75-5.65 4.63-6.63 2.5-.12.33-.02.1-.32 1-3.02 5.06 6.94.18.24.3-.05 4.3-.7.03-.37.26-2.87v-.06l-.01-.06-.92-5.9-1-4.14v-.03l2.43-2.27.34-.32-.3-.35-6.5-7.76 1.42-4.73 4.8-1.66-2.7 4.06.86 4.3.16.1 5.1 3.53.1.08.13.01 1.88.1-.12 3.18-.01.4.4.1 1.76.4-2.04 10.16.1.16 2.3 3.8.8 12.1 1.84 7.87 2.4 7.57-2.68 2.92-.2.2.08.26.84 2.77-1.42 1.9-.24.3.26.3 3.94 4.58.64 7.3.01.16.1.12 12.18 13.75.05.04L805.47 329l.85.68zM165.5 214.8l-1.36 1.6-.13.15.01.2.16 3.17-.4 2.68-2.1 1.62-.05.13-.57 1.5-3.97.08-1.58-2.33-.14-.2h-4.03l-.87-1.07 6.66-8.05-.01-.2-.2-4.04.07-.01 3.1-.6 3.96.55 1.53 2.15-.08 2.7zm20.94 9.52l-2.26 2.2-3.96 4.47-.03.1-1.12 4-.02.02-1.66 1.6-3.4-.16-1.3-1.36 1.1.03h.18l.14-.1 1.8-1.43.12.16.13-.35.13-.1-.06-.08.1-.3.5-1.34.04-.1-.01-.1-.32-4 1.43-2.8 5.2-5.63 2.88.68.9 1.64-.5 2.95zM524.5 443.7l-1.8 1.67-.06.05-.04.07-.6 1.07-.1.18.06.2.6 1.95-.72 1.8-1.84.46-.35.1-.14 2.52-2.45 4-3.86 1.2-.1.13-2.4 3.3-3.15-.28-.08.44-.75 4.24-2.05 2.3-6.84 3.03h-4.32l-.78-1.66 1.77-1.06 2.7-.38.1-.02.1-.07 5.5-3.8.08-.05.05-.08 1.96-3 4.16-3.75.94-2.82 2.4-4.1 2.94-4.55.02-.05 2.75-7.55h-.02l1.9-5.6.3-.84.01-.05 1.06-6.6 1.63-2.88 1.92.22.37 2.3-1.07 5.98v.06l.4 5.8v.12l.9 3.1-1.12 2.94zM373.28 129.28l-.2-.5-.47.25-2.74 1.4-.45.24.26.44 2.03 3.47.44-.43 2.27-2.15-.13-.3zm7.24 95.8l-.3.1-1.48.47-.45.14.13.45.63 2.2.32.04 1.82.2.4.05.1-.4.4-1.47-.18-.2-1.2-1.35zm2.62-82.45l.2-.26-.16-.28-1.38-2.34-.44.56-1.1 1.42-.22.28.2.3 1.1 1.62.38.55.4-.53zm-2.47-11.33l.08.1.13.05 3.85 1.3.53.2.1-.56.5-2.94.04-.26-.2-.18-4.13-3.7-.32.22-3.04 2.12-.44.3.36.4zM74 213.53l.2.46.45-.23 5.74-3v-.28l.5-10.65-.1-.13-3.23-5-1.3 5.2-1.9-1.2-2.3-6.63-3 1.9-3.42-.22-.82-.06.35.74zm-26.52 126.1l-6.4-8.4 3.77-10.7-3.25-2.7-2.37 1.66-9.38-6.42-1.53 2.45.35 7.42-3.53 3.78 1.05 5.82 6.27-.36 6.68 8.4 5 2.95.28-.32zm229.25-117.4l.14.18.24.01 5.65.15.1-.35.64-2.07-.01-.1-.33-2.95-.02-.16-.1-.12-2.8-3.05-.22-.23-.3.1-4.03 1.4-.24.08-.06.25-1 3.47-.06.23.14.2zM307 207.27l.14 4.02-2.6 2.6-.23.24.13.3 2.25 4.98.27.03 2.05.26.12 1.73.03.36.35.08 2.7.6 1.78.9.63.3.07-.7 1.22-11.57.88-4.27 3.64-3.93 4.6-1.54.1-.13 1.97-2.8-.07-.23-.64-1.9 2.35 1.5h.16l3.37-.34.74-2.23 1.6.12.5.04.03-.5.1-1.64 2.36.9.12-.56.27-1.35 1.18 1.28.4.43.35-.47 1.37-1.83.07-.1.35-2.1 1.96 1.38.32.23 1.8-1.62 3.55.77 2.95-3.4 22.18-.46.1-.06 5.34-2.9.2-.1.04-.24.63-4.17-.14-.17-2.3-2.75-.2-.23-.3.07-5.34 1.38-.23.05-.1.2-.77 1.68-8.66-.73-3.85-3.25-.26-.22-.3.17-3.3 1.86-3.3-1.43-.24-.1-.22.14-4.3 2.82h-3.7l-.13.1-1.48 1.24-2.13-2.27-.63-.66-.2.9-1.14 5-2.38.13-.4.02-.06.4-.26 1.84-6.4 2-2.28-1-.33-.14-.23.28-1.53 1.83-.28.34 1.94 1.94-2.15 2.04-4.14-1.7-.55-.23-.1.6-.54 2.94-2.78-.13-.48-.03v.5l-.14 2.32-4 2.07-2.8-.93-.2.15-3.23 2.44-.01.23-.16 3.57.15.15zm-3.22 4.1l.06.88.7-.52 1.68-1.22.2-.15v-3.38l-.38-.08-2.62-.6.05.65zm61.82-81.1l-.13.48-.5 1.78.32.2 1.52.9.7.42.04-.8.1-1.92.02-.37-.35-.12-1.2-.4zm-46.5 98.18l-.46.12-3.67.9-.3.08-.06.3-.64 3.7.1.15 2.3 3.82.16.26.3-.03 2.9-.3.42-.05.01-.42.16-4.04-.02-.07-1.07-3.97z"/></svg>