<?xml version="1.0" encoding="utf-8"?>
<!-- Generator: Adobe Illustrator 23.0.1, SVG Export Plug-In . SVG Version: 6.00 Build 0)  -->
<svg version="1.1" id="Layer_1" xmlns="http://www.w3.org/2000/svg" xmlns:xlink="http://www.w3.org/1999/xlink" x="0px" y="0px"
	 viewBox="0 0 841.89 595.28" style="enable-background:new 0 0 841.89 595.28;" xml:space="preserve">
<style type="text/css">
	.st0{fill:none;}
	.st1{fill:#FFFFFF;}
</style>
<g>
	<polygon class="st0" points="160.08,209.4 156.99,210.01 156.92,210.03 157.11,214.06 157.12,214.25 157,214.39 150.46,222.31 
		151.33,223.38 155.36,223.38 155.51,223.59 157.08,225.93 161.05,225.85 161.63,224.34 161.67,224.21 161.78,224.13 163.79,222.59 
		164.18,219.91 164.02,216.74 164.01,216.55 164.14,216.4 165.49,214.81 165.57,212.1 164.04,209.95 	"/>
	<polygon class="st0" points="183.13,219.04 177.91,224.67 176.48,227.45 176.8,231.45 176.81,231.55 176.77,231.65 176.29,232.99 
		176.18,233.28 176.24,233.36 176.11,233.47 175.98,233.82 175.86,233.67 174.08,235.1 173.94,235.21 173.76,235.21 172.67,235.18 
		173.97,236.54 177.37,236.69 179.03,235.11 179.05,235.09 179.12,234.84 180.17,231.09 180.2,230.98 180.28,230.9 184.17,226.51 
		184.19,226.49 186.43,224.33 186.89,221.36 186,219.72 	"/>
	<polygon class="st0" points="524.72,437.61 524.72,437.56 524.32,431.75 524.31,431.69 524.32,431.63 525.38,425.7 525.01,423.39 
		523.09,423.17 521.46,426.05 520.4,432.65 520.4,432.69 520.39,432.73 520.11,433.54 519.7,434.75 518.21,439.13 518.22,439.13 
		517.99,439.77 517.99,439.78 517.99,439.79 515.46,446.69 515.44,446.74 515.42,446.79 512.5,451.29 510.12,455.4 509.21,458.11 
		509.17,458.23 509.08,458.32 505.02,461.98 503.06,464.98 503.01,465.06 502.93,465.12 497.42,468.92 497.32,468.99 497.21,469.01 
		494.52,469.39 492.75,470.45 493.52,472.12 497.85,472.12 497.91,472.09 504.68,469.09 506.74,466.78 507.49,462.54 507.56,462.1 
		508.01,462.14 510.72,462.37 513.12,459.08 513.21,458.95 513.37,458.9 517.07,457.76 519.52,453.75 519.64,451.6 519.66,451.24 
		520.01,451.15 521.85,450.69 522.57,448.89 521.96,446.93 521.9,446.74 522,446.55 522.6,445.48 522.63,445.41 522.69,445.36 
		524.49,443.69 525.63,440.75 524.73,437.66 	"/>
	<polygon class="st1" points="412.71,201.08 412.58,201.4 412.1,202.55 412,202.8 412.16,203.02 413.17,204.43 413.51,204.91 
		413.92,204.48 414.99,203.34 415.12,203.21 415.13,203.03 415.19,201.75 415.22,201.28 414.75,201.24 413.06,201.1 	"/>
	<polygon class="st1" points="416.68,217.65 416.72,217.78 416.84,217.87 417.98,218.74 418.39,219.05 418.68,218.63 419.75,217.08 
		420.02,216.7 419.64,216.42 417.89,215.14 417.61,214.93 417.32,215.13 416.38,215.8 416.08,216.02 416.21,216.37 	"/>
	<polygon class="st1" points="413.59,222.95 413.01,222.3 412.76,223.13 412.22,224.95 412.13,225.28 412.4,225.48 413.41,226.22 
		413.87,226.55 414.13,226.06 414.8,224.78 414.96,224.48 414.73,224.23 	"/>
	<polygon class="st1" points="414.9,218.67 414.83,220.15 414.82,220.43 415.05,220.58 416.05,221.25 416.5,221.55 416.75,221.07 
		417.36,219.93 417.57,219.54 417.2,219.29 415.65,218.29 414.94,217.82 	"/>
	<polygon class="st1" points="433.03,190.6 433.06,190.85 433.28,190.97 435.64,192.28 436.29,192.64 436.36,191.89 436.52,190.02 
		436.54,189.82 436.4,189.66 434.85,187.87 434.54,187.5 434.17,187.82 433.03,188.79 432.84,188.96 432.87,189.22 	"/>
	<polygon class="st1" points="390.53,123.32 390.57,123.39 390.64,123.45 391.65,124.36 391.95,124.63 392.27,124.38 393.59,123.37 
		394.04,123.02 393.62,122.63 391.7,120.81 391.39,120.52 391.06,120.79 390.05,121.6 389.73,121.85 389.93,122.21 	"/>
	<polygon class="st1" points="391.45,137.51 391.32,137.11 390.51,134.68 390.44,134.47 390.23,134.39 387.3,133.17 387.02,133.06 
		386.8,133.25 384.27,135.38 384.11,135.51 384.1,135.72 383.99,137.44 383.98,137.67 384.15,137.83 386.28,139.75 386.53,139.97 
		386.82,139.83 391.08,137.7 	"/>
	<polygon class="st1" points="388.95,233.73 388.42,234.02 385.72,235.5 385.6,235.57 385.53,235.71 384.79,237.12 384.53,237.61 
		385.05,237.8 387.2,238.61 387.32,238.65 387.46,238.63 389.68,238.22 390.21,238.13 390.06,237.62 389.12,234.32 	"/>
	<polygon class="st1" points="396.24,231.11 396.01,230.99 394.46,230.18 394.07,229.98 393.83,230.34 392.08,232.97 391.89,233.26 
		392.1,233.53 394.32,236.43 394.55,236.73 394.9,236.58 396.45,235.9 396.78,235.76 396.74,235.4 396.27,231.36 	"/>
	<polygon class="st1" points="397.18,129.92 397.34,130.41 397.82,130.22 399.64,129.52 400.06,129.35 399.93,128.92 399.22,126.59 
		399.04,125.98 398.49,126.33 396.77,127.44 396.46,127.64 396.57,127.99 	"/>
	<polygon class="st1" points="410.92,158.7 411.06,158.84 411.26,158.85 413.47,158.89 413.99,158.91 413.97,158.39 413.87,156.41 
		413.86,156.26 413.77,156.14 412.24,154.12 412.01,153.81 411.66,153.97 409.78,154.8 409.55,154.91 409.5,155.16 409.21,156.69 
		409.16,156.94 409.34,157.12 	"/>
	<polygon class="st1" points="392.75,132.37 392.41,132.05 390.89,130.63 390.5,130.27 390.17,130.69 388.66,132.61 388.29,133.08 
		388.82,133.34 390.64,134.26 390.98,134.43 391.23,134.14 392.44,132.72 	"/>
	<polygon class="st1" points="408.61,208.5 408.66,208.55 408.71,208.59 409.99,209.47 410.25,209.64 410.52,209.48 412.4,208.33 
		412.81,208.09 412.57,207.68 411.49,205.79 411.4,205.62 411.21,205.57 409.59,205.1 409.34,205.02 409.14,205.2 407.59,206.54 
		407.23,206.86 407.54,207.22 	"/>
	<polygon class="st1" points="411.27,221.12 410.99,221.05 409.44,220.65 409.08,220.55 408.9,220.88 407.89,222.7 407.7,223.03 
		407.98,223.29 409.8,224.97 410.14,225.29 411.69,223.75 411.88,223.55 411.81,223.29 411.34,221.4 	"/>
	<polygon class="st1" points="398.53,213.13 398.47,213.41 398.21,214.76 398.16,214.97 398.3,215.15 399.44,216.63 399.79,217.08 
		400.18,216.67 401.39,215.39 401.58,215.19 401.51,214.93 400.97,212.91 400.84,212.43 400.36,212.57 398.81,213.04 	"/>
	<polygon class="st1" points="419.36,143.38 419.38,143.71 419.7,143.81 421.77,144.45 421.9,144.49 422.03,144.46 424.3,143.86 
		424.86,143.72 424.62,143.2 423.29,140.23 423.24,140.12 423.15,140.05 421.47,138.72 421.14,138.45 420.83,138.75 419.65,139.88 
		419.53,140 419.51,140.17 419.26,142.05 419.25,142.1 419.26,142.15 	"/>
	<polygon class="st1" points="584.75,154.28 585.16,154.37 585.31,153.97 586.08,151.88 586.25,151.43 585.79,151.26 583.7,150.49 
		583.21,150.31 583.07,150.82 582.41,153.24 582.27,153.73 582.77,153.84 	"/>
	<polygon class="st1" points="573.33,198.29 572.94,198.24 567.89,197.59 567.05,197.47 567.38,198.26 568.37,200.56 568.43,200.7 
		568.56,200.79 570.87,202.21 571.05,202.32 571.25,202.27 573.23,201.72 573.62,201.61 573.58,201.21 573.37,198.68 	"/>
	<polygon class="st1" points="582.41,187.74 582.09,188.06 580.77,189.37 580.59,189.56 580.64,189.82 581.52,193.88 581.6,194.27 
		584.51,194.27 584.57,193.84 585,190.22 585.03,189.96 584.83,189.79 582.75,188.03 	"/>
	<polygon class="st1" points="585.24,192.94 585.24,198.34 585.83,198.21 590.99,197.11 591.05,197.1 591.12,197.07 595.95,194.54 
		596.35,194.33 596.17,193.92 594.52,190.18 594.41,189.93 594.14,189.9 590.98,189.46 588.58,188.92 588.26,188.84 588.07,189.12 
		586.33,191.73 585.37,192.8 	"/>
	<polygon class="st1" points="441.02,160.14 441.06,160.31 441.21,160.42 444.63,162.78 444.88,162.95 445.14,162.8 447.5,161.5 
		447.68,161.41 447.73,161.22 448.47,158.77 448.58,158.41 448.65,158.47 448.93,158.34 455.61,155.33 455.9,155.2 455.9,152.65 
		458.33,151.33 458.73,151.11 458.53,150.69 457.57,148.68 455.95,144.06 455.91,143.94 455.81,143.86 452.88,141.26 452.54,140.95 
		452.22,141.28 449.65,143.85 447.09,145.53 446.81,145.71 446.88,146.03 447.48,148.99 444.93,152.4 444.83,152.53 444.83,155.02 
		444.99,155.17 448.41,158.26 448.43,158.27 448.17,158.18 443.05,156.22 442.84,156.15 442.64,156.25 440.69,157.31 440.36,157.49 
		440.45,157.86 	"/>
	<polygon class="st1" points="691.33,116.89 691.67,117.3 692.05,116.92 693.28,115.69 693.38,115.59 693.41,115.44 694.94,107.81 
		696.74,104.28 696.88,104.01 696.7,103.77 694.65,101 694.49,100.78 694.22,100.8 689.1,101.22 688.87,101.23 688.74,101.43 
		685.66,106.05 685.58,106.17 685.58,110.09 685.7,110.22 	"/>
	<polygon class="st1" points="588.47,170.92 588.6,171.2 588.91,171.2 598.8,171.31 599.09,171.32 599.23,171.06 602.08,165.79 
		602.2,165.57 602.1,165.35 600.23,161.29 599.92,160.62 599.43,161.17 597.5,163.29 593.68,162.98 593.37,162.96 593.22,163.22 
		592.26,164.85 589.92,164.85 589.86,165.27 589.6,167.03 587.4,166.94 586.6,166.9 586.94,167.63 	"/>
	<polygon class="st1" points="657.4,175.63 657.65,175.79 657.92,175.64 659.78,174.54 660.11,174.35 660.01,173.99 659.35,171.68 
		659.22,171.25 658.78,171.34 656.59,171.78 656.31,171.83 656.22,172.09 655.57,173.96 655.44,174.32 655.75,174.53 	"/>
	<polygon class="st1" points="563.72,181.87 563.73,182 563.82,182.11 565.84,184.67 566.59,187.53 566.66,187.8 566.93,187.88 
		571.21,189.09 571.3,189.11 571.38,189.11 575.34,188.78 575.82,188.74 575.78,188.25 575.5,184.67 577.77,184.93 578.08,184.97 
		578.23,184.7 580.25,181.37 582.55,181.85 582.83,181.9 583.02,181.69 584.78,179.72 585.08,179.38 584.76,179.05 583,177.29 
		582.91,177.2 582.79,177.17 579.08,176.11 576.61,173.19 578.04,172.81 580.16,176.04 580.27,176.2 580.47,176.25 584.75,177.12 
		585.32,177.24 585.34,176.66 585.44,171.72 585.45,171.58 585.38,171.46 583.95,169.04 583.82,168.82 583.56,168.8 578.51,168.47 
		578.34,168.47 578.2,168.56 575.73,170.32 571.86,169.69 571.36,169.61 571.3,170.11 570.97,172.86 570.94,173.08 571.1,173.25 
		573.21,175.46 572.49,176.3 569.01,173.42 568.86,173.29 568.66,173.31 564.05,173.75 563.64,173.79 563.61,174.19 563.28,177.92 
		563.27,177.97 563.28,178.02 	"/>
	<polygon class="st1" points="458.51,158 458.31,159.56 457.46,159.81 456.45,155.99 456.3,155.41 455.76,155.67 449.5,158.77 
		449.33,158.85 449.26,159.02 446.98,164.64 446.95,164.71 446.95,164.8 446.87,166.59 446.85,166.92 447.15,167.05 449.45,168.08 
		453.55,171.62 453.57,171.64 453.59,171.65 458.23,174.83 458.47,174.99 458.73,174.86 461.01,173.63 461.23,173.52 461.26,173.28 
		461.75,170.1 461.79,169.89 461.64,169.72 460.08,167.87 462.01,164.75 462.07,164.65 462.08,164.53 462.33,160.86 462.34,160.64 
		462.18,160.48 459.33,157.72 458.64,157.04 	"/>
	<polygon class="st1" points="451.88,195.2 452.16,195.04 453.54,194.22 453.92,194 453.73,193.59 452.75,191.56 452.52,191.06 
		452.05,191.36 449.78,192.82 449.18,193.21 449.75,193.62 451.62,195.01 	"/>
	<polygon class="st1" points="448.69,196.06 448.38,196.68 447.5,198.44 447.73,198.69 448.62,199.67 448.95,200.03 449.31,199.69 
		450.45,198.64 450.81,198.3 450.47,197.95 449.17,196.56 	"/>
	<polygon class="st1" points="446.04,144.86 446.83,145.01 446.59,144.24 445.45,140.58 445.35,140.23 444.98,140.24 441.56,140.32 
		441.14,140.33 441.09,140.75 440.76,143.43 440.71,143.89 441.16,143.97 	"/>
	<polygon class="st1" points="500.41,218.66 500.27,219.02 499.1,221.95 498.96,222.29 499.25,222.51 502.26,224.9 502.68,225.24 
		502.97,224.78 504.35,222.6 504.39,222.53 504.41,222.46 504.87,220.66 504.96,220.32 504.66,220.13 502.98,219.08 502.89,219.02 
		502.8,219.01 500.79,218.72 	"/>
	<polygon class="st1" points="559.11,184.55 559.14,184.67 559.22,184.76 561.86,187.84 562.08,188.1 562.41,187.97 564.05,187.31 
		564.56,187.11 564.3,186.63 562.32,183.01 562.26,182.89 562.14,182.82 559.18,181.06 558.21,180.49 558.46,181.59 	"/>
	<polygon class="st1" points="459.94,180.31 459.99,180.5 461.05,184.33 461.25,185.04 461.82,184.57 466.26,181.01 470.91,180.69 
		471.09,180.68 473.75,178.03 473.88,177.9 473.89,177.71 474.21,171.85 474.22,171.67 474.11,171.52 471.42,168.1 471.08,167.67 
		470.7,168.06 468.77,169.98 468.04,169.2 468.19,165.9 468.23,165.04 467.47,165.45 463.57,167.57 463.33,167.7 463.31,167.96 
		462.75,175.18 460.03,180.14 	"/>
	<polygon class="st1" points="477.16,180.63 477.22,180.94 477.53,181.01 481.11,181.82 481.78,181.97 481.7,181.29 481.54,179.91 
		481.51,179.67 481.31,179.55 477.72,177.35 477.19,177.02 477.01,177.63 476.76,178.44 476.73,178.56 476.75,178.68 	"/>
	<polygon class="st1" points="392.51,135.28 392.34,135.65 391.83,136.76 391.77,136.91 391.8,137.07 392.31,139.3 392.4,139.69 
		392.79,139.68 397.05,139.57 397.31,139.57 397.45,139.34 399.17,136.51 399.33,136.25 399.17,136 397.75,133.67 397.37,133.03 
		396.94,133.65 395.31,136 392.91,135.38 	"/>
	<polygon class="st1" points="808.06,343.04 808.03,342.7 807.59,336.74 807.57,336.55 807.43,336.42 805.72,334.83 805.63,334.75 
		805.52,334.72 803.68,334.21 803.11,334.06 803.06,334.64 802.56,340.67 802.54,340.86 802.66,341 805.01,344.05 805.24,344.36 
		805.6,344.2 807.75,343.18 	"/>
	<polygon class="st1" points="807.11,347.63 806.52,347.37 806.43,348 806.11,350.22 806.09,350.37 806.15,350.49 807.17,352.72 
		807.37,353.16 807.81,352.96 810.6,351.69 810.81,351.59 810.87,351.37 811.25,349.91 811.36,349.51 810.98,349.34 	"/>
	<polygon class="st1" points="806.09,330.32 805.76,330.03 805.44,330.32 804.55,331.15 804.44,331.25 804.41,331.4 804.09,332.86 
		804,333.27 804.39,333.42 806.55,334.24 806.86,334.36 807.08,334.12 808.23,332.85 808.55,332.48 808.18,332.15 	"/>
	<polygon class="st1" points="811.36,374.34 811.19,374.69 810.24,376.68 810.13,376.92 810.26,377.14 811.3,378.88 811.51,379.22 
		811.88,379.08 813.35,378.56 813.64,378.46 813.67,378.16 814.02,375.39 814.07,374.95 813.64,374.86 811.74,374.43 	"/>
	<polygon class="st1" points="209.59,206.01 209.45,205.91 208.41,205.13 208.02,204.84 207.73,205.23 206.92,206.34 206.84,206.44 
		206.83,206.57 206.7,207.64 206.67,207.86 206.82,208.02 207.83,209.13 208.11,209.44 208.46,209.2 209.82,208.29 210.1,208.11 
		210.02,207.78 209.63,206.18 	"/>
	<polygon class="st1" points="800.97,332.35 800.55,332.62 798.4,334.02 798.12,334.2 798.19,334.53 798.5,336.05 798.55,336.25 
		798.72,336.36 800.68,337.63 801.18,337.95 801.4,337.4 802.35,334.98 802.44,334.76 802.31,334.56 801.23,332.78 	"/>
	<polygon class="st1" points="769.62,235.05 769.55,235.04 767.62,234.74 767.22,234.67 767.09,235.07 765.56,239.64 765.47,239.9 
		765.66,240.11 771.45,246.61 772.2,247.45 772.3,246.33 773.11,236.99 773.14,236.64 772.82,236.5 769.68,235.08 	"/>
	<polygon class="st1" points="812.14,365.66 812.03,365.44 811.78,365.41 810.57,365.23 810.23,365.18 810.07,365.49 809.04,367.48 
		808.9,367.74 809.07,367.98 810.62,370.24 810.95,370.7 811.36,370.31 813.26,368.49 813.53,368.24 813.36,367.91 	"/>
	<polygon class="st1" points="497.59,225.89 497.26,225.88 495.17,225.8 494.9,225.79 494.75,226.02 493.57,227.82 493.53,227.89 
		493.51,227.96 493.22,229.1 493.16,229.33 493.31,229.52 494.27,230.73 494.54,231.07 494.9,230.85 498.25,228.79 498.59,228.58 
		498.45,228.21 497.7,226.2 	"/>
	<polygon class="st1" points="814.51,381.84 814.43,381.61 814.19,381.54 812.11,380.93 811.83,380.85 811.62,381.06 810.07,382.71 
		809.86,382.93 809.96,383.21 811.18,386.5 811.33,386.92 811.75,386.81 815.39,385.85 815.9,385.72 815.72,385.22 	"/>
	<polygon class="st1" points="814.38,251.63 814.26,251.42 814.01,251.39 809.75,250.88 809.67,250.87 809.59,250.89 805.62,251.8 
		804.95,251.96 805.32,252.54 806.85,254.88 806.97,255.06 807.18,255.09 812.97,256.01 813.13,256.03 813.27,255.96 815.6,254.74 
		816.06,254.5 815.8,254.07 	"/>
	<polygon class="st1" points="821.79,247.03 820.06,246.63 819.92,246.59 819.78,246.64 815.51,248.27 814.81,248.54 815.34,249.07 
		817.37,251.1 817.68,251.41 818.02,251.13 821.99,247.88 822.74,247.26 	"/>
	<polygon class="st1" points="805.61,415.03 805.63,415.02 807.01,412.85 807.13,412.68 807.07,412.48 806.47,409.97 806.38,409.61 
		806.02,409.59 804.11,409.51 803.56,409.48 803.61,410.04 803.76,411.78 802.65,412.75 802.63,412.76 802.61,412.78 800.28,415.2 
		800.14,415.35 800.14,415.55 800.31,421.36 800.31,421.4 800.32,421.42 801.01,426.09 801.05,426.34 801.27,426.46 802.14,426.89 
		802.75,427.2 802.84,426.52 803.18,423.84 803.71,420.29 803.71,420.24 803.88,417.52 	"/>
	<polygon class="st1" points="811.6,397.56 811.59,397.44 811.52,397.34 809.96,394.83 809.64,394.31 809.21,394.74 807.39,396.56 
		807.24,396.71 807.25,396.92 807.33,400.73 807.42,404.72 807.42,404.73 807.51,406.55 807.53,407.01 810.24,407.01 810.35,406.68 
		811.92,402.18 811.95,402.08 811.94,401.98 	"/>
	<polygon class="st1" points="798.94,429.49 798.72,429.35 798.47,429.46 796.56,430.36 796.51,430.39 796.47,430.42 795.42,431.25 
		795.15,431.46 795.25,431.78 796.16,434.66 795.83,438.4 795.82,438.5 795.86,438.6 796.76,441.16 796.93,441.65 797.41,441.44 
		798.35,441.03 798.62,440.91 798.64,440.61 799.01,434 800.06,432.77 800.16,432.66 800.18,432.52 800.4,430.75 800.44,430.45 
		800.18,430.28 	"/>
	<polygon class="st1" points="806.97,432.85 806.95,432.75 806.89,432.66 805.84,431.2 805.51,430.74 805.1,431.13 804.05,432.14 
		803.91,432.28 803.9,432.49 803.87,434.18 803.86,434.28 803.91,434.38 804.54,435.85 804.72,436.26 805.15,436.12 807.07,435.44 
		807.47,435.3 807.38,434.88 	"/>
	<polygon class="st1" points="361.42,119.26 361.46,119.42 361.59,119.52 363.42,120.94 363.56,121.05 363.75,121.04 366.19,120.85 
		367.66,122.05 368.02,122.34 365.98,122.61 365.91,122.62 365.85,122.64 364.6,123.18 361.92,122.42 361.36,122.26 361.31,122.84 
		361.11,124.97 361.08,125.2 361.24,125.36 363.16,127.27 365.06,129.67 365.51,130.24 365.86,129.6 366.47,128.48 366.56,128.32 
		366.52,128.15 366.12,126.29 368.15,125.82 371.36,126.89 371.65,126.98 371.86,126.77 373.99,124.65 374.3,124.33 374.01,123.98 
		372.08,121.76 372,121.66 371.89,121.62 370.27,121.01 370.01,120.92 369.8,121.08 368.18,122.32 368.04,122.34 368.34,121.98 
		369.36,120.76 369.65,120.4 369.31,120.09 367.28,118.27 367.08,118.09 366.82,118.17 365.21,118.66 361.55,116.3 360.52,115.63 
		360.81,116.82 	"/>
	<polygon class="st1" points="375.72,127.93 375.25,128.71 374.64,129.72 374.54,129.89 374.59,130.08 374.99,131.81 375.16,132.52 
		375.75,132.09 376.86,131.28 377.19,131.04 377.02,130.68 376.11,128.75 	"/>
	<polygon class="st1" points="375.98,134.41 375.87,134.56 374.76,136.18 374.52,136.53 374.83,136.81 376.45,138.33 376.77,138.63 
		377.1,138.34 378.75,136.92 378.32,137.48 378.04,137.85 378.39,138.15 379.61,139.16 379.86,139.37 380.14,139.22 382.27,138.1 
		382.47,138 382.52,137.78 383.13,135.25 383.24,134.79 382.77,134.67 381.15,134.26 380.84,134.19 380.65,134.44 379.51,135.92 
		379.41,135.78 378.29,134.15 378.1,133.88 377.78,133.96 376.16,134.36 	"/>
	<polygon class="st1" points="374.16,122.46 374.49,122.92 374.9,122.52 376.47,120.94 376.09,120.6 374.07,118.78 373.56,118.32 
		373.29,118.95 372.79,120.17 372.68,120.42 372.84,120.64 	"/>
	<polygon class="st1" points="385.32,125.92 385.36,126.12 385.53,126.23 387.56,127.54 387.96,127.81 388.22,127.41 389.44,125.59 
		389.6,125.35 389.47,125.1 388.36,122.87 388.14,122.44 387.71,122.65 385.27,123.87 384.94,124.04 385.01,124.4 	"/>
	<path class="st1" d="M806.32,329.65l-0.08-1l-1.04-13.05l0-0.03l-0.01-0.04l-1.44-6l-0.03-0.14l-0.1-0.09l-4.15-4.15l0.37-5.97
		l2.06-1.69l0.38-0.32l-0.33-0.38l-7.32-8.47l0.12-5.63l3.01-3.26l0.17-0.19l-0.06-0.25l-0.78-3.39l-0.06-0.28l-0.28-0.08
		l-6.07-1.77l-6.08-10.79l0.8-0.53l1.68,2.36l0.27,0.37l0.38-0.24l3.13-1.96l0.53-0.33l-0.46-0.43l-4.83-4.57l-0.26-0.24l-0.31,0.17
		l-2.36,1.3l-3.92-2.55l-0.08-0.05l-0.04-0.11l-1.92-4.61l-0.13-0.3h-5.04l-0.07,0.4l-0.45,2.56l-2.03-0.19l-8.7-17.39l0.48-5.12
		l3.18-0.71l0.49-0.11l-0.12-0.48l-2.27-9.06l4.5,3.55l0.78,0.61l0.01-0.99l0.13-12.34l4.17-4.29l6.46-0.13l0.71-0.01l-0.27-0.65
		l-3.75-9.2l-1.8-19.89l-0.04-0.43l-0.01-0.07l-1.28-14.13l-0.02-0.25l-0.22-0.12l-3.24-1.84l8.63-5.96l0.29-0.2l-0.1-0.34
		l-1.31-4.31l-0.1-0.32l-0.33-0.03l-17.23-1.44l-0.26-0.02l-0.16,0.21l-1.96,2.57l-4.49,0.37l-0.38,0.03l-0.06,0.38l-0.46,3.21
		l-2.88-0.2v-4.29l3.97-1.32l0.2-0.06l0.09-0.18l1.7-3.52l0.06-0.12l-0.01-0.14l-0.92-9.27l-0.03-0.3l-0.28-0.11l-1.7-0.65
		l-0.23-0.09l-0.2,0.13l-1.38,0.86l-0.1-2.55l-0.03-0.68l-0.63,0.25l-3.73,1.44l-2.36-2.7l0.83-4.03l2.77,2.45l0.31,0.27l0.32-0.25
		l1.6-1.28l2.57,2.8l0.51,0.55l0.29-0.69l1.7-3.92l0.05-0.11l-0.01-0.12l-0.37-4.45l2.78-2.32l5.28,0.5l0.19,0.02l0.15-0.11
		l9.14-6.92l0.41-0.31l-0.33-0.39l-1.39-1.63l3.3,0.47l0.57,0.08l-0.02-0.58l-0.13-4.44l-0.02-0.57l-0.55,0.1l-4.59,0.84l-1.28-2.79
		l-0.1-0.23l-0.24-0.05l-5.87-1.15l2.11-2.64l0.32-0.4l-0.41-0.3l-2.85-2.08l2.58-1.83l0.41-0.29l-0.31-0.4l-3.92-5.09l-0.26-0.34
		l-0.37,0.22l-11.1,6.53l-0.21,0.12l-0.03,0.24l-0.64,5.22l-2.92,3.81l-0.39,0.51l0.59,0.24l6.39,2.58l-2.85,1.29l-11.84-3.22
		l-0.21-0.06l-0.19,0.12l-13.96,9.26l-20.86,11.34l-0.11,0.06l-0.07,0.11l-5.61,9.14l-0.1,0.16l0.03,0.18l0.44,2.3l-3.36,0.92
		l-0.11,0.03l-0.08,0.08l-5.35,4.83l-0.34,0.31l0.29,0.36l3.79,4.7l0.21,0.26l0.31-0.1l3.19-0.98l4.63,2.61l-0.45,4.39l-4.31,0.48
		l-0.1,0.01l-0.09,0.05l-2.88,1.68l-6.41-4.02l-0.74-0.47v9.12l-6.59,4.94l-0.09,0.07l-0.05,0.1l-2.58,5l-0.19,0.37l-0.03,0.06
		l-0.04,0.07l-1.27,2.45l-6.74,3.8l-4.96-4.71l-0.12-0.11l-0.17-0.02l-5.22-0.52l-0.17-0.02l-0.14,0.09l-7.44,4.83l-0.06,0.04
		l-0.05,0.06l-5.09,6.27l-0.06,0.08l-0.03,0.09l-1.75,6.14l-2.96,0.91l-4-2l-0.13-0.06l-0.14,0.01l-4.05,0.39l-0.21,0.02l-0.13,0.17
		l-1.78,2.33l-1.43-1.23l-0.35-0.3l-0.32,0.34l-1.37,1.47l-1.37-1.28l3.4-3.4l-1.06-0.08l-7.05-0.52l-0.2-0.01l-0.15,0.13
		l-4.05,3.52l-0.23,0.2l0.09,0.3l2.14,7.29l-3.01,2.91v-5.21h-3.41l-0.14,0.13l-2.12,1.92l-0.42-1.91l3.84-3.47l1.03-0.93
		l-1.38,0.08l-4.31,0.26l-0.1,0.01l-0.09,0.04l-12.79,6.53l-0.54,0.28l0.39,0.47l2.19,2.66l-3.33,3.21l-0.27,0.26l0.18,0.33
		l1.44,2.61l0.23,0.41l0.42-0.21l1.96-0.98l0.21,3.06l0.01,0.16l0.1,0.12l2.62,3.05l-4.06,0.99l-0.17,0.04l-0.1,0.14l-1.43,1.96
		l-0.16,0.22l0.11,0.25l1.07,2.57l-3.2,0.53l-5.11-1.53l-0.48-0.14l-0.13,0.49l-1.45,5.44l-8.44-1.49l-0.57-0.1v13.06l-5.56-0.93
		l-9.1-8.24l3.03-2.13l0.39-0.27l-0.26-0.39l-5.88-8.75l-0.07-0.11l-0.12-0.06l-3.79-1.83l-0.18-0.09l-0.19,0.06l-5.58,1.9
		l-6.23-2.42l-0.6-0.23l-0.06,0.64l-0.89,9.63l-11.11,4.74l-3.93-2.66l0.56-2.01l0.17-0.61l-0.63-0.01l-11.88-0.13l-0.25,0
		l-0.15,0.2l-3.13,4.18l-0.06,0.07l-0.02,0.08l-0.22,0.79l-0.4-2.05l-0.03-0.16l-0.12-0.11l-2.22-1.96l-0.35-0.31l-0.32,0.34
		l-2.55,2.68l-3.28,1.64l-0.04,0.02l-0.22,0.11l-0.25,0.12l-0.26,0.13l-3.44,1.72l-0.04,0.02l-0.03,0.02l-3.84,2.95l-5.26,1.54
		l-0.19,0.05l-0.1,0.17l-1.13,1.98l0.08-3.11l10.7-11.09l0.04-0.04l0.03-0.06l6-10.83l0.03-0.05l0.01-0.05l2.74-9.66l0.07-0.25
		l-0.17-0.2l-8.36-9.53l-0.14-0.16l-0.21-0.01l-7.83-0.26l-0.26-0.01l-0.15,0.21l-2.62,3.75l-2.12,0.35l2.08-5.88l0.2-0.57
		l-0.6-0.07l-5.59-0.69l1.63-2.34l0.26-0.36l-0.34-0.29l-3.92-3.26l-0.22-0.18l-0.26,0.1l-3.53,1.31l-0.15,0.05l-0.09,0.13
		l-5.61,8.35l-0.12,0.18l0.06,0.21l1.16,4.39l-5.42,0.35l-0.5,0.03l0.04,0.49l0.13,1.57l0.01,0.13l0.07,0.11l1.54,2.27l-3.13-0.66
		l-0.25-0.05l-0.19,0.17l-2.04,1.92l-4.42-0.81l-0.57-1.93l-0.1-0.35l-0.37,0.01l-7.05,0.13l-0.49,0.01l0.02,0.49l0.12,3.61
		l-8.05,1.12l-0.13,0.02l-0.1,0.08l-5.62,4.47l-4.27,0.13l-0.18,0.01l-0.13,0.11l-3.26,2.87l-0.11,0.1l-0.04,0.15l-1.44,5.88
		l-0.04,0.18l0.09,0.16l2.44,4.41l-3.47,0.87l-10.99-1.81l-0.03,0l-0.04,0l-6.4-0.13l-0.29-0.01l-0.14,0.26l-1.96,3.52l-0.06,0.1
		l0,0.12l-0.26,9.14l-0.01,0.21l0.15,0.15l3.98,3.85l1.63,3.8h-4.59l-4.69-8.75l-0.15-0.27l-0.31,0.02l-3.54,0.21l-0.02,0
		l-0.23,0.01l-0.25,0.01l-2.62,0.16l-0.35,0.02l-0.09,0.34l-1.09,3.94l-3.72-3.38l-0.58-0.52l-0.22,0.75l-1.17,4.05l-0.08,0.26
		l0.19,0.2l4.45,4.83l0.18,2.96l-7.33-6.52l-0.24-4.31l3.41-4.16l0.1-0.12l0.01-0.15l0.52-6.92l0.06-0.82l-0.75,0.34l-1.43,0.65
		l-0.19,0.08l-0.07,0.19l-1.65,4.58l-2.44,2.19l-2.63,0.75l-0.17,0.05l-0.1,0.15l-2.61,3.92l-0.08,0.12l0,0.15l0.13,10.17
		l-6.32,9.93l-0.09,0.14l0.01,0.16l0.39,6.13l0.03,0.46h6.75l5.09,6.09v5.79l-3.67,4.43l-0.2,0.24l0.14,0.28l1.04,2.09l0.07,0.13
		l0.13,0.07l1.92,1.08l-3.94,0.92l-1.39-5.22l4.08-7.14l0.11-0.19l-0.07-0.21l-1.83-5.48l-0.1-0.29l-0.29-0.04l-6.4-0.91l-0.24-0.03
		l-0.17,0.16l-3.52,3.39l-0.14,0.13l-0.01,0.19l-0.38,7.52l-5.67,5.79l-5.25,1.92l-0.11,0.04l-0.08,0.08l-3.38,3.63l-11.7-7.22
		v-2.63l7.53,3.47l0.19,0.09l0.19-0.07l4.31-1.7l0.04-0.02l0.04-0.03l6.92-4.44l0.11-0.07l0.06-0.12l4.7-9.4l0.07-0.14l-0.02-0.15
		l-0.76-4.96l7.91-18.8l0.02-0.04l0-0.02l0.91-3.26l0.03-0.12l-0.03-0.12l-0.86-4.04l5.02-4.77l0.12-0.11l0.03-0.17l1.04-6.92
		l0.03-0.2l-0.12-0.16l-3.54-4.69l3.33-0.44l0.48-0.06l-0.06-0.48l-0.61-5.04l-0.05-0.4l-0.4-0.03l-4.12-0.3l-0.48-0.04l-0.04,0.48
		l-0.3,3.66l-0.01,0.11l0.04,0.11l0.46,1.17l-1.56-0.63l-0.26-0.1l-0.22,0.17l-3.92,3l-0.05,0.04l-0.04,0.05l-4.68,5.97l-3.54,3.41
		l-5.36,1.28l-0.13,0.03l-0.1,0.09l-2.87,2.74l-0.31,0.3l0.26,0.35l2.68,3.53l-2.88,5.17l-4.12,1.25l-0.32,0.1l-0.02,0.34
		l-0.13,1.96l-0.01,0.21l0.15,0.15l3.58,3.7l-1.2,3.37l-0.05,0.14l0.04,0.15l0.65,2.35l0.02,0.08l0.05,0.07l1.2,1.74l-4.09,3.76
		l-1.21-1.92l-1.29-5.53l-0.02-0.08l-0.04-0.07l-5.1-8.18l-0.13-0.2l-0.11-0.2l-2.49-4.58l-0.03-0.05l-0.04-0.05l-6.53-7.05
		l-0.15-0.16h-5.56l-0.09,0.38l-0.65,2.87l-0.01,0.04l0,0.05l-0.12,4.04l-3.13,1.86l-1.78-0.36l-0.32-0.06l-0.18,0.27l-1.01,1.52
		l-1.62-1.28l2.45-2.23l0.16-0.15v-3.56l-0.48-0.01l-9.11-0.13l-4.44-3.3l-0.15-0.11l-0.18,0.02l-6.78,0.63l-1.81-2.48l3.33-0.31
		l0.27-0.03l0.12-0.24l2.22-4.31l0.29-0.55l-0.61-0.14l-5.61-1.3l-0.29-0.07l-0.19,0.23l-2.16,2.59l-0.96-1.73l-0.1-0.19l-0.21-0.05
		l-14.36-3.52l-0.27-0.07l-1.69,1.69l-1.74-1.64l-0.27-0.25l-0.31,0.18l-7.25,4.25l-3.43-3.32l1.07-3.1l0.05-0.16l-0.05-0.16
		l-1.02-2.93l4-1.33l4.11,2.86l0.42,0.29l0.27-0.44l2.09-3.39l0.07-0.12l0-0.14l-0.13-6.14l0-0.18l-0.12-0.13l-5.74-6.27l-0.59-0.65
		l-0.23,0.84l-1.65,5.96l-7.68,4.99l-0.18,0.12l-0.04,0.21l-0.63,3.75l-3.39,3.06l-0.22,0.2l-0.03,0.02l-0.18,0.16l-0.22,0.2
		l-3.47,3.13l-1.22-2.27l1.97-0.39l0.64-0.13l-0.31-0.58l-3.26-6.14l-0.16-0.3l-0.34,0.05l-4.84,0.77l-4.85-1.66l-0.11-0.04
		l-0.12,0.02l-6.14,0.91l-0.28,0.04l-0.1,0.26l-3.19,7.96l-1.86-1.07l-3.41-7.96l0.51-6.28l0.05-0.59l-0.59,0.07l-5.74,0.65
		l-0.33,0.04l-0.09,0.31l-1.57,5.48l-0.07,0.25l0.16,0.2l2.24,2.71l-1.87,2.49l-3.21-1.77l-0.62-4.17l-0.05-0.32l-0.03-0.18
		l-0.31-2.06l0.37-1.74l0.04-0.21l-0.13-0.17l-1.52-2.1l1.4-2.56l4.71-5.86l3.91-1.26l0.18-0.06l0.09-0.16l2.35-4.05l0.05-0.08
		l0.01-0.09l0.88-5.87l0.03-0.17l0,0l0.09-0.58l0.9-5.52l0.77,1.09l-0.63,4.51l-0.02,0.14l0.06,0.13l1.92,4.09l0.52,6.83l0.01,0.13
		l0.07,0.1l2.68,4.09l0.64,4.2l0.03,0.23l0.2,0.12l10.18,6.13l0.16,0.1l0.18-0.03l6.26-1.17l0.19-0.04l0.11-0.15l4.7-6.4l0.06-0.09
		l0.02-0.11l1.31-6.79l0.02-0.1l-0.03-0.11l-2.07-8.03l0.26-11.68l0-0.08l-0.02-0.08l-1.31-4.31l-0.02-0.07l-0.03-0.05l-3.21-5.13
		l-0.47-3.63l0.79-0.5l1.69,2.37l0.28,0.38l0.39-0.26l1.96-1.31l0.36-0.24l-0.2-0.39l-1.83-3.52l-0.06-0.11l-0.1-0.07l-6.92-4.7
		l-0.1-0.07l-0.13-0.01l-9.92-0.91l-0.18-0.02l-0.15,0.11l-1.94,1.42l-4.94,2.86l-0.25,0.15l0.14,4.06l-3.18,5.13l-6.39,0.13
		l-0.23,0l-0.14,0.18l-2.14,2.69l-0.16,0.2l-0.16,0.19l-0.08,0.1l-5.41,6.81l-2.63-0.12l-0.16-0.01l-0.13,0.09l-3.52,2.39
		l-2.45-0.12l-0.34-0.02l-0.13,0.32l-1.03,2.59l-1.11,2.1l-2.33,1.75l0.19,0.37l1.01,1.9l-1.01,1.01l-4.58-0.74l-0.42-0.07
		l-0.12,0.41l-1.3,4.57l-0.01,0.03l-0.01,0.04l-0.88,6.64l-2.49,1.02l-12.67-1.68l-0.04,0l-0.04,0l-5.78,0.21l-0.25,0.01l-0.24,0.01
		l-4.31,0.16l-0.08,0l-0.07,0.03l-5.35,1.96l-0.3,0.11l-0.02,0.32l-0.26,4.31l0,0.08l0.02,0.07l0.44,1.66l-0.81,0.67l-0.93-2.38
		l-0.11-0.29l-0.31-0.02l-1.91-0.12l-3.13-3.01l-0.28-0.27l-0.32,0.21l-3.95,2.55l-2.59,0.29l-0.51,0.06l-2.53,0.29l-0.14,0.02
		l-0.11,0.08l-4.05,3.13l-0.05,0.04l-0.04,0.06l-2.19,3.05l-4.3-0.25l-0.29-0.02l-0.15,0.25l-2.62,4.36l-3.03,0.36l-0.41,0.05
		l-0.02,0.42l-0.12,3.27l-4.62,3l-0.24,0.15l0.02,0.28l0.26,4.57l0.01,0.15l0.1,0.12l1.72,2.18l-1.97,2.44l-0.15,0.19l0.05,0.23
		l0.52,2.22l0.07,0.29l0.29,0.07l2.83,0.71l0.56,2.79l-0.9,1.61l-0.09,0.16l-0.16,0.28l-0.1,0.17l-0.43,0.77l-4.19,2.41l-0.11,0.06
		l-0.06,0.1l-2.22,3.52l-0.02,0.03l-0.01,0.02l-2.35,4.83l-0.04,0.09l-0.01,0.09l-0.26,3.92l-0.01,0.08l0.02,0.08l0.58,2.11
		l-1.54,1.89l-0.1,0.12l-0.01,0.15l-0.09,1.41l-3.39-0.28l-2.31-2.19l0.23-2.11l0.05-0.44l-0.43-0.09l-2.48-0.52l-0.4-0.08
		l-0.15,0.38l-1.39,3.41l-5.13,4.36l-0.2,0.17l0.04,0.26l0.39,2.87l0.06,0.44l0.44-0.02l2.56-0.12l1.81,1.47l0.75,3.49l0.09,0.43
		l0.44-0.05l2.28-0.25l2.27,0.43v1.27l-3.31,4.35l-0.21,0.27l-0.09,0l-0.11,0l-0.1,0.04l-2.16,0.93l-0.16,0.07l-0.08,0.16
		l-0.95,1.89l-1.35,0.34l-0.35,0.09l-0.02,0.36l-0.13,2.61l-0.01,0.29l0.25,0.15l1.95,1.15l-0.5,4.57l-0.02,0.15l-0.06,0.08
		l-1.89,2.34l-0.01,0.01l-0.02,0.03l-0.91,1.43l-0.11,0.17l0.04,0.19l0.39,1.96l0.05,0.24l0.22,0.1l1.65,0.77l-0.23,2.67l-0.03,0.29
		l0.25,0.16l4.74,2.99l0.13,5.48l0,0.12l0.05,0.1l3.89,7.4l0.07,0.14l0.17,0.31l1.03,1.96l-0.17,4.44h0l-0.02,0.52v0.02l-0.01,0.24
		l-0.03,0.83l-3.57-0.12l-0.27-0.01l-0.15,0.22l-1.44,2.17l-1.87,0.23l-0.25,0.03l-0.12,0.22l-2.39,4.28l-3.65,1.37l-2.79-4.12
		l-0.12-0.18l-0.22-0.03l-7.05-0.91l-0.24-0.03l-0.17,0.17l-3.26,3.4l-0.42,0.44l0.53,0.31l6.39,3.79l-1.2,0.83l-3.39-2.06
		l-0.29-0.18l-0.26,0.21l-2.02,1.59l-0.04-0.08l-0.04-0.08l-0.06-0.06l-4.78-4.34l-0.71-0.65l-0.1,0.96l-0.58,5.57l-1.98-0.99
		l-0.12-0.06l-0.13,0.01l-4.96,0.26l-0.22,0.01l-0.14,0.17l-1.39,1.79l-3.29-5.52l-0.3-0.51l-0.44,0.4l-2.87,2.61l-0.17,0.15
		l0.01,0.23l0.25,4.38l-1.31,1.55l-0.18,0.21l0.09,0.26l0.7,2.1l0.12,0.09l1.88,1.41l-0.12,3.01l0,0.07l0.01,0.06l1.16,5.15
		l-0.39,4.76l-0.91,7.95l-0.02,0.19l0.11,0.15l1.04,1.44l0.23,0.32l0.36-0.16l1.7-0.74l1.15,1.93l0.2,0.34l0.05,0.09l3.13,5.25v3.31
		l0.13,0.14l3.17,3.5h0l0.35,0.39l2.63,2.9l0.13,4l0,0.14l0.07,0.11l0.83,1.29l0.06,0.09l0.01,0.16l0.2,4.48l0.01,0.29l0.26,0.13
		l4.96,2.35l0.03,0.47l0.01,0.13l0.01,0.19l0.02,0.32h0l0.05,0.95l0.01,0.23l0.18,0.14l1.38,1.02l0.1,0.08l0.04,0.09l0.92,2.47
		l0.38,1.87l-0.04,0.04l-1.39,1.39l-0.15,0.15l0.01,0.22l0.26,3.92l0.01,0.13l0.08,0.11l3.56,5.09l-0.25,5.27l-0.64,2.57l-0.06,0.23
		l0.15,0.19l3.26,4.05l0.23,0.28l0.34-0.14l1.57-0.65l0.15-0.06l0.08-0.14l0.68-1.16l1.54,0.83l0.04,0.02l0.04,0.01l2.09,0.66
		l0.21,0.07l0.19-0.12l2.48-1.57l0.23-0.14v-7.15l1.66-9.59l6.15-5.89l0.13-0.13l0.02-0.18l0.52-6.27l0.01-0.08l-0.02-0.08
		l-0.58-2.43l2.78-2.1l0.07-0.05l0.09,0l4.07,0.09l0.11,0l0.1-0.04l3.89-1.8l0.08-0.04l0.03,0.04l0.14,0.05l4.09,1.49l0.08,0.03
		l0.09,0l10.96-0.26l0.59-0.01l-0.12-0.57l-0.81-3.82l2.25-0.43l0.33-0.06l0.06-0.33l2.09-11.75l0.04-0.21l-0.12-0.17l-1.83-2.48
		l-0.11-0.15l-0.17-0.04l-2.29-0.54l0.28-1.61l3.27-3.02l0.32-0.29l-0.25-0.35l-2.69-3.74l0.95-0.5l1.9-0.84l0.2-0.09l0.22-0.07
		l4.41-1.46l0.27-0.09l0.05-0.28l0.61-3.17l3.54-1.95l3.98-1.03l0.02-0.01l1.43-0.44l0.04,0.04l2.32,2.21l-0.23,2.32l-0.64,2.04
		l-0.06,0.2l0.1,0.18l1.44,2.61l0.22,0.39l0.41-0.19l2.87-1.31l0.16-0.07l0.08-0.15l1.4-2.81l1.47-1.58l3.78,0.73l0.22,0.04
		l0.18-0.15l2.1-1.73l1.23-0.1l1.02,0.79l0.15,0.11l0.18-0.01l4.05-0.26l0.04,0l0.05-0.01l3-0.78l1.74-0.38l-0.13,2.76l0,0.11
		l0.04,0.1l1.57,3.79l0.16,0.37l0.39-0.08l1.83-0.39l0.13-0.03l0.1-0.09l1.06-0.96l2.15,1.02l-0.1,1.41l-0.75,1.62l-0.13,0.28
		l0.21,0.24l0.91,1.04l0.09,0.1l0.12,0.04l2.37,0.83l0.97,3.41l1.01,4.4l-1.12,2.73l-0.08,0.2l1.27,2.54l0.24,0.47l0.45-0.27
		l2.82-1.72l0.89,0.27l0.79,1.7l0.64,3.34l0.04,0.19l0.15,0.11l1.96,1.44l0.28,0.2l0.28-0.19l2.21-1.48l1.97,0.12l3.78,1.66
		l-0.11,1.62l-0.01,0.15l0.07,0.13l0.91,1.57l0.11,0.19l0.22,0.04l2.09,0.39l0.26,0.05l0.18-0.2l1.35-1.46l1.47,1.47l0.04,0.04
		l0.05,0.03l2.08,1.27l-0.48,3.34l-0.01,0.09l0.02,0.09l0.52,2.09l0.03,0.12l0.08,0.09l2.35,2.61l0.08,0.09l0.13,0.04l1.96,0.65
		l0.21,0.07l0.19-0.11l1.77-1.06l1.16,0.39l1.08,2.17l0.09,0.18l0.2,0.06l4.83,1.57l0.24,0.08l0.2-0.15l2.09-1.57l0.07-0.05
		l0.04-0.06l2.09-3l0.16-0.23l-0.12-0.25l-3.69-8.08l-0.06-0.12l-0.03-0.02l0.02-0.02l1.36-1.79l4.75-0.37l0.4-0.03l0.05-0.4
		l0.36-3.27l2.01-1.12l2.19,0.12l2.88,2.25l0.33,0.26l0.3-0.28l1.83-1.7l0.29-0.27l-0.21-0.34l-2.18-3.59l-0.95-3.33l2.2-2.31
		l1.81-0.53l3.19,3.43l0.13,0.14l0.19,0.01l7.04,0.44l0.2,0.01l0.21,0.05l7.27,1.68l4.11,2.57l0.29,0.18l0.27-0.21l2.23-1.76
		l3.38,1.81l0.07,0.04l0.07,0.01l12.27,2.35l0.15,0.03l0.14-0.06l4.46-2.04l0.16-0.07h0.14l3.38-0.06l2.86,4.85l0.12,0.2l0.23,0.04
		l2.42,0.38l0.25,0.04l0.21,0.06l1.55,0.45l0.11,2.84l-1.04,1.16l-0.19,0.21l0.09,0.27l0.7,2.09l-2.43,2.79l-0.16,0.19l0.06,0.24
		l0.52,2.22l0.07,0.29l0.29,0.07l5.27,1.22l0.23,2.65l0.04,0.42l0.43,0.02l2.69,0.13l1.9,0.47l1.65,1.86l-2.61,2.16l-0.18,0.15v2.97
		l0.63-0.19l2.8-0.85l2.43,1.34l0.16,0.09l0.18-0.04l2.35-0.52l0.12-0.03l0.09-0.08l1.86-1.61l5.49-1l0.24-0.04l0.21,0l5.65,0.13
		l-1.98,2.08l-0.25,0.27l0.19,0.32l5.66,9.35l0.08,0.14l0.04,0.17l6.3,30.26l0.09,0.45l0.45-0.07l3.39-0.52l0.21-0.03l0.12-0.17
		l2.13-3.07l1.61,0.66l0.61,3.26l0.04,0.23l0.2,0.11l7.18,3.92l0.19,0.11l0.21-0.08l5.43-2.02l2.66,1.15l2.07,4.27l0.08,0.16
		l0.02,0.15l0.46,4.49l0.03,0.25l0.22,0.12l3.94,2.22l0.12,4.16l0.01,0.38l0.37,0.08l4.01,0.88l1.59,1.96l0.25,0.31l0.35-0.19
		l4.17-2.2l0.75,2.69l0.02,0.08l0.04,0.06l3,4.44l0.13,0.19l0.22,0.03l4.7,0.52l0.35,0.04l0.15-0.32l1.31-2.86l5.97-0.25l0.15-0.01
		l0.12-0.09l4.15-3.09l0.17-0.12l0.17-0.06l16.73-6.29l5.65-0.37l0.89,1.33l0.11,0.17l0.19,0.04l8.68,1.89l0.6,3.72l0.04,0.25
		l0.22,0.11l3.39,1.7l0.08,0.04l0.09,0.01l9.53,1.04l3.62,0.5l1.85,1.72l0.21,0.2l0.28-0.1l3-1.04l0.09-0.03l0.07-0.06l2.74-2.35
		l0.09-0.08l0.04-0.11l1.96-4.83l0.11-0.27l-0.19-0.22l-3.14-3.77l0.36-5.48l1.77-0.55l0.32-0.1l0.02-0.34l0.11-2.3l2.3-0.11
		l0.36-0.02l0.81-3.1l10.9,4.39l0.04,0.01l0.04,0.01l9.89,2.28l2.01,7.8l0.05,0.21l0.19,0.1l7.44,3.92l0.11,0.06l0.13-0.01
		l5.22-0.13l0.13,0l0.11-0.06l7.25-4.33l5.54,1.76l0.09,0.03l0.09-0.01l5.7-0.37l1.42,2.48l0.13,0.23l0.27,0.01l3.45,0.15l0.39,0.02
		l0.11,0.01l1.9,0.08l2.09,3.93l0.12,0.23l0.26,0.03l17.1,1.56l0.16,0.02l0.13-0.08l11.38-6.86l3.53-0.13l0.34-0.01l0.1-0.33
		l1.13-3.66l5.39-5.01l7.45-0.37l2.2,2.08l0.33,0.31l0.34-0.31l3.09-2.84l13.6,2.18l0.39,0.06l0.14-0.38l1.9-5.2l4.58-3.18
		l0.32-0.22l-0.15-0.36l-1.91-4.71l2.04-12.76l3.42-3.41l0.22-0.22l-0.11-0.29l-2.35-6.27l-0.11-0.28l-0.3-0.03l-4.24-0.45
		l3.12-5.79l6.12-4.25l0.17-0.12l0.19-0.1l8.71-4.48l6.59,2.28l0.12,0.04l0.12-0.02l7.98-1.27l11.83,11.71l14.87,15.39l0.23,0.24
		l0.3-0.12l5.68-2.27l3.47,1.61l0.21,0.1l0.21-0.11l2.44-1.22l4.77,1.51l0.1,0.03l0.11-0.01l2.69-0.35l0.01,0l3.88,6.13l0.04,0.06
		l0.05,0.05l4.18,3.65l0.24,0.21l0.29-0.14l8.88-4.31l0.19-0.09l0.06-0.2l1.14-3.56l6.52-7.29l3.43-1.58l3.32,5.42l-1.24,3.97
		l-0.05,0.15l0.05,0.15l2.13,6.08l0.05,0.15l0,0.16l-0.5,15.24l0,0.14l0.07,0.12l2.36,4.04l-9.94,0.85l-0.28,0.02l-0.12,0.26
		l-3.52,7.7l-0.14,0.3l0.23,0.24l9.8,10.05l0.25,3.61l0.07,1.03l0.75-0.71l5.34-5.09l9.2,0.13h0.18l0.13-0.11l6.79-5.48l0.08-0.07
		l0.05-0.09l4.04-8.09l0.04-0.09l0.01-0.09l1.96-22.16l2.73-11.58l0.02-0.08l-0.01-0.09l-1.82-13.59l-0.03-0.21l0.02-0.2l1.18-15.4
		l0.01-0.1l-0.03-0.1l-1.7-4.83l-0.01-0.03l-0.01-0.03l-7.57-15.4l-0.03-0.06l-0.03-0.04l-2.4-2.91l-2.19-10.71l-0.01-0.05
		l-0.01-0.04l-1.16-2.77l6.33,3.43l2.42,6.36l0.03,0.07l0.05,0.06l3.76,4.8l4.56,7.29l3.26,5.35l0.04,0.08l0.08,0.06l3.67,2.78
		l1.13,3.25v0l1.04,3l0.07,0.19l0.18,0.09l4.46,2.11l0.62,4.44l0.02,0.13l0.08,0.1l4.83,6.14l0.77,0.98l0.09-1.25l0.39-5.35
		l0.01-0.05l-0.01-0.06l-0.57-3.52l3.26-0.22l0.09-0.01l0.08-0.04l1.22-0.56l3.31,1.72l1.29,0.67l-0.63-1.31l-2.87-6l-0.13-0.28
		h-4.38l-4.3-1.9l-4.93-3.54l-3.21-8.21l-1.7-4.96l3.47-1.96l7.2-0.39l1.45-0.08l-1.2-0.81l-16.42-11.08l-11.53-10.36l-5.31-9.97
		l-0.06-0.11l-0.09-0.06l-7.25-5.05l-3.35-4.25l-0.23-0.29l-0.35,0.15l-2.35,1.04l-0.23,0.1l-0.05,0.25l-0.52,2.48l-0.06,0.31
		l0.26,0.19l4.23,2.95l2.11,3.16l-0.9,1.17l-1.78-0.45l-0.49-0.12l-0.11,0.49l-0.65,3l-0.07,0.3l0.25,0.19l4.07,3.06l3.64,8.31
		l-4.78-1.97l-1.68-2.01l1.56-3.11l0.24-0.47l-0.49-0.2l-4.18-1.7l-0.04-0.02l-0.06-0.01l-8.75-1.57l-0.16-0.03l-0.15,0.08
		l-6.79,3.52l-0.2,0.1l-0.05,0.22l-2.12,9.32l-2.24-2.86l-0.38-0.49l-0.38,0.49l-2.71,3.47l-2.45-7.12l-0.2-0.57l-0.52,0.32
		l-5.59,3.43l-4.22-0.69l0.23-4.05l6.24-15.59l0.02-0.06l0.01-0.07l1.56-15.63l1.82-7.54l0.03-0.12l-0.03-0.11l-1.53-6.12l2.04-5.47
		l0.05-0.12l-0.02-0.12l-0.88-5.76l12.82-12.57l3.93,0.74l0.45,0.08l0.11-0.44l0.39-1.57l0.05-0.2l-0.12-0.18l-0.92-1.42l1.44-0.95
		l0.12-0.08l0.29-0.19l3.49-2.3l0.03-0.02l0.02-0.02l2.26-1.89l3.15-0.76l0.44-0.1l-0.07-0.44l-0.98-6.25l5.34-1.7l0.1-0.03
		l0.08-0.07l4.31-3.8l2.9-0.09l-2.45,3.51l-0.25,0.36l0.33,0.29l2.87,2.48l0.36,0.31l0.32-0.36l4.18-4.7l0.1-0.11l0.02-0.15l1-7.16
		l3.51-1.33l0.13-0.05l0.09-0.11l3-3.92l0.3-0.39l-0.39-0.29l-3.13-2.35l-0.38-0.28l-0.29,0.36l-2.41,2.98l-2.35-2.24l-0.77-13.25
		l0-0.06l-0.02-0.06l-2.45-7.86l0.75-5.65l4.63-6.63l2.5-0.12l0.33-0.02l0.11-0.32l1.01-3.02l5.06,6.94l0.18,0.24l0.29-0.05
		l3.92-0.65l0.37-0.06l0.03-0.37l0.26-2.87l0-0.06l-0.01-0.06l-0.91-5.87l-0.01-0.04l-0.99-4.14l-0.01-0.05l2.43-2.27l0.34-0.32
		l-0.29-0.35l-6.49-7.76l1.42-4.73l4.79-1.66l-2.59,3.89l-0.11,0.17l0.04,0.2l0.78,3.92l0.04,0.19l0.16,0.11l5.09,3.53l0.11,0.08
		l0.13,0.01l1.88,0.1l-0.12,3.18l-0.01,0.4l0.39,0.09l1.76,0.41l-2,9.98l-0.04,0.18l0.1,0.16l2.29,3.81l0.78,12.02l0,0.04l0.01,0.04
		l1.83,7.83l0.01,0.04l2.4,7.57l-2.68,2.92l-0.19,0.2l0.08,0.26l0.84,2.77l-1.42,1.89l-0.24,0.31l0.26,0.3l3.94,4.58l0.64,7.29
		l0.01,0.16l0.11,0.12l5.55,6.27l0.3,0.34l0.02,0.02l6.27,7.07l0.04,0.05l0.05,0.04l36.03,24.15L806.32,329.65z M165.49,214.81
		l-1.36,1.59l-0.13,0.15l0.01,0.19l0.16,3.17l-0.39,2.68l-2,1.54l-0.11,0.08l-0.05,0.13l-0.57,1.51l-3.97,0.08l-1.58-2.33
		l-0.14-0.21h-4.03l-0.87-1.07l6.54-7.91l0.12-0.14l-0.01-0.19l-0.19-4.04l0.07-0.01l3.09-0.61l3.96,0.55l1.53,2.15L165.49,214.81z
		 M186.43,224.33l-2.23,2.16l-0.03,0.03l-3.89,4.39l-0.07,0.08l-0.03,0.11l-1.05,3.75l-0.07,0.25l-0.02,0.02l-1.66,1.59l-3.41-0.16
		l-1.29-1.36l1.09,0.03l0.18,0l0.14-0.11l1.79-1.43l0.12,0.16l0.13-0.35l0.13-0.11l-0.06-0.08l0.11-0.29l0.49-1.34l0.04-0.1
		l-0.01-0.1l-0.32-3.99l1.43-2.79l5.21-5.63l2.88,0.68l0.89,1.64L186.43,224.33z M524.49,443.69l-1.8,1.67l-0.06,0.05l-0.04,0.07
		l-0.6,1.07l-0.1,0.18l0.06,0.2l0.61,1.95l-0.72,1.8l-1.84,0.46l-0.35,0.09l-0.02,0.36l-0.12,2.16l-2.45,4l-3.7,1.15l-0.16,0.05
		l-0.09,0.13l-2.4,3.29l-2.71-0.24l-0.44-0.04l-0.08,0.44l-0.75,4.24l-2.05,2.31l-6.78,3l-0.06,0.03h-4.32l-0.78-1.66l1.77-1.06
		l2.69-0.38l0.11-0.02l0.1-0.07l5.51-3.81l0.08-0.05l0.05-0.08l1.96-3l4.06-3.66l0.1-0.09l0.04-0.12l0.9-2.71l2.39-4.11l2.91-4.5
		l0.03-0.05l0.02-0.05l2.52-6.9l0-0.01l0,0l0.23-0.64h-0.02l1.49-4.39l0.41-1.21l0.28-0.81l0.01-0.03l0.01-0.05l1.06-6.6l1.63-2.88
		l1.92,0.22l0.37,2.31l-1.06,5.93l-0.01,0.05l0,0.06l0.4,5.81l0,0.05l0.01,0.06l0.9,3.09L524.49,443.69z"/>
	<polygon class="st1" points="373.28,129.28 373.08,128.79 372.61,129.04 369.87,130.45 369.42,130.69 369.68,131.13 371.4,134.07 
		371.71,134.6 372.15,134.17 374.18,132.25 374.42,132.02 374.29,131.71 	"/>
	<polygon class="st1" points="380.52,225.07 380.22,225.17 378.74,225.64 378.29,225.78 378.42,226.23 378.96,228.12 379.05,228.43 
		379.37,228.47 381.19,228.67 381.6,228.72 381.71,228.32 382.05,227.1 382.12,226.85 381.94,226.65 380.73,225.3 	"/>
	<polygon class="st1" points="383.14,142.63 383.34,142.37 383.18,142.09 382.16,140.36 381.8,139.75 381.36,140.31 380.25,141.73 
		380.03,142.01 380.23,142.3 381.34,143.92 381.72,144.47 382.13,143.94 	"/>
	<polygon class="st1" points="380.67,131.3 380.75,131.4 380.88,131.45 384.73,132.76 385.26,132.95 385.36,132.39 385.87,129.45 
		385.91,129.19 385.71,129.01 381.86,125.56 381.58,125.31 381.26,125.53 378.22,127.65 377.78,127.96 378.14,128.37 	"/>
	<polygon class="st1" points="74,213.53 74.21,213.99 74.66,213.76 80.15,210.89 80.4,210.76 80.41,210.48 80.89,199.98 
		80.9,199.83 80.81,199.7 78.19,195.64 77.58,194.7 77.31,195.78 76.28,199.9 74.37,198.69 72.27,192.64 72.07,192.06 71.55,192.39 
		69.06,193.97 65.64,193.75 64.82,193.69 65.17,194.43 	"/>
	<polygon class="st1" points="47.48,339.63 41.08,331.22 44.85,320.51 41.6,317.82 39.23,319.48 29.85,313.06 28.32,315.51 
		28.67,322.93 25.14,326.71 26.19,332.53 32.46,332.17 39.14,340.58 44.13,343.53 44.41,343.21 	"/>
	<polygon class="st1" points="276.73,222.24 276.87,222.42 277.11,222.43 282.39,222.57 282.76,222.58 282.87,222.23 283.48,220.26 
		283.51,220.16 283.5,220.06 283.17,217.11 283.15,216.95 283.05,216.83 280.24,213.78 280.02,213.55 279.72,213.65 275.69,215.06 
		275.45,215.14 275.39,215.39 274.4,218.86 274.34,219.09 274.48,219.28 	"/>
	<polygon class="st1" points="306.99,207.27 307.13,211.29 304.53,213.89 304.3,214.13 304.43,214.44 306.57,219.17 306.68,219.42 
		306.95,219.45 309,219.71 309.12,221.44 309.15,221.8 309.5,221.88 312.19,222.48 313.97,223.37 314.6,223.68 314.67,222.98 
		315.89,211.41 316.77,207.14 320.41,203.21 324.87,201.72 325.02,201.67 325.11,201.54 326.94,198.95 327.08,198.75 327.01,198.52 
		326.37,196.61 328.58,198.01 328.72,198.1 328.88,198.09 331.93,197.78 332.25,197.75 332.99,195.52 334.6,195.64 335.09,195.68 
		335.12,195.19 335.23,193.55 337.06,194.24 337.59,194.44 337.71,193.88 337.98,192.53 339.16,193.81 339.56,194.24 339.91,193.77 
		341.28,191.94 341.35,191.85 341.37,191.73 341.7,189.75 343.66,191.13 343.98,191.36 344.27,191.09 345.76,189.74 349.03,190.45 
		349.31,190.51 349.5,190.29 352.26,187.1 374.32,186.64 374.44,186.64 374.55,186.58 379.89,183.68 380.1,183.57 380.14,183.33 
		380.75,179.36 380.78,179.15 380.64,178.98 378.35,176.23 378.15,176 377.86,176.07 372.52,177.45 372.29,177.5 372.19,177.71 
		371.42,179.39 362.76,178.66 358.91,175.41 358.65,175.19 358.36,175.36 355.06,177.22 351.77,175.79 351.53,175.69 351.31,175.83 
		347,178.65 343.31,178.65 343.18,178.76 341.7,180 339.57,177.73 338.94,177.07 338.74,177.96 337.6,182.95 335.22,183.08 
		334.82,183.1 334.76,183.49 334.5,185.33 328.1,187.32 325.82,186.32 325.49,186.18 325.26,186.46 323.73,188.29 323.45,188.63 
		325.39,190.57 323.24,192.61 319.1,190.9 318.55,190.67 318.44,191.26 317.9,194.2 315.12,194.07 314.64,194.04 314.62,194.52 
		314.48,196.84 310.48,198.91 307.93,198.06 307.69,197.98 307.48,198.13 304.43,200.42 304.25,200.56 304.24,200.79 304.09,204.14 
		304.08,204.36 304.23,204.51 	"/>
	<polygon class="st1" points="303.78,211.37 303.84,212.25 304.55,211.73 306.23,210.51 306.43,210.36 306.43,206.98 306.05,206.9 
		304.07,206.44 303.43,206.29 303.48,206.94 	"/>
	<polygon class="st1" points="365.61,130.27 365.48,130.75 365.07,132.17 364.97,132.53 365.29,132.72 366.81,133.63 367.5,134.05 
		367.54,133.24 367.64,131.32 367.66,130.95 367.31,130.83 366.1,130.43 	"/>
	<polygon class="st1" points="319.11,228.45 318.65,228.57 314.98,229.48 314.68,229.56 314.62,229.87 314.01,233.38 313.98,233.56 
		314.07,233.71 316.36,237.53 316.52,237.79 316.83,237.76 319.73,237.46 320.15,237.41 320.16,236.99 320.32,233.02 320.32,232.95 
		320.3,232.88 319.23,228.91 	"/>
</g>
</svg>
